{"glyphs":{"0":{"ha":721,"x_min":74,"x_max":649,"o":"m 400 61 l 400 61 q 413 64 406 63 l 413 64 q 456 88 422 67 l 456 88 q 497 118 488 107 q 525 181 506 129 l 525 181 q 553 260 547 235 l 553 260 q 565 346 558 286 q 572 436 572 406 l 572 436 q 571 514 574 468 l 571 514 q 558 613 569 558 l 558 613 q 539 689 547 665 l 539 689 q 500 749 532 708 l 500 749 q 456 796 468 789 l 456 796 q 411 813 442 804 l 411 813 q 363 817 383 821 q 313 796 342 814 l 313 796 q 269 764 282 776 l 269 764 q 228 696 257 750 l 228 696 q 189 615 197 640 l 189 615 q 167 529 179 589 l 167 529 q 151 440 154 468 l 151 440 q 149 344 147 413 l 149 344 q 163 235 150 279 l 163 235 q 189 167 174 192 q 235 117 204 143 l 235 117 q 299 83 261 94 l 299 83 q 349 74 339 74 l 349 74 l 367 75 q 400 61 386 76 z m 286 10 l 286 10 q 279 11 282 10 l 279 11 q 185 61 225 26 l 185 61 q 126 127 147 93 q 90 215 104 161 l 90 215 q 74 343 75 268 l 74 343 q 76 449 72 417 l 76 449 q 94 544 81 481 l 94 544 q 118 639 107 608 l 118 639 q 161 732 128 669 l 161 732 q 214 814 196 794 l 214 814 q 274 860 233 835 l 274 860 q 353 892 317 886 q 432 885 389 897 l 432 885 q 494 861 472 874 l 494 861 q 558 796 518 846 l 558 796 q 610 714 599 746 l 610 714 q 632 626 619 686 l 632 626 q 646 517 643 567 l 646 517 q 647 435 649 468 l 647 435 q 640 337 647 400 q 626 243 632 274 l 626 243 q 596 153 619 213 l 596 153 q 553 69 571 90 q 494 24 536 49 l 494 24 q 433 -8 454 -3 l 433 -8 q 399 -15 415 -14 l 399 -15 q 346 -14 379 -18 l 346 -14 l 317 -11 q 286 10 297 -10 z "},"1":{"ha":414,"x_min":75,"x_max":342,"o":"m 95 603 q 76 624 81 610 q 77 652 71 638 q 99 672 83 667 l 99 672 l 107 675 q 121 683 113 678 l 121 683 q 143 700 131 688 l 143 700 q 165 724 157 714 q 193 760 174 733 q 217 794 213 786 l 217 794 q 233 822 224 806 l 233 822 q 234 823 233 822 q 235 825 235 824 q 236 828 235 826 q 239 833 238 831 q 242 837 240 835 q 247 841 244 839 q 253 844 250 843 q 263 847 257 846 q 274 847 268 847 l 274 847 q 305 836 296 847 q 313 814 314 825 l 313 814 l 311 804 q 310 779 311 793 l 310 779 q 306 742 307 767 l 306 742 q 306 674 304 717 l 306 674 q 308 594 306 632 l 308 594 q 317 496 311 556 l 317 496 q 324 403 321 435 l 324 403 q 328 317 325 372 l 328 317 q 335 228 332 261 l 335 228 q 338 158 336 194 q 340 109 339 122 q 340 85 340 96 l 340 85 q 340 56 340 74 l 340 56 l 342 39 q 331 12 342 24 q 305 0 321 0 q 278 10 289 0 q 267 36 267 21 l 267 36 l 265 54 q 265 83 265 72 l 265 83 q 265 108 265 93 l 265 108 q 263 156 264 121 l 263 156 q 260 224 261 190 l 260 224 q 253 313 256 269 l 253 313 q 249 399 250 368 l 249 399 q 242 489 246 429 l 242 489 q 233 589 238 550 l 233 589 q 231 674 231 628 l 231 674 q 231 685 231 678 l 231 685 q 222 675 225 678 l 222 675 q 194 647 211 663 l 194 647 q 160 618 176 628 l 160 618 q 133 604 144 610 l 133 604 l 124 601 q 95 603 110 596 z "},"2":{"ha":776,"x_min":78,"x_max":704,"o":"m 193 587 q 165 590 178 582 q 147 612 151 597 q 150 640 143 626 l 150 640 l 161 663 q 181 696 172 683 l 181 696 q 217 742 189 711 l 217 742 q 276 799 246 775 l 276 799 q 325 832 307 822 l 325 832 q 388 857 343 843 l 388 857 q 472 867 435 872 l 472 867 q 549 832 511 861 l 549 832 q 597 781 585 803 l 597 781 q 619 717 607 761 l 619 717 q 629 629 631 671 l 629 629 q 613 536 628 589 l 613 536 q 556 428 597 479 l 556 428 q 476 344 517 381 l 476 344 q 396 276 438 308 l 396 276 q 314 208 358 246 l 314 208 q 255 158 269 171 q 217 121 240 144 l 217 121 q 181 82 193 96 l 181 82 q 179 79 181 82 l 179 79 q 203 79 193 79 l 203 79 q 238 82 219 81 l 238 82 q 313 90 256 83 l 313 90 q 394 103 371 99 l 394 103 q 446 111 421 107 l 446 111 q 529 117 472 114 q 604 121 586 121 l 604 121 q 647 118 624 121 l 647 118 l 669 115 q 695 101 685 114 q 703 74 706 89 q 690 49 701 60 q 663 40 678 39 l 663 40 l 640 43 q 604 46 619 46 l 604 46 q 533 42 588 46 q 456 36 479 39 l 456 36 q 408 29 432 33 l 408 29 q 324 17 382 25 l 324 17 q 243 7 264 8 l 243 7 q 207 4 224 6 l 207 4 q 160 4 189 4 q 117 6 131 4 l 117 6 q 83 27 99 7 q 79 71 67 47 l 79 71 q 97 99 85 82 l 97 99 q 122 129 108 113 l 122 129 q 163 172 136 146 l 163 172 q 203 213 188 199 q 265 266 219 228 q 350 335 310 304 l 350 335 q 426 400 389 365 l 426 400 q 497 476 463 433 l 497 476 q 540 557 529 515 l 540 557 q 554 632 554 601 l 554 632 q 547 698 556 663 q 531 744 538 733 l 531 744 q 503 772 526 754 l 503 772 q 463 792 481 790 l 463 792 q 410 785 442 794 l 410 785 q 361 767 374 774 l 361 767 q 322 739 349 760 l 322 739 q 273 692 297 719 q 244 657 249 665 l 244 657 q 228 626 239 647 l 228 626 l 215 606 q 193 587 208 592 z "},"3":{"ha":711,"x_min":75,"x_max":638,"o":"m 166 612 q 139 621 150 611 q 127 647 128 631 q 138 674 126 663 l 138 674 l 153 692 q 200 743 169 710 l 200 743 q 269 803 233 779 l 269 803 q 331 831 306 826 l 331 831 q 413 818 357 836 l 413 818 q 489 778 465 800 l 489 778 q 536 697 511 757 l 536 697 q 564 597 561 640 l 564 597 q 553 511 568 553 l 553 511 q 532 465 543 482 l 532 465 q 554 450 544 458 l 554 450 q 596 396 572 435 l 596 396 q 629 322 619 357 l 629 322 q 638 244 640 288 l 638 244 q 624 178 635 200 l 624 178 q 581 124 613 157 l 581 124 q 492 67 549 92 l 492 67 q 406 38 436 42 l 406 38 q 307 53 374 35 l 307 53 q 215 88 242 71 l 215 88 q 158 126 193 101 l 158 126 q 110 163 122 151 l 110 163 q 83 203 93 179 l 83 203 l 76 219 q 76 249 71 235 q 97 269 82 264 q 126 269 111 275 q 146 249 140 263 l 146 249 l 153 232 q 161 218 157 222 l 161 218 q 201 188 169 210 l 201 188 q 256 151 235 164 l 256 151 q 326 125 272 140 l 326 125 q 397 113 381 111 l 397 113 q 461 135 415 114 l 461 135 q 528 178 504 154 l 528 178 q 556 211 551 201 l 556 211 q 563 249 561 221 l 563 249 q 558 303 564 279 l 558 303 q 532 357 551 326 l 532 357 q 504 394 514 386 l 504 394 q 468 408 497 400 l 468 408 q 451 413 460 411 l 451 413 q 408 403 425 403 l 408 403 q 379 423 379 403 q 393 463 379 443 l 393 463 l 407 483 q 439 488 422 488 l 439 488 q 461 499 453 493 l 461 499 q 467 503 465 500 l 467 503 q 482 536 472 510 l 482 536 q 490 592 492 564 l 490 592 q 468 668 488 622 l 468 668 q 438 724 449 713 l 438 724 q 389 747 425 735 l 389 747 q 344 757 356 758 l 344 757 q 310 739 333 754 l 310 739 q 256 692 283 722 l 256 692 q 208 640 225 658 l 208 640 l 192 624 q 166 612 182 613 z "},"4":{"ha":646,"x_min":78,"x_max":574,"o":"m 559 362 q 572 336 571 351 q 563 309 574 321 q 538 296 553 297 l 538 296 l 522 294 q 474 293 506 293 l 474 293 q 442 292 454 293 l 442 292 q 440 186 442 233 l 440 186 q 439 119 439 129 l 439 119 l 439 110 q 428 83 439 94 q 401 72 417 72 q 375 83 386 72 q 364 110 364 94 l 364 110 l 364 121 q 365 188 364 131 l 365 188 q 367 288 367 232 l 367 288 q 299 282 336 285 l 299 282 q 235 276 251 278 l 235 276 q 189 274 217 274 l 189 274 q 136 276 160 274 l 136 276 q 83 306 100 282 l 83 306 q 78 375 69 329 l 78 375 q 85 418 83 404 l 85 418 q 90 472 88 432 q 94 549 93 511 l 94 549 q 96 640 96 588 l 96 640 q 96 718 96 694 l 96 718 q 97 782 97 740 l 97 782 q 96 833 96 824 l 96 833 l 96 843 q 107 869 96 858 q 133 881 118 881 q 160 870 149 881 q 171 844 171 860 l 171 844 l 171 835 q 172 783 171 825 q 172 717 172 740 q 171 640 171 693 l 171 640 q 169 546 171 586 l 169 546 q 165 466 168 507 q 160 410 161 425 l 160 410 q 151 360 158 393 l 151 360 q 150 350 151 356 l 150 350 q 188 349 167 349 l 188 349 q 228 351 213 349 l 228 351 q 292 357 244 353 l 292 357 q 365 363 332 360 l 365 363 q 360 456 364 410 l 360 456 q 351 558 354 524 q 336 669 347 593 q 318 778 325 744 l 318 778 l 313 813 q 317 841 308 828 q 342 857 326 854 q 370 851 357 860 q 386 826 383 842 l 386 826 l 392 792 q 410 679 399 757 q 426 566 422 601 q 435 461 429 531 l 435 461 q 440 367 438 415 l 440 367 q 474 368 453 368 l 474 368 q 517 369 501 368 l 517 369 l 532 371 q 559 362 547 372 z "},"5":{"ha":739,"x_min":74,"x_max":667,"o":"m 610 833 q 620 806 621 821 q 608 780 619 790 q 581 769 596 769 l 581 769 l 561 771 q 506 774 540 771 l 506 774 q 447 776 469 775 l 447 776 q 368 776 428 778 l 368 776 q 288 773 308 775 q 239 768 268 771 l 239 768 q 193 761 213 765 l 193 761 q 190 747 192 756 l 190 747 q 185 717 188 731 l 185 717 q 175 665 182 706 l 175 665 q 167 608 168 626 l 167 608 q 158 546 164 589 l 158 546 q 150 482 151 503 l 150 482 q 149 476 149 479 l 149 476 q 164 482 156 478 l 164 482 q 213 501 183 489 l 213 501 q 282 529 244 514 l 282 529 q 351 551 319 543 l 351 551 q 425 563 383 561 l 425 563 q 510 551 471 564 l 510 551 q 579 514 551 538 l 579 514 q 629 447 606 490 l 629 447 q 660 380 654 406 q 667 300 667 354 l 667 300 q 657 221 665 246 l 657 221 q 619 164 647 199 l 619 164 q 544 94 592 129 l 544 94 q 480 49 500 61 q 439 26 460 38 l 439 26 q 364 6 415 17 l 364 6 q 274 -1 311 -4 l 274 -1 q 215 10 235 1 l 215 10 q 158 54 193 18 l 158 54 q 118 110 126 89 l 118 110 q 101 161 108 129 q 93 213 94 193 l 93 213 q 103 258 93 239 l 103 258 q 127 280 111 272 q 157 286 143 288 l 157 286 l 171 285 q 196 269 186 282 q 203 242 206 257 l 203 242 q 192 220 201 229 q 169 210 182 211 l 169 210 q 175 178 171 199 l 175 178 q 186 142 181 153 l 186 142 q 214 106 190 132 l 214 106 q 243 79 233 85 l 243 79 q 279 74 253 75 l 279 74 q 349 79 307 71 l 349 79 q 407 94 392 88 l 407 94 q 442 113 425 103 q 500 154 458 124 l 500 154 q 561 211 539 183 l 561 211 q 586 249 582 236 l 586 249 q 592 301 590 260 l 592 301 q 588 361 592 344 q 565 410 583 378 l 565 410 q 529 457 546 442 l 529 457 q 487 480 514 471 q 428 488 460 489 l 428 488 q 371 479 394 486 l 371 479 q 310 458 344 472 l 310 458 q 242 432 274 444 l 242 432 q 190 411 210 418 l 190 411 q 158 401 169 404 l 158 401 q 126 399 144 397 l 126 399 q 95 411 108 399 q 78 439 82 424 l 78 439 q 75 490 72 461 l 75 490 q 83 556 78 513 l 83 556 q 92 617 89 597 l 92 617 q 101 678 93 636 l 101 678 q 111 733 108 719 l 111 733 q 117 763 114 744 l 117 763 q 125 796 121 782 l 125 796 q 178 835 138 826 l 178 835 q 231 843 200 839 l 231 843 q 283 847 261 846 q 367 851 304 849 l 367 851 q 451 851 428 853 l 451 851 q 510 849 474 850 l 510 849 q 564 846 544 846 l 564 846 l 583 844 q 610 833 599 844 z "},"6":{"ha":588,"x_min":74,"x_max":513,"o":"m 154 257 l 154 257 q 156 247 154 253 l 156 247 q 163 193 160 213 l 163 193 q 167 178 165 183 l 167 178 q 200 129 172 164 l 200 129 q 253 85 226 96 l 253 85 q 315 76 278 72 l 315 76 q 378 99 353 79 l 378 99 q 417 133 408 121 l 417 133 q 433 185 425 144 l 433 185 q 439 238 442 224 l 439 238 q 411 289 435 251 l 411 289 q 378 333 389 326 l 378 333 q 332 354 365 342 l 332 354 q 269 360 303 365 l 269 360 q 224 346 233 353 l 224 346 q 189 313 211 338 l 189 313 q 167 286 175 299 l 167 286 q 160 272 163 278 q 154 257 157 265 z m 114 119 l 114 119 q 100 135 104 125 l 100 135 l 92 150 q 76 186 79 169 l 76 186 q 75 238 72 203 l 75 238 q 78 261 76 250 l 78 261 q 74 332 74 306 l 74 332 q 83 440 74 364 q 100 549 92 515 l 100 549 q 134 641 108 583 q 183 733 160 699 l 183 733 q 238 801 207 771 l 238 801 q 282 842 267 829 l 282 842 q 319 864 297 853 l 319 864 l 340 875 q 369 878 354 883 q 392 860 385 874 q 394 832 399 847 q 376 810 389 817 l 376 810 l 356 799 q 326 781 338 789 l 326 781 q 290 747 315 772 l 290 747 q 246 693 265 722 l 246 693 q 203 610 226 663 q 172 531 181 558 l 172 531 q 157 431 165 501 l 157 431 q 151 383 154 404 l 151 383 q 181 408 168 399 l 181 408 q 256 433 203 424 l 256 433 q 358 425 311 443 l 358 425 q 421 394 400 408 l 421 394 q 475 329 443 379 l 475 329 q 511 254 504 282 l 511 254 q 507 169 518 224 l 507 169 q 478 90 494 114 l 478 90 q 424 39 463 68 l 424 39 q 322 1 381 7 l 322 1 q 222 16 264 -3 q 142 82 179 35 l 142 82 q 114 119 125 103 z "},"7":{"ha":781,"x_min":74,"x_max":706,"o":"m 331 366 q 319 392 319 376 q 331 419 319 408 q 357 431 342 431 l 357 431 l 388 431 q 426 432 415 431 l 426 432 q 454 433 436 432 l 454 433 q 460 453 457 443 l 460 453 q 514 597 489 533 l 514 597 q 557 701 539 661 l 557 701 q 593 785 574 742 l 593 785 q 611 824 603 807 l 611 824 q 578 815 594 819 l 578 815 q 481 788 539 803 q 394 768 422 772 q 318 760 367 764 l 318 760 q 219 756 269 757 l 219 756 q 151 757 168 756 l 151 757 q 125 760 140 758 l 125 760 l 108 760 q 83 773 93 761 q 74 800 72 785 q 87 826 75 815 q 114 835 99 836 l 114 835 l 129 833 q 160 832 146 833 l 160 832 q 218 831 171 831 l 218 831 q 313 835 267 832 l 313 835 q 383 842 358 839 l 383 842 q 463 861 407 846 l 463 861 q 557 886 519 875 l 557 886 q 632 907 596 899 l 632 907 q 652 908 639 908 q 682 902 665 907 q 705 883 699 897 q 703 846 711 869 l 703 846 q 687 810 693 825 q 662 754 681 796 q 626 673 643 713 q 583 569 608 633 l 583 569 q 535 438 560 511 l 535 438 q 563 436 547 438 l 563 436 q 614 424 593 435 l 614 424 l 626 415 q 643 393 639 408 q 640 365 647 378 q 617 347 632 351 q 588 351 601 343 l 588 351 l 575 358 q 560 361 571 361 l 560 361 q 521 361 539 363 l 521 361 q 508 361 515 361 l 508 361 q 496 322 500 335 l 496 322 q 474 242 488 293 q 457 171 461 192 l 457 171 q 444 115 451 151 l 444 115 q 435 67 436 78 l 435 67 l 433 54 q 419 29 432 39 q 392 21 407 19 q 367 35 376 22 q 360 63 357 47 l 360 63 l 361 75 q 371 129 363 90 l 371 129 q 383 189 378 168 l 383 189 q 402 261 389 210 q 424 342 415 313 l 424 342 q 428 357 425 349 l 428 357 q 388 356 414 356 l 388 356 l 358 356 q 331 366 343 356 z "},"8":{"ha":689,"x_min":76,"x_max":615,"o":"m 313 486 l 313 486 q 285 461 299 474 l 285 461 q 234 408 246 424 q 204 360 222 393 q 178 302 186 326 q 165 249 169 278 l 165 249 q 163 204 160 222 l 163 204 q 175 182 164 194 l 175 182 q 197 161 190 165 l 197 161 q 239 147 207 156 l 239 147 q 313 135 271 139 l 313 135 l 356 131 q 389 104 381 129 l 389 104 q 400 107 396 106 l 400 107 q 449 129 415 111 l 449 129 q 500 163 482 146 l 500 163 q 531 204 517 178 l 531 204 q 540 256 543 228 l 540 256 q 522 310 538 286 l 522 310 q 490 354 507 338 l 490 354 q 431 407 474 372 l 431 407 q 363 458 386 443 l 363 458 q 313 486 346 468 z m 303 575 l 303 575 q 314 585 308 579 l 314 585 q 368 624 350 611 l 368 624 q 415 667 383 635 l 415 667 q 451 715 443 694 l 451 715 q 458 742 458 732 l 458 742 q 443 769 456 750 l 443 769 q 417 799 426 793 l 417 799 q 375 815 406 806 l 375 815 q 321 821 344 824 l 321 821 q 264 806 297 819 l 264 806 q 200 764 232 793 l 200 764 q 160 725 165 735 l 160 725 q 151 697 154 717 l 151 697 q 149 679 149 686 l 149 679 q 175 653 157 669 l 175 653 q 225 615 207 626 l 225 615 q 303 575 244 604 z m 240 522 l 240 522 q 188 550 203 542 l 188 550 q 126 597 163 565 l 126 597 q 117 604 124 599 q 110 611 111 610 q 103 617 108 613 q 96 624 97 622 q 91 631 94 626 q 85 638 88 635 q 81 646 83 642 q 78 654 79 650 l 78 654 q 78 711 71 675 l 78 711 q 96 765 83 744 l 96 765 q 150 821 108 783 l 150 821 q 236 875 192 858 l 236 875 q 314 896 279 893 l 314 896 q 394 888 351 899 l 394 888 q 457 863 438 875 l 457 863 q 504 811 479 849 l 504 811 q 533 749 531 772 l 533 749 q 521 689 535 726 l 521 689 q 468 614 507 653 l 468 614 q 413 564 432 578 l 413 564 q 376 536 400 554 l 376 536 q 401 522 392 528 l 401 522 q 478 467 429 504 l 478 467 q 546 404 526 428 l 546 404 q 588 347 567 382 l 588 347 q 615 263 610 310 l 615 263 q 597 169 619 213 l 597 169 q 550 107 578 131 l 550 107 q 483 63 525 83 l 483 63 q 421 35 443 42 l 421 35 q 349 26 397 29 l 349 26 q 274 26 303 24 l 274 26 q 236 29 246 28 l 236 29 q 210 33 224 31 l 210 33 l 199 36 q 175 53 183 40 q 171 81 167 67 l 171 81 q 174 89 171 85 l 174 89 q 163 94 168 92 l 163 94 q 119 131 143 104 l 119 131 q 88 196 92 161 l 88 196 q 92 263 85 225 l 92 263 q 108 327 97 297 q 139 395 118 357 q 174 453 160 433 q 232 515 189 474 l 232 515 q 240 522 236 518 z "},"9":{"ha":571,"x_min":74,"x_max":499,"o":"m 386 663 l 386 663 q 376 681 381 672 l 376 681 q 328 735 365 700 l 328 735 q 281 771 293 767 l 281 771 q 240 775 268 775 l 240 775 q 200 768 214 775 l 200 768 q 175 751 183 760 l 175 751 q 158 721 168 744 l 158 721 q 149 681 149 699 l 149 681 q 153 644 149 658 l 153 644 q 171 603 156 631 l 171 603 q 215 549 186 575 l 215 549 q 265 515 243 522 l 265 515 q 310 511 289 508 l 310 511 q 351 528 331 513 l 351 528 q 378 549 372 542 l 378 549 q 388 586 382 557 l 388 586 q 393 624 393 615 l 393 624 q 390 639 392 631 l 390 639 l 388 651 q 386 663 385 657 z m 422 488 l 422 488 q 393 465 410 476 l 393 465 q 318 436 357 440 l 318 436 q 243 444 281 432 l 243 444 q 164 493 204 457 l 164 493 q 106 567 126 528 l 106 567 q 80 626 85 604 q 74 679 75 649 l 74 679 q 89 751 72 713 l 89 751 q 122 804 106 788 l 122 804 q 167 835 138 821 l 167 835 q 240 850 196 850 l 240 850 q 306 842 281 851 l 306 842 q 379 790 331 833 l 379 790 q 442 718 425 747 l 442 718 q 468 660 457 690 l 468 660 q 483 600 475 639 l 483 600 q 489 567 486 585 l 489 567 q 498 451 500 503 q 479 338 496 400 l 479 338 q 450 247 463 275 l 450 247 q 401 164 438 217 q 347 94 365 111 l 347 94 q 297 56 329 78 l 297 56 q 240 25 264 33 l 240 25 q 186 17 215 17 l 186 17 l 163 17 q 136 28 147 17 q 125 54 125 39 q 136 81 125 69 q 163 92 147 92 l 163 92 l 185 92 q 215 96 203 92 l 215 96 q 256 118 231 101 l 256 118 q 294 149 282 136 l 294 149 q 340 207 307 161 q 382 275 372 253 l 382 275 q 406 356 392 299 l 406 356 q 422 456 421 411 l 422 456 q 422 488 424 471 z "}," ":{"ha":629,"x_min":null,"x_max":null,"o":""},"!":{"ha":261,"x_min":75,"x_max":189,"o":"m 142 260 q 114 260 128 254 q 94 280 100 265 q 93 308 88 294 l 93 308 l 99 324 q 103 356 103 332 l 103 356 q 104 418 104 385 l 104 418 q 104 478 104 451 l 104 478 q 104 571 106 506 l 104 571 q 104 688 104 636 l 104 688 q 106 769 104 739 q 110 847 107 800 l 110 847 q 114 908 114 892 l 114 908 l 114 926 q 125 953 114 942 q 151 964 136 964 q 178 953 167 964 q 189 926 189 942 l 189 926 l 189 908 q 185 840 189 888 l 185 840 q 181 767 182 796 q 179 686 179 738 l 179 686 q 179 571 179 636 l 179 571 q 179 478 181 506 l 179 478 q 179 417 179 450 l 179 417 q 178 353 179 383 l 178 353 q 168 296 176 317 l 168 296 l 163 281 q 142 260 157 267 z m 160 54 l 160 54 q 142 43 150 47 l 142 43 l 131 39 q 85 51 96 25 l 85 51 q 79 74 79 65 l 79 74 q 75 82 76 78 l 75 82 q 85 121 68 103 l 85 121 q 108 143 92 138 q 135 146 124 149 l 135 146 q 172 107 164 139 l 172 107 q 176 85 176 106 q 160 54 175 65 z "},"\"":{"ha":429,"x_min":74,"x_max":357,"o":"m 259 903 q 283 918 268 915 q 312 911 299 921 q 326 888 325 901 l 326 888 l 328 878 q 333 854 329 869 l 333 854 q 340 819 338 838 q 344 783 343 800 l 344 783 q 349 736 346 769 l 349 736 q 353 678 351 703 q 356 640 354 654 l 356 640 q 356 610 356 628 l 356 610 l 356 593 q 346 567 357 578 q 319 555 335 556 q 293 565 304 554 q 281 592 282 576 l 281 592 l 281 608 q 281 639 281 625 l 281 639 q 278 674 279 650 q 274 729 276 697 l 274 729 q 269 778 271 763 l 269 778 q 266 807 268 790 q 260 838 264 824 l 260 838 q 254 865 256 856 l 254 865 l 253 875 q 259 903 250 890 z m 103 908 q 129 919 114 919 q 156 907 144 918 q 167 881 167 896 l 167 881 l 167 854 q 163 808 165 826 l 163 808 q 159 778 161 794 q 154 746 157 761 l 154 746 q 151 708 153 731 l 151 708 q 150 664 150 685 l 150 664 q 150 622 150 640 l 150 622 l 149 607 q 136 581 147 592 q 110 570 125 569 q 84 583 94 571 q 74 610 74 594 l 74 610 l 75 626 q 75 664 75 642 l 75 664 q 76 712 75 688 q 81 754 78 736 l 81 754 q 84 788 82 771 q 89 819 86 804 l 89 819 q 92 856 90 833 l 92 856 l 92 882 q 103 908 92 897 z "},"#":{"ha":822,"x_min":74,"x_max":749,"o":"m 120 541 q 111 568 110 553 q 124 594 113 583 q 151 604 136 604 l 151 604 l 165 603 q 197 603 178 601 l 197 603 q 235 606 215 603 l 235 606 q 269 611 256 608 l 269 611 q 308 617 282 613 l 308 617 q 324 701 317 669 l 324 701 q 332 750 331 739 l 332 750 q 332 774 333 760 l 332 774 l 331 792 q 340 819 329 807 q 365 832 350 831 q 392 823 381 833 q 406 797 404 813 l 406 797 l 407 779 q 407 742 408 758 l 407 742 q 397 686 406 726 l 397 686 q 386 628 392 664 l 386 628 q 407 631 397 629 l 407 631 q 472 638 449 636 l 472 638 q 549 639 496 639 l 549 639 q 576 639 563 639 l 576 639 q 581 669 579 653 l 581 669 q 590 744 589 729 l 590 744 q 592 783 590 761 l 592 783 l 592 806 q 604 831 593 821 q 631 842 615 842 q 657 830 646 842 q 667 803 668 818 l 667 803 l 667 781 q 665 740 665 758 l 665 740 q 656 660 664 722 l 656 660 q 653 639 654 649 l 653 639 q 658 639 656 639 l 658 639 q 689 643 681 642 l 689 643 l 703 647 q 731 643 717 651 q 748 620 744 635 q 744 592 751 606 q 721 575 736 578 l 721 575 l 708 571 q 664 565 692 567 l 664 565 q 640 564 651 564 l 640 564 q 624 478 636 535 l 624 478 q 603 371 611 417 l 603 371 q 599 344 600 356 l 599 344 q 640 344 626 344 l 640 344 q 685 342 658 344 l 685 342 q 692 342 685 342 q 703 341 699 342 q 717 335 708 340 q 731 318 725 329 l 731 318 q 735 285 740 297 q 719 267 731 272 l 719 267 l 708 261 l 697 257 q 653 269 672 246 l 653 269 q 639 269 644 269 l 639 269 q 585 269 624 269 l 585 269 q 585 268 585 268 l 585 268 q 571 193 574 215 l 571 193 q 563 126 568 171 l 563 126 q 556 67 558 85 l 556 67 q 551 32 554 53 l 551 32 l 547 14 q 532 -10 544 -1 q 504 -17 519 -19 q 480 -1 489 -14 q 474 26 471 11 l 474 26 l 476 46 q 482 75 481 64 l 482 75 q 488 135 483 89 l 488 135 q 497 204 493 181 l 497 204 q 508 271 500 225 l 508 271 q 431 272 475 271 l 431 272 q 342 274 383 274 l 342 274 q 335 215 338 233 l 335 215 q 326 150 331 190 q 318 89 321 110 l 318 89 q 311 53 314 68 l 311 53 l 308 39 q 291 15 304 24 q 263 10 278 7 q 239 28 247 14 q 235 56 231 42 l 235 56 l 238 69 q 243 100 240 82 l 243 100 q 251 160 246 119 l 251 160 q 260 225 257 201 l 260 225 q 267 276 263 240 l 267 276 q 219 276 243 276 l 219 276 q 182 276 193 276 l 182 276 q 153 276 171 276 l 153 276 q 118 278 132 276 l 118 278 l 107 278 q 82 292 92 281 q 74 319 72 304 q 88 344 75 335 q 115 353 100 354 l 115 353 l 126 351 q 151 351 135 351 l 151 351 q 181 351 169 351 l 181 351 q 219 351 192 351 q 275 350 247 351 l 275 350 q 286 454 281 404 l 286 454 q 296 539 290 496 l 296 539 q 281 536 286 538 l 281 536 q 244 532 267 535 l 244 532 q 199 528 221 528 l 199 528 q 161 528 176 526 l 161 528 l 146 529 q 120 541 131 529 z m 565 564 l 565 564 q 549 564 557 564 l 549 564 q 476 563 497 564 l 476 563 q 417 557 456 563 l 417 557 q 374 550 396 554 l 374 550 q 360 446 365 497 l 360 446 q 350 349 356 399 l 350 349 q 432 347 389 349 l 432 347 q 513 346 479 346 l 513 346 q 522 346 518 346 l 522 346 q 529 385 526 365 l 529 385 q 550 493 538 431 l 550 493 q 565 564 560 536 z "},"$":{"ha":844,"x_min":74,"x_max":771,"o":"m 331 1019 q 357 1031 342 1031 q 384 1022 372 1032 q 397 996 396 1011 l 397 996 l 397 985 q 399 957 399 971 l 399 957 q 394 918 397 943 l 394 918 q 394 913 394 915 l 394 913 q 428 914 414 915 l 428 914 q 446 913 436 914 l 446 913 q 446 928 446 921 l 446 928 q 456 985 447 964 l 456 985 l 461 999 q 481 1019 467 1013 q 510 1019 496 1025 q 531 999 525 1014 q 531 969 536 985 l 531 969 l 525 956 q 521 926 522 949 l 521 926 q 521 894 521 913 l 521 894 q 561 875 544 886 l 561 875 q 611 832 588 858 l 611 832 q 640 793 633 806 l 640 793 q 654 758 649 779 l 654 758 q 654 710 661 732 l 654 710 l 650 699 q 632 677 646 685 q 603 674 618 669 q 581 693 589 679 q 579 721 574 707 l 579 721 l 582 732 q 582 740 582 735 l 582 740 q 575 756 578 751 l 575 756 q 554 782 572 763 l 554 782 q 521 813 539 801 l 521 813 q 519 768 519 793 l 519 768 q 519 654 519 710 l 519 654 q 521 561 519 604 l 521 561 q 563 550 543 556 l 563 550 q 629 528 610 536 l 629 528 q 690 488 651 518 l 690 488 q 742 435 729 456 q 764 363 754 414 l 764 363 q 771 268 774 313 l 771 268 q 761 201 767 225 l 761 201 q 726 130 754 176 q 665 51 699 83 l 665 51 q 614 8 633 22 l 614 8 q 542 -22 594 -4 l 542 -22 q 536 -24 539 -24 l 536 -24 q 538 -57 536 -49 l 538 -57 q 536 -79 538 -67 l 536 -79 l 535 -90 q 521 -115 533 -106 q 493 -124 508 -125 q 468 -110 478 -122 q 460 -83 458 -99 l 460 -83 l 461 -72 q 463 -57 463 -64 l 463 -57 q 461 -42 463 -53 l 461 -42 q 443 -43 453 -42 l 443 -43 q 376 -42 400 -46 l 376 -42 q 375 -42 375 -42 l 375 -42 l 375 -44 q 364 -71 375 -60 q 338 -83 353 -82 q 311 -72 322 -83 q 300 -46 300 -61 l 300 -46 l 299 -33 q 299 -19 299 -26 l 299 -19 q 213 28 249 0 l 213 28 q 161 74 176 54 l 161 74 q 122 124 147 89 l 122 124 q 85 179 96 158 l 85 179 q 75 233 71 208 l 75 233 l 76 246 q 92 269 79 260 q 119 276 104 279 q 144 261 135 274 q 150 233 153 249 l 150 233 l 149 222 q 151 213 150 218 l 151 213 q 182 168 160 197 l 182 168 q 218 122 206 136 l 218 122 q 257 88 229 110 l 257 88 q 303 60 276 72 l 303 60 q 304 83 303 71 l 304 83 q 305 132 304 117 q 306 178 306 147 q 306 255 306 210 q 303 341 306 300 q 299 438 301 382 l 299 438 q 296 514 296 493 l 296 514 q 294 532 294 522 l 294 532 q 292 533 294 532 l 292 533 q 210 592 246 553 l 210 592 q 164 675 172 632 l 164 675 q 161 737 157 714 q 193 801 165 760 l 193 801 q 257 868 219 844 l 257 868 q 317 896 283 885 l 317 896 q 321 926 318 907 l 321 926 q 324 960 322 949 l 324 960 q 322 979 324 971 l 322 979 l 322 992 q 331 1019 321 1007 z m 371 508 l 371 508 q 374 442 372 486 l 374 442 q 378 344 376 385 q 381 256 381 303 q 381 177 381 210 q 379 131 381 144 l 379 131 q 379 82 379 115 l 379 82 q 378 33 378 53 l 378 33 q 385 32 382 32 l 385 32 q 439 32 401 31 l 439 32 q 460 35 450 33 l 460 35 l 460 36 q 460 94 460 53 q 459 199 460 136 q 458 288 458 263 q 456 343 457 313 l 456 343 q 451 438 454 375 l 451 438 q 449 497 450 469 l 449 497 q 444 497 447 497 l 444 497 q 371 508 394 504 z m 524 483 l 524 483 q 526 442 525 463 l 526 442 q 531 347 529 378 l 531 347 q 533 290 532 315 q 534 201 533 264 q 535 94 535 138 l 535 94 q 535 56 535 71 l 535 56 q 574 71 564 65 l 574 71 q 614 106 588 81 l 614 106 q 661 168 639 131 q 688 221 683 206 l 688 221 q 696 274 693 238 l 696 274 q 690 349 699 308 l 690 349 q 677 396 683 386 q 643 429 671 406 l 643 429 q 600 458 613 453 l 600 458 q 542 478 583 465 l 542 478 q 524 483 533 481 z m 446 572 l 446 572 q 444 654 444 611 l 444 654 q 444 769 444 711 l 444 769 q 446 838 446 808 l 446 838 q 426 839 433 839 l 426 839 q 386 835 415 840 l 386 835 q 379 773 383 801 q 374 728 375 744 l 374 728 q 371 675 372 713 l 371 675 q 369 589 369 639 l 369 589 q 369 586 369 588 q 369 585 369 585 l 369 585 q 375 583 372 585 l 375 583 q 446 572 396 579 z m 294 617 l 294 617 q 296 679 294 651 l 296 679 q 300 735 297 718 l 300 735 q 304 782 301 753 l 304 782 q 308 811 307 796 l 308 811 q 299 806 303 808 l 299 806 q 256 761 274 790 q 235 722 238 732 l 235 722 q 238 689 233 713 l 238 689 q 265 643 242 668 l 265 643 q 294 617 279 628 z "},"%":{"ha":779,"x_min":74,"x_max":706,"o":"m 678 74 l 678 74 q 678 69 678 71 l 678 69 l 669 53 q 622 7 656 18 l 622 7 q 560 8 594 -1 l 560 8 q 506 35 528 17 l 506 35 q 469 74 485 51 l 469 74 q 443 124 454 96 l 443 124 q 431 175 433 153 l 431 175 q 432 228 428 199 l 432 228 q 447 278 438 257 l 447 278 q 488 319 460 303 l 488 319 q 547 336 515 336 l 547 336 q 606 319 578 335 l 606 319 q 651 289 632 307 l 651 289 q 686 242 671 271 l 686 242 q 706 171 703 210 l 706 171 q 696 104 708 131 l 696 104 q 678 74 689 86 z m 540 104 l 540 104 q 553 126 543 118 l 553 126 q 579 136 564 136 q 606 125 594 136 l 606 125 l 614 115 q 617 117 615 115 l 617 117 q 626 133 622 122 l 626 133 q 631 167 632 144 l 631 167 q 619 206 629 189 l 619 206 q 600 235 610 225 l 600 235 q 571 253 589 244 l 571 253 q 546 261 557 261 l 546 261 q 528 256 536 261 l 528 256 q 514 243 517 249 l 514 243 q 507 217 510 233 l 507 217 q 506 183 504 197 l 506 183 q 514 150 507 169 l 514 150 q 531 117 521 131 l 531 117 q 540 104 535 110 z m 286 436 l 286 436 q 272 400 290 413 l 272 400 l 263 393 q 211 378 243 378 l 211 378 q 154 392 181 378 l 154 392 q 108 431 129 406 l 108 431 q 78 486 85 457 l 78 486 q 74 525 74 511 q 85 569 75 539 l 85 569 q 101 614 94 600 l 101 614 q 125 646 108 626 l 125 646 q 175 688 143 671 l 175 688 q 238 701 207 704 l 238 701 q 293 682 267 700 l 293 682 q 335 631 318 664 q 353 578 353 599 l 353 578 q 343 525 353 560 l 343 525 q 322 475 332 489 l 322 475 q 290 439 313 458 l 290 439 q 286 436 289 438 z m 167 476 l 167 476 q 175 475 172 476 l 175 475 l 190 474 q 210 478 196 472 l 210 478 q 242 497 228 485 q 260 514 256 508 l 260 514 q 271 546 264 521 l 271 546 q 278 576 276 567 l 278 576 q 269 596 276 583 l 269 596 q 250 621 260 613 l 250 621 q 232 628 242 626 l 232 628 q 210 621 224 628 l 210 621 q 183 600 193 611 l 183 600 q 167 576 171 585 l 167 576 q 156 547 163 569 l 156 547 q 149 521 150 528 l 149 521 q 151 501 149 515 l 151 501 q 164 479 153 492 l 164 479 q 167 476 165 478 z m 141 -32 q 113 -31 126 -37 q 92 -10 99 -25 q 93 18 86 4 l 93 18 l 99 32 q 122 71 107 49 l 122 71 q 149 113 135 89 l 149 113 q 171 150 163 136 l 171 150 q 197 196 179 164 l 197 196 q 231 255 215 229 q 272 317 247 281 l 272 317 q 306 369 294 351 q 347 435 318 388 q 388 503 376 483 l 388 503 q 421 562 399 524 q 458 628 443 600 q 493 691 474 656 q 522 744 513 726 l 522 744 q 553 801 532 761 q 579 851 574 840 l 579 851 q 590 878 585 863 l 590 878 q 596 899 594 890 l 596 899 l 597 910 q 613 933 600 924 q 640 941 625 943 q 665 926 656 939 q 672 899 674 914 l 672 899 l 671 888 q 661 853 668 872 q 647 818 654 833 l 647 818 q 619 765 640 806 q 588 707 597 725 l 588 707 q 558 655 578 690 q 524 592 539 619 l 524 592 q 486 525 507 563 l 486 525 q 453 467 464 485 l 453 467 q 412 397 442 446 q 370 329 382 349 q 333 275 358 310 l 333 275 q 296 216 311 240 q 263 160 281 192 l 263 160 q 236 113 244 128 q 213 74 228 97 l 213 74 q 183 28 197 49 l 183 28 q 168 1 172 13 l 168 1 l 161 -12 q 141 -32 156 -26 z "},"&":{"ha":858,"x_min":75,"x_max":783,"o":"m 369 561 l 369 561 q 397 585 385 574 l 397 585 q 438 635 419 606 l 438 635 q 458 682 456 661 l 458 682 q 460 714 461 706 l 460 714 q 444 753 458 724 l 444 753 q 421 793 429 783 l 421 793 q 389 822 413 803 l 389 822 q 353 844 367 840 l 353 844 q 336 844 344 847 l 336 844 q 321 839 326 842 l 321 839 q 310 814 317 832 l 310 814 q 301 764 300 790 l 301 764 q 305 718 301 733 q 326 654 308 703 l 326 654 q 367 565 346 606 l 367 565 q 369 561 368 563 z m 557 163 l 557 163 q 507 219 528 193 l 507 219 q 455 288 485 247 q 388 385 425 328 l 388 385 q 346 449 361 425 l 346 449 l 332 438 q 286 401 317 425 q 242 365 256 376 l 242 365 q 201 322 229 354 l 201 322 q 165 279 172 290 l 165 279 q 154 243 160 269 l 154 243 q 149 213 149 221 l 149 213 q 156 196 151 204 l 156 196 q 179 171 158 189 l 179 171 q 242 133 200 153 q 322 104 283 113 l 322 104 q 379 96 361 96 l 379 96 q 443 106 396 96 q 504 124 490 117 q 553 160 518 131 l 553 160 q 557 163 554 161 z m 608 218 l 608 218 q 618 240 613 229 l 618 240 q 640 307 632 268 l 640 307 q 650 360 649 347 l 650 360 q 653 392 651 374 l 653 392 l 653 410 q 665 436 653 425 q 692 447 676 447 q 717 434 707 446 q 728 407 728 422 l 728 407 l 728 389 q 725 353 726 368 l 725 353 q 714 292 724 336 l 714 292 q 686 208 704 244 l 686 208 q 663 164 674 182 l 663 164 q 665 163 664 163 l 665 163 q 706 129 690 142 l 706 129 q 738 104 722 117 l 738 104 q 753 93 749 96 l 753 93 l 761 90 q 782 70 776 85 q 782 42 788 56 q 762 22 776 28 q 733 21 747 15 l 733 21 l 725 24 q 692 46 711 29 l 692 46 q 660 69 675 58 l 660 69 q 617 106 643 83 l 617 106 q 611 110 614 107 l 611 110 q 600 101 606 106 l 600 101 q 538 57 560 68 l 538 57 q 460 33 515 46 q 378 21 404 21 l 378 21 q 306 31 353 21 l 306 31 q 208 65 260 40 l 208 65 q 129 115 157 90 l 129 115 q 89 160 100 142 l 89 160 q 76 196 81 178 l 76 196 q 81 260 71 217 l 81 260 q 101 318 89 299 l 101 318 q 144 372 113 336 l 144 372 q 194 422 178 408 l 194 422 q 240 460 208 435 q 286 496 271 485 l 286 496 l 310 514 q 301 529 306 521 l 301 529 q 257 628 276 575 l 257 628 q 231 704 236 682 q 226 763 226 726 l 226 763 q 240 842 225 803 l 240 842 q 271 896 256 882 l 271 896 q 315 917 286 908 l 315 917 q 378 915 347 926 l 378 915 q 436 881 404 907 l 436 881 q 479 842 465 857 l 479 842 q 511 786 492 825 l 511 786 q 533 726 531 746 l 533 726 q 532 671 538 706 l 532 671 q 501 594 526 635 l 501 594 q 449 531 476 557 l 449 531 q 406 494 429 513 l 406 494 q 450 426 419 472 l 450 426 q 515 332 486 371 q 565 267 543 293 l 565 267 q 608 218 583 244 z "},"'":{"ha":235,"x_min":74,"x_max":163,"o":"m 133 572 q 105 565 119 563 q 81 581 90 568 q 74 608 72 594 l 74 608 l 79 640 q 86 690 85 669 l 86 690 q 86 729 86 713 l 86 729 q 86 761 86 746 l 86 761 q 83 793 85 778 q 78 819 81 808 l 78 819 q 75 851 76 835 l 75 851 l 74 867 q 84 894 74 882 q 110 906 94 906 q 137 897 125 907 q 149 871 149 886 l 149 871 l 150 856 q 153 833 150 843 l 153 833 q 157 803 154 819 l 157 803 q 160 767 158 785 l 160 767 q 161 729 161 749 l 161 729 q 160 686 161 711 l 160 686 q 153 628 160 661 l 153 628 l 149 596 q 133 572 146 581 z "},"(":{"ha":503,"x_min":74,"x_max":429,"o":"m 352 910 q 372 890 367 904 q 372 862 378 876 q 351 842 365 847 l 351 842 l 339 836 q 318 825 331 833 l 318 825 q 288 793 307 817 l 288 793 q 260 754 267 767 l 260 754 q 238 710 251 740 l 238 710 q 216 660 222 678 q 201 615 210 643 q 181 547 192 588 l 181 547 q 165 486 169 506 l 165 486 q 154 417 161 467 l 154 417 q 149 347 149 367 l 149 347 q 163 254 149 329 l 163 254 q 182 161 176 178 l 182 161 q 206 102 189 143 q 247 17 224 61 l 247 17 q 288 -61 269 -28 q 315 -108 306 -94 q 343 -150 324 -122 l 343 -150 q 372 -189 361 -176 l 372 -189 q 392 -201 381 -197 l 392 -201 l 408 -210 q 428 -230 422 -215 q 427 -259 433 -244 q 406 -279 421 -274 q 378 -278 392 -285 l 378 -278 l 361 -271 q 319 -242 338 -260 l 319 -242 q 281 -193 303 -225 l 281 -193 q 251 -148 260 -164 q 222 -98 242 -132 q 179 -17 203 -64 l 179 -17 q 138 73 156 31 q 113 136 119 115 l 113 136 q 89 240 104 158 l 89 240 q 74 347 74 322 l 74 347 q 81 425 74 372 l 81 425 q 92 503 86 479 l 92 503 q 108 565 97 524 l 108 565 q 129 638 119 608 q 146 688 139 668 l 146 688 q 169 740 153 707 l 169 740 q 194 793 185 776 l 194 793 q 229 840 206 810 l 229 840 q 275 886 256 872 l 275 886 q 311 907 294 900 l 311 907 l 324 911 q 352 910 338 917 z "},")":{"ha":378,"x_min":74,"x_max":306,"o":"m 107 -237 q 88 -216 93 -231 q 91 -187 83 -201 q 113 -168 99 -174 l 113 -168 l 132 -162 q 146 -151 140 -160 l 146 -151 q 171 -101 156 -136 l 171 -101 q 192 -47 186 -65 l 192 -47 q 206 14 197 -28 l 206 14 q 218 79 215 57 q 225 163 221 101 q 229 249 229 225 l 229 249 q 227 334 229 272 q 224 421 225 396 l 224 421 q 215 496 222 446 l 215 496 q 204 568 210 544 l 204 568 q 175 664 200 590 l 175 664 q 133 775 151 736 l 133 775 q 107 828 113 817 l 107 828 q 92 854 101 839 l 92 854 l 81 869 q 74 899 71 883 q 90 922 78 914 q 118 928 103 931 q 142 913 133 925 l 142 913 l 153 896 q 174 863 165 878 l 174 863 q 200 808 179 850 l 200 808 q 247 686 221 764 l 247 686 q 278 583 272 610 l 278 583 q 290 506 283 558 q 299 426 297 453 q 302 337 300 400 q 304 249 304 274 l 304 249 q 300 158 304 222 q 292 69 296 94 q 279 -1 289 44 l 279 -1 q 263 -68 269 -47 l 263 -68 q 240 -131 257 -90 l 240 -131 q 207 -194 222 -174 l 207 -194 q 156 -233 188 -224 l 156 -233 l 136 -240 q 107 -237 121 -244 z "},"*":{"ha":453,"x_min":74,"x_max":381,"o":"m 233 733 l 233 733 q 235 735 235 735 l 235 735 q 235 738 235 736 l 235 738 q 233 733 233 736 z m 228 635 l 228 635 q 225 632 226 633 l 225 632 q 200 608 211 621 l 200 608 q 196 604 197 606 l 196 604 q 179 568 189 582 l 179 568 l 172 558 q 147 544 163 546 q 119 550 132 542 l 119 550 q 106 588 101 564 l 106 588 q 113 619 101 606 l 113 619 l 121 631 q 128 640 124 635 l 128 640 q 136 669 132 653 l 136 669 q 143 692 140 682 l 143 692 q 147 707 146 700 l 147 707 q 142 711 144 710 l 142 711 q 119 730 128 725 q 99 742 111 735 l 99 742 q 97 743 99 742 q 92 745 94 744 q 87 749 90 746 q 81 755 83 751 q 77 763 79 758 q 75 775 75 768 l 75 775 q 83 810 71 799 q 107 822 94 822 l 107 822 l 119 822 q 171 824 144 825 l 171 824 q 178 824 174 824 l 178 824 q 182 849 181 842 l 182 849 q 188 871 183 858 l 188 871 q 223 897 192 892 q 265 879 254 901 l 265 879 q 279 835 271 865 l 279 835 q 283 821 282 828 l 283 821 q 289 821 286 821 l 289 821 q 324 819 314 821 l 324 819 q 350 814 335 818 l 350 814 q 375 799 368 810 q 380 778 382 789 q 373 756 378 767 q 363 739 368 746 q 357 731 357 732 l 357 731 q 329 711 343 721 l 329 711 q 333 703 332 706 l 333 703 q 360 643 354 658 q 371 617 367 628 l 371 617 q 361 576 382 583 q 314 576 340 568 l 314 576 l 288 586 q 244 621 257 608 l 244 621 q 228 635 236 628 z "},"+":{"ha":804,"x_min":74,"x_max":732,"o":"m 91 392 q 74 415 78 400 q 80 444 71 431 q 103 460 89 457 l 103 460 l 119 463 q 172 469 138 467 l 172 469 q 221 474 206 474 l 221 474 q 251 474 235 474 l 251 474 q 313 475 265 474 l 313 475 q 369 479 349 478 l 369 479 q 369 481 369 479 l 369 481 q 367 554 368 531 l 367 554 q 365 614 367 576 l 365 614 q 364 654 364 647 l 364 654 q 361 675 363 665 l 361 675 l 360 685 q 369 712 358 700 q 394 725 379 724 q 422 717 410 726 q 435 692 433 707 l 435 692 l 436 682 q 438 667 436 674 l 438 667 q 440 615 439 656 l 440 615 q 442 556 442 575 l 442 556 q 444 483 443 533 l 444 483 q 449 485 447 485 l 449 485 q 519 488 496 488 l 519 488 q 592 488 542 488 l 592 488 q 656 488 640 488 l 656 488 q 681 486 668 486 l 681 486 l 694 486 q 720 475 710 486 q 731 448 731 464 q 719 422 731 432 q 693 411 708 411 l 693 411 l 679 411 q 650 413 664 411 l 650 413 q 592 413 639 413 l 592 413 q 521 413 540 413 l 521 413 q 453 410 499 413 l 453 410 q 446 408 450 410 l 446 408 q 446 394 446 401 l 446 394 q 450 313 447 357 l 450 313 q 454 251 453 269 l 454 251 q 453 203 454 232 l 453 203 l 453 175 q 440 149 451 160 q 413 140 428 139 q 387 151 397 140 q 378 178 376 163 l 378 178 l 379 206 q 379 247 379 231 l 379 247 q 375 309 378 264 q 372 392 372 354 l 372 392 q 371 404 371 397 l 371 404 q 317 400 350 403 l 317 400 q 251 399 268 399 l 251 399 q 222 399 235 399 l 222 399 q 179 396 210 399 l 179 396 q 135 390 149 393 l 135 390 l 119 386 q 91 392 104 383 z "},",":{"ha":347,"x_min":74,"x_max":274,"o":"m 205 126 q 231 139 215 138 q 258 131 246 140 q 271 106 269 121 l 271 106 l 274 75 q 269 15 276 39 l 269 15 q 256 -31 265 -4 l 256 -31 q 229 -89 246 -60 l 229 -89 q 174 -160 214 -118 l 174 -160 l 138 -197 q 112 -209 128 -208 q 85 -199 96 -210 q 74 -172 74 -187 q 83 -146 74 -157 l 83 -146 l 119 -108 q 164 -53 153 -74 l 164 -53 q 185 -7 176 -29 l 185 -7 q 197 35 193 18 l 197 35 q 199 68 201 46 l 199 68 l 196 99 q 205 126 194 114 z "},"-":{"ha":503,"x_min":74,"x_max":431,"o":"m 92 300 q 75 323 79 308 q 78 351 71 338 q 101 368 86 365 l 101 368 l 113 372 q 144 376 126 375 l 144 376 q 179 378 163 379 q 224 375 196 378 l 224 375 q 263 371 249 372 l 263 371 q 288 367 275 368 q 319 366 301 367 q 349 365 338 365 l 349 365 q 374 367 358 365 l 374 367 l 389 368 q 417 360 404 369 q 431 335 429 350 q 422 307 432 319 q 396 293 411 294 l 396 293 l 379 292 q 350 290 363 290 l 350 290 q 317 290 338 290 l 317 290 q 282 293 297 292 l 282 293 q 253 296 267 294 l 253 296 q 214 300 239 297 l 214 300 q 178 303 192 303 q 151 303 165 304 l 151 303 q 132 299 139 301 l 132 299 l 121 296 q 92 300 106 292 z "},".":{"ha":244,"x_min":75,"x_max":172,"o":"m 110 40 l 110 40 q 85 60 93 47 q 76 81 76 72 l 76 81 q 83 119 68 103 l 83 119 l 90 128 q 134 138 108 146 q 165 108 160 129 l 165 108 q 172 78 174 93 l 172 78 q 153 44 171 63 q 110 40 135 26 z "},"/":{"ha":635,"x_min":74,"x_max":563,"o":"m 112 -67 q 85 -56 96 -67 q 74 -31 74 -46 q 83 -4 74 -15 l 83 -4 l 92 6 q 110 35 97 11 l 110 35 q 132 78 125 63 l 132 78 q 159 138 139 96 q 192 206 179 181 l 192 206 q 236 293 203 229 l 236 293 q 283 385 269 357 q 332 486 297 413 l 332 486 q 378 588 367 558 q 398 649 389 618 q 419 735 407 679 l 419 735 q 442 826 433 792 l 442 826 q 463 890 451 861 l 463 890 q 486 938 475 924 l 486 938 l 494 949 q 519 963 504 961 q 547 956 535 965 q 562 931 560 946 q 554 903 564 915 l 554 903 l 546 893 q 533 864 542 886 l 533 864 q 514 807 522 838 l 514 807 q 493 718 506 774 l 493 718 q 469 627 479 660 q 448 562 460 594 q 400 454 436 529 l 400 454 q 350 350 365 379 l 350 350 q 303 258 336 322 l 303 258 q 258 172 269 194 q 228 107 247 149 q 200 49 208 65 l 200 49 q 176 0 192 29 l 176 0 q 147 -47 158 -33 l 147 -47 l 138 -56 q 112 -67 128 -67 z "},":":{"ha":260,"x_min":75,"x_max":183,"o":"m 161 543 l 161 543 q 154 536 157 539 l 154 536 q 111 530 135 522 q 81 557 88 538 l 81 557 q 82 607 71 582 l 82 607 q 110 634 90 628 q 147 635 131 640 l 147 635 q 179 611 165 631 q 182 568 193 592 l 182 568 q 161 543 176 554 z m 79 101 l 79 101 q 103 122 89 121 l 103 122 q 147 118 129 126 l 147 118 q 175 91 164 110 q 175 50 186 72 l 175 50 l 171 40 q 149 22 164 26 q 119 24 133 17 l 119 24 q 92 35 103 26 l 92 35 q 75 63 79 44 q 79 101 71 82 z "},";":{"ha":319,"x_min":75,"x_max":246,"o":"m 113 69 l 113 69 q 110 90 110 83 q 113 99 111 97 q 115 102 114 101 q 117 103 117 103 l 117 103 q 129 118 121 108 l 129 118 q 161 132 142 135 l 161 132 q 164 132 163 132 l 164 132 q 192 126 179 135 l 192 126 l 206 118 q 239 81 231 103 l 239 81 q 246 46 244 65 l 246 46 q 242 -21 247 26 l 242 -21 q 210 -107 235 -75 l 210 -107 q 151 -154 185 -139 l 151 -154 l 126 -165 q 98 -165 113 -171 q 77 -146 83 -160 q 76 -117 71 -132 q 96 -96 82 -103 l 96 -96 l 121 -85 q 150 -61 138 -78 l 150 -61 q 167 -12 164 -44 l 167 -12 q 171 33 171 15 l 171 33 q 169 33 171 33 l 169 33 l 160 31 q 132 35 146 26 q 115 58 118 43 l 115 58 q 113 69 113 69 z m 140 533 l 140 533 q 121 564 124 547 l 121 564 q 129 601 117 583 q 160 622 142 618 l 160 622 q 174 622 165 622 q 196 613 183 621 q 211 586 208 604 l 211 586 q 211 547 219 565 l 211 547 l 207 536 q 187 517 201 522 q 158 517 172 511 l 158 517 q 140 533 146 522 z "},"<":{"ha":818,"x_min":74,"x_max":744,"o":"m 703 763 q 715 737 714 753 q 705 710 715 721 q 679 697 694 699 l 679 697 l 667 697 q 642 688 660 696 l 642 688 q 597 667 617 676 q 551 646 576 658 l 551 646 q 507 625 526 635 l 507 625 q 474 608 488 615 q 432 588 461 601 l 432 588 q 382 563 404 574 l 382 563 q 333 539 361 553 q 293 518 306 525 l 293 518 q 267 504 279 511 l 267 504 q 226 482 254 499 l 226 482 q 197 465 208 471 l 197 465 q 213 458 207 461 l 213 458 q 236 444 224 451 l 236 444 q 292 419 250 439 q 368 383 333 399 q 428 354 403 367 l 428 354 q 489 328 456 343 q 539 306 522 313 l 539 306 q 590 283 556 299 q 638 261 625 267 l 638 261 q 667 246 649 256 l 667 246 q 697 229 686 236 l 697 229 q 718 217 707 224 l 718 217 l 728 210 q 744 186 740 201 q 740 158 747 171 q 717 142 732 146 q 688 147 701 139 l 688 147 l 678 153 q 657 165 668 160 l 657 165 q 632 179 649 171 l 632 179 q 604 194 615 189 l 604 194 q 559 215 593 199 q 510 236 525 231 l 510 236 q 458 259 493 243 q 397 286 424 275 l 397 286 q 336 315 371 299 q 260 351 301 331 l 260 351 q 203 378 217 371 l 203 378 q 176 392 189 385 l 176 392 q 143 406 167 397 l 143 406 q 114 414 121 414 l 114 414 q 109 415 113 414 q 98 417 106 415 q 85 424 90 419 q 76 438 79 428 q 75 461 72 447 l 75 461 q 78 474 76 468 q 84 484 81 481 q 90 489 88 488 q 97 492 93 490 q 100 493 100 493 l 100 493 q 127 510 113 501 q 151 524 142 518 q 189 547 161 531 l 189 547 q 232 571 218 564 l 232 571 q 258 585 244 578 l 258 585 q 300 606 272 592 q 350 631 328 619 l 350 631 q 399 654 371 640 l 399 654 q 440 676 428 669 l 440 676 q 475 693 454 683 l 475 693 q 519 714 494 701 l 519 714 q 564 735 544 726 l 564 735 q 611 757 585 744 l 611 757 q 663 772 643 771 l 663 772 l 676 772 q 703 763 692 774 z "},"=":{"ha":790,"x_min":74,"x_max":718,"o":"m 81 567 q 74 594 72 579 q 90 619 76 610 q 117 625 103 628 l 117 625 l 126 624 q 154 620 136 622 q 182 617 172 618 q 210 615 192 617 l 210 615 q 258 613 229 615 q 304 610 288 611 q 347 606 321 608 l 347 606 q 410 600 374 604 l 410 600 q 461 597 444 597 l 461 597 q 497 597 479 597 q 551 597 514 596 l 551 597 q 600 599 589 599 q 621 602 611 600 q 642 607 631 604 l 642 607 l 656 610 q 684 606 671 614 q 701 583 697 597 q 697 554 706 568 q 674 538 689 540 l 674 538 l 660 533 q 633 528 644 531 q 608 525 622 526 l 608 525 q 554 522 594 524 l 554 522 q 496 521 514 521 l 496 521 q 458 522 476 522 l 458 522 q 403 526 440 522 l 403 526 q 340 531 367 529 q 297 535 314 533 l 297 535 q 253 538 282 536 q 207 540 225 540 l 207 540 q 176 543 188 542 l 176 543 q 145 546 165 543 q 115 550 125 549 l 115 550 l 106 551 q 81 567 90 554 z m 165 256 q 150 281 153 265 q 157 308 147 296 q 182 324 167 321 l 182 324 l 193 325 q 222 331 206 328 l 222 331 q 249 335 239 333 l 249 335 q 294 340 260 336 q 346 346 329 344 l 346 346 q 383 349 364 347 l 383 349 q 442 347 403 349 l 442 347 q 508 346 479 346 l 508 346 q 553 344 536 344 q 600 346 571 344 l 600 346 q 643 347 631 346 q 668 347 656 347 l 668 347 l 679 347 q 706 337 694 347 q 717 311 717 326 q 707 284 718 296 q 681 272 696 272 l 681 272 l 669 272 q 646 272 658 272 q 603 271 633 271 l 603 271 q 553 269 571 269 q 506 271 535 269 l 506 271 q 439 272 478 271 l 439 272 q 385 274 401 274 l 385 274 q 353 272 368 272 l 353 272 q 303 267 336 271 q 261 261 269 263 l 261 261 q 235 257 251 260 l 235 257 q 206 251 218 253 l 206 251 l 193 249 q 165 256 178 247 z "},">":{"ha":783,"x_min":75,"x_max":711,"o":"m 76 699 q 77 728 71 714 q 98 747 83 742 q 126 746 113 751 l 126 746 l 136 742 q 160 728 146 736 l 160 728 q 196 710 172 722 q 233 692 219 697 l 233 692 q 293 667 249 685 l 293 667 q 357 640 338 649 l 357 640 q 412 615 375 631 q 467 590 449 599 q 513 571 485 582 l 513 571 q 571 544 539 560 l 571 544 q 615 524 603 531 l 615 524 q 656 501 629 517 l 656 501 q 692 479 681 486 l 692 479 q 710 438 713 465 q 686 401 707 411 l 686 401 q 643 382 674 394 l 643 382 q 608 367 617 371 q 588 358 599 364 l 588 358 q 547 340 578 353 q 503 321 517 326 q 464 304 490 315 q 418 285 438 293 l 418 285 q 386 271 399 276 l 386 271 q 346 253 372 264 l 346 253 q 306 235 319 240 l 306 235 q 267 217 294 231 l 267 217 q 229 200 238 204 l 229 200 q 204 188 221 196 l 204 188 q 178 174 188 179 l 178 174 l 168 169 q 140 168 154 163 q 118 188 125 174 q 117 216 111 201 q 136 238 122 231 l 136 238 l 146 242 q 169 254 154 246 l 169 254 q 196 267 186 263 q 235 285 206 272 l 235 285 q 278 304 264 299 l 278 304 q 315 321 290 310 l 315 321 q 354 339 342 333 l 354 339 q 389 354 368 344 l 389 354 q 435 372 410 361 l 435 372 q 474 389 461 383 q 516 408 486 394 q 556 426 546 421 l 556 426 q 576 436 567 432 l 576 436 q 601 446 583 439 l 601 446 q 582 457 590 453 l 582 457 q 539 476 568 463 l 539 476 q 483 503 508 492 l 483 503 q 438 522 456 514 l 438 522 q 382 546 415 531 l 382 546 q 325 571 344 563 l 325 571 q 264 597 307 579 l 264 597 q 204 622 219 615 l 204 622 q 162 642 188 629 q 122 664 136 656 l 122 664 q 104 674 111 671 l 104 674 l 94 678 q 76 699 81 685 z "},"?":{"ha":647,"x_min":74,"x_max":572,"o":"m 277 297 q 263 322 265 307 q 272 350 261 338 q 297 364 282 363 l 297 364 l 319 367 q 350 371 340 369 l 350 371 q 372 376 360 374 l 372 376 q 408 389 382 379 l 408 389 q 446 411 431 399 l 446 411 q 476 451 460 422 l 476 451 q 497 497 493 481 l 497 497 q 496 572 501 513 l 496 572 q 483 657 492 632 q 449 726 475 682 l 449 726 q 401 785 424 768 l 401 785 q 349 807 382 800 l 349 807 q 283 804 317 814 l 283 804 q 226 781 249 794 l 226 781 q 182 740 204 764 l 182 740 q 156 708 160 717 l 156 708 q 151 682 153 701 l 151 682 l 149 654 q 135 629 147 639 q 108 621 124 619 q 83 634 93 622 q 74 661 72 646 l 74 661 l 76 689 q 89 742 79 724 l 89 742 q 126 792 97 760 l 126 792 q 185 842 154 822 l 185 842 q 264 876 217 864 l 264 876 q 364 881 314 892 l 364 881 q 447 843 414 871 l 447 843 q 513 765 481 818 l 513 765 q 555 681 544 714 q 571 578 565 647 l 571 578 q 571 479 576 507 l 571 479 q 542 414 564 453 l 542 414 q 493 353 518 374 l 493 353 q 436 319 469 333 l 436 319 q 392 304 406 308 l 392 304 q 365 297 378 300 l 365 297 q 328 292 353 294 l 328 292 l 304 290 q 277 297 289 288 z m 283 51 l 283 51 q 269 78 274 64 l 269 78 q 283 117 265 99 q 321 133 300 136 l 321 133 q 351 119 338 131 q 368 92 364 108 l 368 92 q 357 38 376 61 l 357 38 l 350 29 q 324 15 340 17 q 297 24 308 14 l 297 24 q 283 51 285 35 z "},"@":{"ha":1047,"x_min":75,"x_max":974,"o":"m 401 219 l 401 219 q 426 224 414 226 l 426 224 l 433 222 q 450 226 440 222 l 450 226 q 476 239 469 233 l 476 239 q 506 271 485 246 l 506 271 q 542 338 524 293 l 542 338 q 563 421 560 381 l 563 421 q 563 481 565 464 l 563 481 q 540 535 560 497 l 540 535 q 497 586 521 569 l 497 586 q 444 603 476 601 l 444 603 q 393 588 415 603 l 393 588 q 342 526 367 568 l 342 526 q 311 463 315 481 l 311 463 q 301 401 306 443 l 301 401 q 314 321 299 364 l 314 321 q 339 264 329 275 l 339 264 q 376 232 347 251 l 376 232 q 401 219 388 225 z m 628 357 l 628 357 q 650 328 646 343 q 650 306 654 313 l 650 306 l 646 297 q 629 256 642 282 l 629 256 q 631 232 629 242 l 631 232 q 636 213 633 218 l 636 213 q 658 197 642 207 l 658 197 q 686 183 679 185 l 686 183 q 724 183 697 182 l 724 183 q 766 193 749 186 q 810 222 783 200 l 810 222 q 861 290 835 243 l 861 290 q 894 361 889 340 l 894 361 q 899 432 900 381 l 899 432 q 890 513 897 486 l 890 513 q 853 607 883 539 l 853 607 q 785 714 822 672 l 785 714 q 725 769 746 756 q 640 806 704 783 l 640 806 q 529 829 579 828 l 529 829 q 439 822 476 831 q 354 789 401 813 l 354 789 q 271 729 308 765 l 271 729 q 211 660 232 693 q 172 576 190 626 l 172 576 q 151 451 156 525 l 151 451 q 150 349 147 375 l 150 349 q 167 272 153 322 q 192 197 181 221 l 192 197 q 242 122 201 175 l 242 122 q 319 46 279 71 l 319 46 q 419 -3 360 18 l 419 -3 q 525 -33 478 -25 l 525 -33 q 622 -31 571 -40 q 703 -6 674 -22 l 703 -6 q 744 21 735 13 l 744 21 q 776 64 753 29 l 776 64 l 800 103 q 824 119 808 115 q 853 114 840 122 q 869 90 865 106 q 864 63 872 75 l 864 63 l 839 24 q 794 -35 811 -19 l 794 -35 q 740 -71 778 -49 l 740 -71 q 635 -104 699 -93 q 514 -107 571 -115 l 514 -107 q 393 -74 460 -99 l 393 -74 q 278 -17 326 -49 l 278 -17 q 182 76 228 15 l 182 76 q 124 167 138 136 l 124 167 q 94 251 110 196 q 76 340 79 307 q 76 456 72 374 l 76 456 q 101 600 81 540 l 101 600 q 147 700 122 660 l 147 700 q 219 783 174 740 l 219 783 q 320 855 265 826 q 422 894 375 883 q 531 904 469 906 l 531 904 q 667 876 593 903 l 667 876 q 766 831 738 850 q 839 765 794 813 l 839 765 q 921 639 886 715 l 921 639 q 963 531 954 564 l 963 531 q 974 435 971 497 l 974 435 q 967 342 975 372 l 967 342 q 928 254 958 313 l 928 254 q 859 165 894 194 q 794 123 824 135 q 729 110 765 111 l 729 110 q 675 110 694 107 l 675 110 q 621 132 654 113 l 621 132 q 576 167 589 151 l 576 167 q 526 139 558 151 l 526 139 q 429 133 485 121 l 429 133 q 336 169 376 143 l 336 169 q 279 217 296 196 l 279 217 q 243 296 263 239 l 243 296 q 226 407 222 354 l 226 407 q 239 482 231 456 l 239 482 q 278 564 246 510 l 278 564 q 350 649 310 621 l 350 649 q 447 678 392 679 l 447 678 q 542 647 501 675 l 542 647 q 606 569 579 621 l 606 569 q 636 494 632 522 l 636 494 q 638 417 642 468 l 638 417 q 628 357 636 386 z "},"A":{"ha":768,"x_min":74,"x_max":696,"o":"m 517 300 l 517 300 q 468 299 497 300 l 468 299 q 419 299 433 299 l 419 299 q 376 299 403 299 l 376 299 q 328 299 351 300 q 296 299 306 299 l 296 299 l 285 297 q 267 300 275 296 l 267 300 q 253 264 258 278 l 253 264 q 223 197 244 243 q 188 121 201 150 l 188 121 q 168 85 174 94 l 168 85 q 153 56 164 74 l 153 56 l 143 39 q 121 22 136 26 q 92 26 106 18 q 75 48 79 33 q 79 76 71 63 l 79 76 l 88 93 q 101 118 97 110 l 101 118 q 121 156 107 128 l 121 156 q 154 227 133 182 q 183 293 175 272 q 210 358 192 314 l 210 358 q 246 462 226 403 q 272 544 265 521 l 272 544 q 291 612 279 568 q 310 683 303 656 l 310 683 q 325 742 317 713 q 336 783 333 772 l 336 783 q 346 818 339 796 l 346 818 q 364 857 354 843 l 364 857 q 396 878 375 874 q 435 871 417 883 l 435 871 q 465 819 453 857 l 465 819 q 479 782 475 793 q 489 757 483 771 l 489 757 q 513 692 494 743 q 542 617 532 642 l 542 617 q 569 537 551 590 q 598 442 586 483 q 624 349 610 401 q 649 250 638 297 l 649 250 q 666 169 660 201 q 678 103 672 138 q 689 42 685 69 l 689 42 q 694 0 693 15 l 694 0 l 696 -14 q 687 -41 697 -29 q 661 -54 676 -53 q 634 -46 646 -56 q 621 -21 622 -36 l 621 -21 l 619 -7 q 614 31 618 6 l 614 31 q 605 90 611 57 q 593 156 599 124 l 593 156 q 575 232 586 186 l 575 232 q 561 293 568 263 l 561 293 q 517 300 536 281 z m 294 374 l 294 374 q 326 375 307 375 l 326 375 q 381 374 353 375 l 381 374 q 418 374 404 374 l 418 374 q 465 374 433 374 l 465 374 q 519 375 500 375 l 519 375 l 539 375 q 526 422 533 400 l 526 422 q 498 514 515 461 q 472 591 481 567 q 443 666 463 615 q 419 731 424 717 q 410 756 414 744 l 410 756 q 407 760 408 757 l 407 760 q 397 722 404 747 l 397 722 q 382 665 389 693 l 382 665 q 363 592 375 636 q 344 524 351 547 l 344 524 q 317 438 338 499 l 317 438 q 294 374 306 403 z "},"B":{"ha":818,"x_min":74,"x_max":744,"o":"m 124 10 l 124 10 q 108 8 117 7 l 108 8 q 83 22 93 10 q 74 49 72 33 l 74 49 l 76 81 q 78 127 78 113 q 81 179 79 142 l 81 179 q 81 251 81 217 l 81 251 q 83 337 82 286 q 86 414 85 388 l 86 414 q 90 507 88 440 l 90 507 q 93 599 93 574 q 92 675 93 625 l 92 675 q 89 754 90 725 l 89 754 q 88 812 88 786 q 89 850 88 838 l 89 850 q 106 883 90 871 q 139 897 121 894 l 139 897 q 168 900 157 900 l 168 900 q 210 901 176 900 q 260 903 243 903 l 260 903 q 321 903 278 904 l 321 903 q 407 896 368 903 l 407 896 q 464 881 444 888 l 464 881 q 526 849 485 874 l 526 849 q 594 799 568 824 l 594 799 q 629 758 618 774 l 629 758 q 654 710 640 743 l 654 710 q 670 659 668 675 q 669 617 672 643 l 669 617 q 656 569 665 590 l 656 569 q 625 531 644 551 l 625 531 q 576 493 606 511 l 576 493 q 554 481 565 488 l 554 481 q 614 465 589 475 l 614 465 q 674 431 646 453 l 674 431 q 723 378 706 407 q 744 324 740 349 l 744 324 q 739 267 749 299 l 739 267 q 713 210 731 236 l 713 210 q 661 154 694 183 l 661 154 q 617 115 632 128 l 617 115 q 586 92 601 103 l 586 92 q 526 56 568 79 q 447 18 483 32 l 447 18 q 392 -3 411 3 l 392 -3 q 329 -15 372 -8 q 268 -21 286 -21 l 268 -21 q 215 -15 250 -21 l 215 -15 q 168 -6 181 -10 l 168 -6 q 139 4 156 -3 l 139 4 q 124 10 131 7 z m 164 474 l 164 474 q 190 476 176 475 l 190 476 q 258 482 215 478 l 258 482 q 321 486 301 485 q 361 489 340 488 l 361 489 q 382 489 369 489 l 382 489 q 390 492 386 490 l 390 492 q 440 510 407 497 q 493 533 472 524 l 493 533 q 538 557 514 543 l 538 557 q 571 583 558 571 l 571 583 q 589 606 583 596 l 589 606 q 594 628 593 613 l 594 628 q 596 649 597 643 l 596 649 q 585 681 594 657 l 585 681 q 568 715 574 707 l 568 715 q 540 746 561 725 l 540 746 q 488 785 522 764 l 488 785 q 439 810 453 806 l 439 810 q 392 822 425 815 l 392 822 q 321 828 360 828 l 321 828 q 263 828 279 829 l 263 828 q 213 826 246 828 q 169 825 179 825 l 169 825 q 163 825 167 825 l 163 825 q 163 811 163 817 l 163 811 q 164 758 163 788 l 164 758 q 167 678 165 728 l 167 678 q 168 599 168 626 q 165 504 168 572 l 165 504 q 164 474 165 489 z m 393 414 l 393 414 q 368 407 382 411 l 368 407 q 304 392 340 400 l 304 392 q 249 383 267 385 l 249 383 q 194 385 229 382 l 194 385 q 160 388 172 386 l 160 388 q 158 335 160 365 l 158 335 q 156 250 157 283 l 156 250 q 156 178 156 217 l 156 178 q 154 125 154 139 l 154 125 q 151 81 153 110 l 151 81 q 165 75 157 78 l 165 75 q 189 67 181 69 l 189 67 q 226 58 197 64 l 226 58 q 268 54 256 54 l 268 54 q 319 60 281 54 q 371 69 357 65 l 371 69 q 419 88 386 74 l 419 88 q 490 122 451 100 q 542 153 528 143 l 542 153 q 569 174 557 163 l 569 174 q 611 210 583 183 l 611 210 q 650 251 638 233 l 650 251 q 667 286 663 269 l 667 286 q 669 313 672 303 l 669 313 q 658 339 668 322 q 629 371 649 356 l 629 371 q 586 396 608 386 l 586 396 q 528 408 564 404 l 528 408 q 469 414 501 413 l 469 414 q 438 414 454 414 l 438 414 q 393 414 413 415 z "},"C":{"ha":806,"x_min":74,"x_max":732,"o":"m 730 817 q 731 788 736 803 q 711 767 725 774 q 682 767 697 761 l 682 767 l 653 778 q 610 793 624 789 l 610 793 q 563 806 597 797 l 563 806 q 482 814 529 813 l 482 814 q 417 814 435 815 l 417 814 q 364 797 400 811 l 364 797 q 296 756 331 785 l 296 756 q 236 692 258 725 l 236 692 q 203 640 213 658 q 177 563 194 621 q 156 482 160 506 l 156 482 q 149 406 151 457 q 150 319 147 356 l 150 319 q 164 242 153 286 l 164 242 q 183 183 175 200 q 225 129 192 167 l 225 129 q 288 75 256 93 l 288 75 q 336 51 319 57 l 336 51 q 385 42 356 46 l 385 42 q 451 38 414 36 l 451 38 q 522 42 492 38 l 522 42 q 565 50 551 46 l 565 50 q 586 60 576 54 l 586 60 l 600 67 q 628 72 613 75 q 651 55 643 68 q 656 26 660 42 q 639 3 651 11 l 639 3 l 625 -6 q 586 -22 607 -15 l 586 -22 q 532 -32 568 -28 l 532 -32 q 453 -37 497 -37 l 453 -37 q 372 -33 408 -39 l 372 -33 q 315 -19 338 -26 l 315 -19 q 250 10 290 -12 l 250 10 q 168 81 208 33 l 168 81 q 117 149 129 125 q 92 224 104 172 l 92 224 q 75 315 78 274 l 75 315 q 75 410 72 356 q 82 493 78 464 l 82 493 q 106 585 86 522 q 136 672 125 649 q 175 735 147 696 l 175 735 q 247 813 203 776 l 247 813 q 338 867 293 850 l 338 867 q 406 888 381 883 l 406 888 q 485 890 431 892 q 578 878 539 888 l 578 878 q 633 865 617 871 l 633 865 q 679 849 649 860 l 679 849 l 708 836 q 730 817 724 832 z "},"D":{"ha":876,"x_min":74,"x_max":804,"o":"m 81 779 l 81 779 q 74 807 71 792 q 90 832 78 822 l 90 832 l 101 839 q 106 843 104 842 l 106 843 q 122 854 113 851 l 122 854 q 161 876 136 867 q 219 892 186 886 l 219 892 q 299 896 250 896 l 299 896 q 369 890 347 894 l 369 890 q 449 875 392 888 l 449 875 q 554 846 507 863 q 624 818 601 829 l 624 818 q 688 775 647 807 l 688 775 q 753 710 731 742 l 753 710 q 783 663 775 681 l 783 663 q 799 597 792 643 l 799 597 q 804 535 804 556 l 804 535 q 799 476 804 515 l 799 476 q 786 407 794 436 l 786 407 q 764 340 778 378 l 764 340 q 740 283 749 303 l 740 283 q 707 224 731 264 l 707 224 q 667 167 681 182 l 667 167 q 639 139 653 153 l 639 139 q 589 101 622 124 q 526 63 556 78 q 457 38 496 49 l 457 38 q 397 21 418 25 q 329 13 376 17 l 329 13 q 247 8 281 8 l 247 8 q 193 11 214 10 l 193 11 q 151 17 171 14 l 151 17 q 119 22 132 21 l 119 22 l 107 25 q 83 41 92 28 q 76 69 74 54 l 76 69 q 104 99 82 92 l 104 99 q 104 104 103 101 l 104 104 l 104 115 q 106 157 106 125 q 104 213 106 189 l 104 213 q 102 309 104 236 q 100 454 100 382 l 100 454 q 100 558 100 522 l 100 558 q 100 663 99 593 l 100 663 q 101 749 101 729 l 101 749 q 100 765 101 756 l 100 765 q 81 779 88 768 z m 176 89 l 176 89 q 200 86 189 88 l 200 86 q 249 83 218 85 l 249 83 q 321 88 278 83 l 321 88 q 383 95 365 92 q 435 110 400 99 l 435 110 q 493 131 469 119 q 547 163 517 143 l 547 163 q 588 193 575 182 l 588 193 q 611 218 600 206 l 611 218 q 643 263 621 228 l 643 263 q 672 314 665 299 l 672 314 q 693 367 679 331 l 693 367 q 714 426 707 401 l 714 426 q 725 485 721 451 l 725 485 q 729 535 729 519 l 729 535 q 724 588 729 550 l 724 588 q 714 632 718 622 l 714 632 q 692 667 710 643 l 692 667 q 642 715 676 689 l 642 715 q 590 751 607 743 l 590 751 q 530 775 572 760 q 433 801 488 790 l 433 801 q 358 817 378 814 l 358 817 q 297 821 340 819 l 297 821 q 231 818 257 821 l 231 818 q 190 807 206 814 l 190 807 q 174 800 181 803 l 174 800 l 174 797 q 176 751 175 772 l 176 751 q 175 661 176 731 l 175 661 q 175 560 174 593 l 175 560 q 175 454 175 525 l 175 454 q 177 311 175 383 q 179 215 179 239 l 179 215 q 181 156 181 190 q 179 110 181 122 l 179 110 l 178 100 q 176 89 178 94 z "},"E":{"ha":807,"x_min":74,"x_max":735,"o":"m 718 875 q 725 847 728 863 q 710 823 722 832 q 682 815 697 814 l 682 815 l 667 818 q 635 821 653 821 l 635 821 q 604 824 615 822 l 604 824 q 557 826 593 824 l 557 826 q 503 831 521 829 l 503 831 q 443 833 485 832 l 443 833 q 376 835 401 833 l 376 835 q 301 840 350 836 l 301 840 q 236 846 253 844 l 236 846 q 186 849 217 847 l 186 849 q 154 850 168 850 l 154 850 q 154 847 154 849 l 154 847 q 154 819 154 839 l 154 819 q 154 767 154 800 l 154 767 q 153 713 154 733 q 151 674 151 693 q 149 606 150 656 l 149 606 q 149 535 149 556 l 149 535 q 149 507 149 524 l 149 507 q 181 508 171 508 l 181 508 q 213 508 190 507 l 213 508 q 264 508 235 508 q 303 508 293 508 l 303 508 q 328 507 314 508 l 328 507 l 342 506 q 367 494 357 506 q 376 466 378 482 q 363 440 375 450 q 336 431 351 431 l 336 431 l 324 432 q 303 433 311 433 l 303 433 q 264 433 293 433 q 214 433 235 433 l 214 433 q 181 433 190 432 l 181 433 q 150 432 172 433 l 150 432 q 151 401 150 415 l 151 401 q 152 353 151 372 q 156 297 153 333 l 156 297 q 158 239 157 261 l 158 239 q 163 196 160 218 l 163 196 q 167 167 165 175 l 167 167 q 172 143 168 158 l 172 143 q 178 125 175 131 q 188 114 181 119 l 188 114 q 200 108 190 110 l 200 108 q 225 104 217 104 l 225 104 q 267 99 235 103 l 267 99 q 316 95 300 96 q 368 93 332 94 l 368 93 q 425 92 406 93 q 491 91 444 92 q 572 89 538 90 q 620 87 607 88 q 650 86 633 86 l 650 86 q 679 86 665 86 l 679 86 l 694 88 q 722 77 710 88 q 734 51 733 67 q 724 24 735 36 q 697 13 713 13 l 697 13 l 683 11 q 650 11 668 11 l 650 11 q 618 12 632 11 q 569 14 604 13 q 489 17 535 15 l 489 17 q 424 18 443 17 l 424 18 q 367 18 404 18 l 367 18 q 311 20 329 19 q 260 25 293 21 l 260 25 q 215 29 226 28 l 215 29 q 183 35 203 31 l 183 35 q 136 58 156 42 l 136 58 q 113 88 121 72 q 99 125 104 103 l 99 125 q 93 154 94 144 l 93 154 q 88 186 92 163 l 88 186 q 83 235 85 211 l 83 235 q 81 293 82 258 l 81 293 q 77 351 78 331 q 76 400 76 371 q 74 471 75 429 q 74 535 74 513 l 74 535 q 74 607 74 556 l 74 607 q 76 678 75 658 l 76 678 q 78 718 76 697 l 78 718 q 79 767 79 736 l 79 767 q 79 819 79 800 l 79 819 q 79 849 79 839 l 79 849 q 89 889 79 867 l 89 889 q 144 926 107 926 l 144 926 q 190 924 158 925 l 190 924 q 240 921 222 922 q 307 915 258 919 l 307 915 q 379 910 356 911 l 379 910 q 446 907 404 908 l 446 907 q 507 906 488 907 l 507 906 q 563 901 525 904 l 563 901 q 608 899 599 899 l 608 899 q 640 896 621 897 l 640 896 q 678 892 661 894 l 678 892 l 693 890 q 718 875 708 888 z "},"F":{"ha":660,"x_min":74,"x_max":583,"o":"m 99 432 q 97 438 97 435 q 97 443 97 440 l 97 443 q 96 500 97 478 l 96 500 q 89 603 94 532 q 81 698 83 675 q 78 742 79 721 l 78 742 q 74 789 75 761 l 74 789 q 75 835 72 818 l 75 835 q 111 879 81 869 l 111 879 q 135 886 121 882 l 135 886 q 161 892 149 890 l 161 892 q 207 897 171 893 l 207 897 q 260 903 242 900 l 260 903 q 333 909 279 906 q 408 914 386 913 l 408 914 q 467 914 429 914 l 467 914 q 531 911 504 914 l 531 911 q 573 893 551 910 q 582 844 594 876 l 582 844 l 578 832 q 558 812 572 818 q 529 810 543 806 l 529 810 q 506 838 510 818 l 506 838 q 467 839 488 839 l 467 839 q 410 839 431 839 l 410 839 q 338 834 389 838 q 268 828 286 831 l 268 828 q 214 822 250 826 l 214 822 q 171 817 179 818 l 171 817 q 154 814 164 817 l 154 814 q 149 813 151 813 l 149 813 q 149 793 149 804 l 149 793 q 153 749 150 768 l 153 749 q 156 704 154 728 l 156 704 q 164 608 158 681 l 164 608 q 171 504 169 536 l 171 504 q 172 479 171 492 l 172 479 q 204 483 183 481 l 204 483 q 244 486 229 486 l 244 486 q 286 486 258 486 l 286 486 q 332 486 315 486 l 332 486 q 361 485 349 485 l 361 485 l 376 485 q 403 474 392 485 q 414 448 414 464 q 403 421 414 432 q 376 410 392 410 l 376 410 l 361 410 q 329 411 347 410 l 329 411 q 288 411 314 411 l 288 411 q 246 411 260 411 l 246 411 q 211 408 233 411 l 211 408 q 176 404 189 406 l 176 404 q 174 404 175 404 l 174 404 q 176 308 176 347 l 176 308 q 178 243 178 268 l 178 243 q 179 174 179 218 l 179 174 q 179 93 181 129 l 179 93 l 178 56 q 166 30 178 40 q 139 19 154 19 q 113 31 124 19 q 103 58 103 43 l 103 58 l 104 94 q 104 172 106 129 l 104 172 q 103 242 104 217 l 103 242 q 101 307 103 267 l 101 307 q 99 408 101 347 l 99 408 q 99 432 99 422 l 99 432 z "},"G":{"ha":947,"x_min":74,"x_max":875,"o":"m 797 614 q 769 612 783 607 q 747 631 754 617 q 744 660 740 646 l 744 660 l 746 665 q 743 676 746 669 l 743 676 q 731 704 735 696 l 731 704 q 704 732 725 713 q 665 764 683 751 l 665 764 q 617 788 647 776 l 617 788 q 567 801 585 799 q 500 804 550 804 l 500 804 q 435 801 450 804 l 435 801 q 379 785 417 797 l 379 785 q 301 747 343 772 l 301 747 q 251 713 263 724 l 251 713 q 213 660 239 700 q 172 583 186 619 l 172 583 q 153 508 158 549 l 153 508 q 150 424 147 468 l 150 424 q 167 344 153 381 l 167 344 q 210 264 181 307 l 210 264 q 254 203 240 218 q 303 156 268 188 l 303 156 q 383 101 336 128 l 383 101 q 468 64 431 76 l 468 64 q 549 53 503 53 l 549 53 q 622 61 592 51 l 622 61 q 678 88 654 71 q 724 131 703 104 l 724 131 q 757 186 746 158 l 757 186 q 778 239 771 214 l 778 239 q 789 297 785 265 l 789 297 q 796 360 793 332 l 796 360 q 797 400 797 385 l 797 400 q 781 400 789 400 l 781 400 q 740 399 756 399 l 740 399 q 686 400 726 399 q 631 402 646 401 q 592 404 615 403 l 592 404 q 557 404 568 406 l 557 404 l 544 404 q 518 415 529 404 q 506 442 507 426 q 517 468 506 457 q 543 479 528 479 l 543 479 l 556 479 q 594 479 569 481 l 594 479 q 633 477 618 478 q 688 475 649 476 q 742 474 728 474 l 742 474 q 778 475 756 474 l 778 475 q 818 476 801 475 q 854 465 835 476 q 874 428 874 454 l 874 428 q 874 401 874 418 l 874 401 q 869 354 872 385 l 869 354 q 863 288 868 324 l 863 288 q 850 219 858 250 l 850 219 q 826 156 842 189 l 826 156 q 782 85 810 119 l 782 85 q 721 26 754 49 q 646 -10 688 3 l 646 -10 q 547 -22 603 -24 l 547 -22 q 446 -7 492 -22 l 446 -7 q 347 36 401 7 q 254 100 293 65 l 254 100 q 199 151 215 133 l 199 151 q 147 222 181 172 l 147 222 q 96 318 113 274 l 96 318 q 75 418 79 364 l 75 418 q 78 519 71 471 l 78 519 q 103 611 85 568 l 103 611 q 150 701 119 654 q 197 765 181 747 l 197 765 q 264 811 215 783 l 264 811 q 354 856 311 840 l 354 856 q 419 875 396 869 l 419 875 q 500 879 443 881 l 500 879 q 579 875 557 879 l 579 875 q 642 858 603 871 l 642 858 q 707 826 682 843 l 707 826 q 756 785 731 810 q 792 746 782 761 l 792 746 q 813 703 803 731 l 813 703 q 819 646 826 668 l 819 646 l 815 636 q 797 614 811 621 z "},"H":{"ha":842,"x_min":74,"x_max":768,"o":"m 131 64 q 103 59 118 56 q 79 76 88 63 q 75 104 71 89 l 75 104 l 82 139 q 92 190 90 172 l 92 190 q 96 263 93 211 l 96 263 q 99 365 97 317 l 99 365 q 103 481 100 414 l 103 481 q 105 580 104 549 q 103 674 106 611 q 100 765 101 738 l 100 765 l 97 796 q 108 823 97 811 q 133 835 118 835 q 160 826 149 836 q 172 801 172 817 l 172 801 l 175 771 q 178 676 176 740 q 180 579 181 613 q 178 478 179 546 l 178 478 q 183 478 181 478 l 183 478 q 233 481 204 481 q 281 481 263 482 q 347 478 299 481 l 347 478 q 435 475 393 475 l 435 475 q 499 474 476 474 l 499 474 q 563 476 519 474 l 563 476 q 621 479 608 478 l 621 479 q 657 481 636 481 l 657 481 q 657 485 657 483 l 657 485 q 654 536 657 500 l 654 536 q 651 597 653 575 l 651 597 q 647 682 650 622 l 647 682 q 645 776 644 742 q 646 822 646 811 l 646 822 q 718 817 649 875 l 718 817 q 726 808 726 808 l 726 808 q 735 733 732 776 l 735 733 q 736 668 736 693 l 736 668 q 740 568 738 651 l 740 568 q 746 426 743 492 q 751 333 749 361 q 757 238 753 306 l 757 238 q 765 149 763 169 l 765 149 q 768 89 767 125 l 768 89 q 768 31 769 50 l 768 31 l 767 13 q 753 -12 765 -3 q 726 -22 742 -22 q 701 -8 711 -21 q 692 19 690 4 l 692 19 l 693 36 q 693 86 694 51 l 693 86 q 690 142 692 121 l 690 142 q 683 232 688 164 l 683 232 q 675 328 678 300 l 675 328 q 671 406 674 353 l 671 406 q 654 406 663 406 l 654 406 q 628 404 639 406 l 628 404 q 567 401 614 404 l 567 401 q 498 399 521 399 q 433 400 475 399 l 433 400 q 343 403 392 400 l 343 403 q 279 407 296 406 l 279 407 q 236 406 263 407 q 190 404 210 406 l 190 404 q 175 403 182 403 l 175 403 q 174 363 174 379 l 174 363 q 171 260 172 315 l 171 260 q 167 183 168 204 l 167 183 q 156 122 164 160 l 156 122 l 147 88 q 131 64 144 72 z "},"I":{"ha":251,"x_min":74,"x_max":178,"o":"m 172 24 q 149 8 164 11 q 120 13 133 4 q 104 36 107 21 l 104 36 l 100 50 q 94 86 97 65 l 94 86 q 90 149 92 107 q 88 219 88 190 l 88 219 q 86 297 86 247 l 86 297 q 85 419 85 346 l 85 419 q 82 529 83 493 q 79 597 81 565 q 76 669 78 629 l 76 669 q 74 743 75 708 q 74 786 74 778 l 74 786 l 74 796 q 85 823 74 811 q 111 835 96 835 q 138 824 126 835 q 149 797 149 813 l 149 797 l 149 788 q 149 744 149 779 q 151 672 150 710 l 151 672 q 154 600 153 633 l 154 600 q 157 531 156 567 q 160 421 158 494 l 160 421 q 161 297 160 350 l 161 297 q 163 221 161 249 l 163 221 q 164 153 163 193 l 164 153 q 168 97 167 113 l 168 97 q 174 67 171 81 l 174 67 l 176 53 q 172 24 181 38 z "},"J":{"ha":829,"x_min":74,"x_max":757,"o":"m 679 935 l 679 935 q 703 940 690 942 l 703 940 l 713 940 q 719 940 715 940 q 735 937 724 939 q 750 928 746 935 q 757 912 754 922 q 747 883 760 901 l 747 883 q 728 862 738 867 q 713 860 718 857 l 713 860 l 707 863 q 663 858 688 861 l 663 858 q 617 857 639 857 l 617 857 q 563 856 594 856 l 563 856 q 538 854 553 856 l 538 854 q 538 832 538 842 l 538 832 q 540 776 538 821 l 540 776 q 547 708 544 731 l 547 708 q 551 636 549 685 l 551 636 q 553 544 553 588 l 553 544 q 550 452 553 501 q 542 354 547 403 q 532 283 536 306 l 532 283 q 517 211 529 260 l 517 211 q 499 142 506 161 l 499 142 q 465 83 490 121 l 465 83 q 428 35 442 49 l 428 35 q 390 6 414 21 l 390 6 q 349 -18 364 -12 l 349 -18 q 297 -29 332 -25 l 297 -29 q 243 -29 260 -33 l 243 -29 q 194 -3 225 -25 q 142 50 163 19 l 142 50 q 117 94 125 78 l 117 94 q 97 149 110 111 q 81 200 83 186 l 81 200 q 76 228 78 213 l 76 228 l 74 243 q 81 271 72 258 q 106 285 90 283 q 133 278 121 288 q 149 254 146 269 l 149 254 l 150 239 q 154 215 153 225 l 154 215 q 168 172 157 206 q 185 125 179 138 l 185 125 q 206 90 190 114 l 206 90 q 236 58 217 72 l 236 58 q 260 44 253 47 l 260 44 q 289 46 268 43 l 289 46 q 321 51 314 49 l 321 51 q 349 67 329 54 l 349 67 q 375 88 368 81 l 375 88 q 403 125 383 96 l 403 125 q 428 168 424 156 l 428 168 q 444 228 433 183 l 444 228 q 458 294 456 275 l 458 294 q 467 363 461 315 q 475 456 472 410 q 478 544 478 503 l 478 544 q 476 633 478 586 l 476 633 q 472 701 474 681 l 472 701 q 467 771 469 725 l 467 771 q 463 833 463 818 l 463 833 q 463 853 463 842 l 463 853 q 436 851 449 851 l 436 851 q 385 847 411 850 l 385 847 q 336 843 358 846 l 336 843 q 301 839 314 842 l 301 839 q 281 833 290 838 l 281 833 l 265 828 q 237 827 251 821 q 217 848 222 833 q 217 877 211 863 q 238 897 224 892 l 238 897 l 253 903 q 288 913 271 910 l 288 913 q 328 918 303 915 l 328 918 q 379 922 351 921 l 379 922 q 433 926 407 925 l 433 926 q 492 928 457 928 l 492 928 q 560 931 528 929 l 560 931 q 613 931 592 931 q 658 933 635 932 l 658 933 q 679 935 669 935 z "},"K":{"ha":644,"x_min":75,"x_max":572,"o":"m 129 -10 q 101 -14 115 -18 q 78 4 86 -10 q 75 32 71 18 l 75 32 l 81 50 q 85 90 83 63 l 85 90 q 87 153 86 122 q 88 231 88 185 l 88 231 q 85 329 88 276 l 85 329 q 82 410 82 382 q 81 511 82 439 l 81 511 q 79 636 79 582 l 79 636 q 79 727 79 690 q 79 804 79 764 q 81 874 79 844 l 81 874 q 82 921 81 903 l 82 921 l 83 938 q 97 963 85 953 q 125 972 110 972 q 150 958 140 971 q 158 931 160 946 l 158 931 l 157 914 q 156 871 156 899 l 156 871 q 154 804 154 843 l 154 804 q 154 727 154 764 q 154 638 154 690 l 154 638 q 156 517 154 585 l 156 517 q 183 554 167 532 l 183 554 q 232 615 207 585 l 232 615 q 278 672 257 646 q 326 731 299 697 l 326 731 q 376 793 353 763 q 413 843 400 824 l 413 843 q 435 881 424 861 l 435 881 q 431 888 433 883 l 431 888 q 432 917 425 903 q 453 936 439 931 l 453 936 l 467 942 q 510 929 489 950 q 522 885 532 908 l 522 885 q 501 846 515 869 l 501 846 q 475 803 489 824 l 475 803 q 436 749 461 781 l 436 749 q 385 682 413 717 l 385 682 q 336 624 357 649 q 290 568 315 599 l 290 568 q 243 508 265 538 l 243 508 q 236 499 239 504 l 236 499 q 256 477 247 489 q 279 447 265 465 l 279 447 q 308 410 292 431 l 308 410 q 335 375 325 388 l 335 375 q 364 338 342 364 l 364 338 q 417 269 385 311 q 461 208 449 226 q 496 156 474 189 q 536 94 518 122 l 536 94 q 558 60 551 68 l 558 60 l 565 51 q 572 23 574 39 q 557 -2 569 7 q 529 -9 544 -11 q 504 6 514 -7 l 504 6 l 497 15 q 472 54 490 25 l 472 54 q 434 115 456 82 q 400 165 413 147 q 356 224 388 182 q 304 292 325 265 l 304 292 q 274 331 282 319 l 274 331 q 249 363 265 342 l 249 363 q 218 403 232 385 l 218 403 q 197 432 206 421 l 197 432 q 190 439 194 436 l 190 439 q 185 431 188 435 l 185 431 l 174 418 q 157 407 167 411 l 157 407 q 160 332 158 379 l 160 332 q 163 231 163 279 l 163 231 q 162 151 163 183 q 160 88 161 119 l 160 88 q 153 29 158 51 l 153 29 l 147 11 q 129 -10 143 -3 z "},"L":{"ha":571,"x_min":74,"x_max":497,"o":"m 428 64 l 428 64 q 449 65 439 67 l 449 65 l 460 64 q 467 60 463 63 q 481 52 471 58 q 495 39 490 46 q 497 20 500 32 q 481 -3 494 8 l 481 -3 q 464 -14 471 -11 q 454 -16 457 -17 q 449 -14 451 -15 q 446 -12 446 -12 l 446 -12 q 418 -11 429 -12 l 418 -11 q 383 -7 407 -10 l 383 -7 q 324 -3 360 -4 l 324 -3 q 274 -3 289 -1 l 274 -3 q 231 -3 258 -3 q 186 -1 203 -3 l 186 -1 q 156 0 171 0 l 156 0 q 125 4 139 1 l 125 4 q 95 21 110 6 q 83 57 81 36 l 83 57 q 85 74 85 64 l 85 74 q 86 97 85 83 l 86 97 q 85 163 86 111 q 83 248 85 215 q 79 340 82 281 l 79 340 q 74 453 75 403 q 74 563 74 504 l 74 563 q 76 676 75 619 l 76 676 q 81 763 78 733 l 81 763 q 92 813 85 796 l 92 813 l 97 824 q 119 843 104 838 q 147 842 133 849 q 166 820 161 835 q 165 792 171 806 l 165 792 l 160 781 q 156 756 157 775 l 156 756 q 151 674 153 729 l 151 674 q 149 561 150 618 l 149 561 q 149 455 149 504 q 153 345 150 406 q 158 251 157 285 q 160 164 160 217 l 160 164 q 161 96 161 111 l 161 96 q 160 75 161 85 l 160 75 q 192 74 178 75 l 192 74 q 231 72 206 72 l 231 72 q 272 72 258 72 l 272 72 q 326 72 289 74 l 326 72 q 390 68 365 71 l 390 68 q 426 64 417 65 l 426 64 q 428 64 426 64 z "},"M":{"ha":731,"x_min":74,"x_max":658,"o":"m 181 7 q 156 -7 171 -6 q 128 2 140 -8 q 115 28 117 13 l 115 28 l 113 54 q 110 99 111 82 q 108 157 108 115 l 108 157 q 106 271 107 200 l 106 271 q 103 408 106 340 q 97 549 101 475 q 90 657 93 624 l 90 657 q 82 757 88 693 l 82 757 q 75 849 76 824 l 75 849 q 74 851 75 849 q 74 855 74 853 q 74 860 74 857 q 75 868 74 864 q 78 876 76 872 q 83 883 79 879 q 93 892 88 888 l 93 892 q 138 897 121 906 q 161 868 154 888 l 161 868 l 168 850 q 214 751 194 803 l 214 751 q 242 672 232 703 l 242 672 q 274 574 251 643 l 274 574 q 311 468 296 507 l 311 468 q 326 431 319 447 l 326 431 q 350 483 336 454 l 350 483 q 382 542 365 514 l 382 542 q 419 610 397 568 q 450 672 440 651 l 450 672 q 481 742 460 692 l 481 742 q 510 822 500 792 l 510 822 q 526 874 519 854 l 526 874 q 527 881 526 875 q 529 890 528 886 q 536 900 531 894 q 551 911 542 906 l 551 911 q 583 913 571 919 q 601 896 596 907 l 601 896 l 607 885 q 611 846 611 871 l 611 846 q 611 786 611 825 l 611 786 q 613 674 611 747 q 619 529 614 601 l 619 529 q 628 412 625 454 q 640 279 631 369 l 640 279 q 652 158 650 189 q 656 79 654 126 l 656 79 q 658 10 657 32 l 658 10 l 658 -11 q 647 -37 658 -26 q 621 -49 636 -49 q 594 -37 606 -49 q 583 -11 583 -26 l 583 -11 l 583 10 q 581 76 582 31 q 578 152 579 122 q 567 272 576 182 l 567 272 q 553 406 557 363 l 553 406 q 544 524 550 449 q 538 672 539 599 l 538 672 q 538 685 538 679 l 538 685 q 517 639 525 654 l 517 639 q 485 575 507 618 l 485 575 q 447 506 463 533 l 447 506 q 417 449 432 479 l 417 449 q 393 397 403 419 l 393 397 q 369 349 382 371 q 328 324 357 326 q 283 346 300 321 l 283 346 q 264 385 271 367 l 264 385 q 242 440 257 400 l 242 440 q 203 550 225 481 l 203 550 q 171 649 181 618 l 171 649 q 167 656 169 651 q 165 664 165 661 l 165 664 q 172 554 168 629 q 178 410 176 479 q 181 271 181 342 l 181 271 q 183 160 182 200 l 183 160 q 185 103 183 119 l 185 103 q 188 61 185 88 l 188 61 l 190 35 q 181 7 192 19 z "},"N":{"ha":800,"x_min":74,"x_max":728,"o":"m 211 8 q 185 -3 200 -3 q 158 6 169 -4 q 147 32 147 17 l 147 32 l 146 50 q 143 99 146 65 l 143 99 q 139 176 142 131 q 132 263 136 222 l 132 263 q 123 365 128 304 q 115 460 118 426 l 115 460 q 108 540 113 493 l 108 540 q 98 644 104 588 q 85 744 92 700 l 85 744 q 76 814 79 790 l 76 814 q 74 850 74 839 l 74 850 q 91 886 72 879 q 129 886 110 893 l 129 886 l 149 879 q 176 843 167 863 l 176 843 q 201 792 183 828 q 238 718 219 756 l 238 718 q 288 626 257 682 l 288 626 q 361 490 318 568 l 361 490 q 422 382 404 413 l 422 382 q 474 299 439 353 l 474 299 q 546 197 508 246 l 546 197 q 594 135 583 149 l 594 135 q 625 101 606 121 l 625 101 q 642 85 635 92 l 642 85 q 647 121 644 103 l 647 121 q 650 178 649 142 q 651 236 651 214 l 651 236 q 653 286 651 258 l 653 286 q 651 385 653 311 l 651 385 q 650 488 651 458 q 644 574 649 518 l 644 574 q 636 672 639 631 l 636 672 q 629 738 632 714 l 629 738 q 622 803 628 763 l 622 803 q 617 858 618 843 l 617 858 q 610 900 614 874 l 610 900 l 607 925 q 614 953 604 940 q 639 967 624 965 q 667 959 654 968 q 681 935 679 950 l 681 935 l 685 910 q 690 869 688 885 l 690 869 q 697 811 693 853 l 697 811 q 704 744 701 769 l 704 744 q 711 679 707 719 l 711 679 q 719 581 714 638 q 725 492 724 524 q 726 386 726 460 l 726 386 q 728 285 728 311 l 728 285 q 726 235 726 258 l 726 235 q 725 174 726 211 q 721 115 724 136 l 721 115 q 715 71 719 92 l 715 71 q 697 24 711 44 l 697 24 q 635 0 671 -14 l 635 0 q 607 17 622 6 l 607 17 q 571 49 593 26 l 571 49 q 538 86 550 71 l 538 86 q 486 151 524 101 l 486 151 q 411 258 447 203 l 411 258 q 357 344 375 314 l 357 344 q 296 454 339 375 l 296 454 q 221 590 253 532 l 221 590 q 171 685 189 647 l 171 685 q 168 690 169 686 l 168 690 q 172 653 169 672 l 172 653 q 183 547 179 596 l 183 547 q 190 465 188 499 l 190 465 q 199 372 193 433 l 199 372 q 207 269 203 311 l 207 269 q 213 181 210 228 q 218 103 217 135 l 218 103 q 221 51 221 69 l 221 51 l 222 35 q 211 8 222 19 z "},"O":{"ha":1018,"x_min":74,"x_max":944,"o":"m 554 43 l 554 43 q 611 63 578 49 l 611 63 q 663 86 646 78 l 663 86 q 718 122 678 93 l 718 122 q 781 179 756 149 l 781 179 q 817 229 807 211 l 817 229 q 846 310 828 247 l 846 310 q 868 399 865 374 l 868 399 q 869 481 872 425 l 869 481 q 858 575 865 536 l 858 575 q 829 663 850 613 q 794 733 808 713 l 794 733 q 731 796 781 753 l 731 796 q 639 854 683 839 l 639 854 q 568 874 592 871 l 568 874 q 482 868 543 876 l 482 868 q 407 853 424 860 l 407 853 q 367 831 388 843 l 367 831 q 299 778 346 819 l 299 778 q 224 696 253 738 l 224 696 q 185 632 194 654 l 185 632 q 161 549 175 611 l 161 549 q 149 463 149 486 l 149 463 q 158 381 149 436 l 158 381 q 182 292 168 326 l 182 292 q 222 217 196 257 l 222 217 q 268 158 251 176 l 268 158 q 332 108 283 142 l 332 108 q 397 69 381 75 l 397 69 q 450 54 415 63 l 450 54 q 507 46 482 46 l 507 46 l 538 46 q 554 43 546 46 z m 372 -1 l 372 -1 q 289 46 346 8 l 289 46 q 213 107 233 85 l 213 107 q 161 175 193 129 l 161 175 q 113 264 129 222 l 113 264 q 85 368 96 307 l 85 368 q 74 461 75 429 l 74 461 q 88 564 72 493 l 88 564 q 115 663 103 635 l 115 663 q 163 738 129 690 q 250 835 196 786 l 250 835 q 329 896 303 881 l 329 896 q 376 921 353 910 l 376 921 q 472 943 403 933 l 472 943 q 575 949 540 951 l 575 949 q 664 925 608 946 l 664 925 q 781 853 722 904 l 781 853 q 856 775 836 803 l 856 775 q 898 692 874 749 q 932 589 922 635 l 932 589 q 943 485 940 544 l 943 485 q 943 390 947 422 l 943 390 q 918 288 939 357 q 882 192 897 218 l 882 192 q 839 132 868 167 l 839 132 q 761 61 807 93 l 761 61 q 696 19 717 29 l 696 19 q 640 -7 678 10 l 640 -7 q 572 -31 601 -24 l 572 -31 q 510 -39 543 -37 l 510 -39 q 463 -39 476 -40 l 463 -39 q 417 -26 447 -37 l 417 -26 l 390 -17 q 372 -1 379 -12 z "},"P":{"ha":738,"x_min":74,"x_max":665,"o":"m 163 451 l 163 451 q 183 450 172 450 l 183 450 q 224 444 208 446 l 224 444 q 278 444 238 443 l 278 444 q 350 451 318 444 l 350 451 q 400 463 385 457 l 400 463 q 456 485 415 468 l 456 485 q 518 518 493 503 l 518 518 q 549 542 542 533 l 549 542 q 571 574 556 549 l 571 574 q 588 618 585 597 l 588 618 q 590 654 592 639 l 590 654 q 579 697 588 671 l 579 697 q 564 732 569 722 l 564 732 q 531 763 558 742 l 531 763 q 490 789 503 785 l 490 789 q 435 803 474 794 l 435 803 q 367 817 396 813 q 300 822 338 821 l 300 822 q 244 824 261 824 l 244 824 q 189 819 228 824 l 189 819 q 151 817 165 818 l 151 817 q 151 807 151 813 l 151 807 q 151 767 151 783 q 153 701 151 750 l 153 701 q 156 608 154 654 l 156 608 q 161 493 157 563 l 161 493 q 163 451 163 471 z m 174 23 q 147 10 163 11 q 121 20 132 10 q 108 46 110 31 l 108 46 l 107 65 q 104 119 107 83 l 104 119 q 100 180 101 156 q 96 278 99 204 l 96 278 q 92 386 93 353 l 92 386 q 74 419 72 399 l 74 419 q 89 447 75 436 l 89 447 q 86 489 88 467 l 86 489 q 81 606 82 560 l 81 606 q 78 700 79 653 l 78 700 q 76 765 76 747 q 76 807 76 782 l 76 807 q 81 850 76 838 l 81 850 q 125 889 89 882 l 125 889 q 182 894 139 892 l 182 894 q 244 899 225 899 l 244 899 q 303 897 263 899 l 303 897 q 377 891 344 896 q 451 876 410 886 l 451 876 q 515 860 494 867 l 515 860 q 578 821 540 850 l 578 821 q 628 772 615 792 l 628 772 q 649 721 638 754 q 664 663 661 688 l 664 663 q 661 604 667 636 l 661 604 q 636 536 656 571 l 636 536 q 601 488 615 501 l 601 488 q 560 456 589 475 l 560 456 q 486 417 529 436 l 486 417 q 422 390 443 397 l 422 390 q 364 378 403 385 l 364 378 q 279 369 326 369 l 279 369 q 217 369 235 368 l 217 369 q 174 375 200 372 l 174 375 q 167 376 171 375 l 167 376 q 171 282 168 342 l 171 282 q 175 184 174 207 q 179 125 176 161 l 179 125 q 182 68 182 88 l 182 68 l 183 50 q 174 23 185 35 z "},"Q":{"ha":1015,"x_min":74,"x_max":943,"o":"m 601 174 q 600 202 594 188 q 619 223 606 217 q 649 224 633 229 l 649 224 l 660 219 q 706 192 675 213 l 706 192 q 746 163 725 178 l 746 163 q 760 181 753 171 l 760 181 q 800 264 781 211 l 800 264 q 821 342 818 318 l 821 342 q 824 421 824 368 l 824 421 q 811 533 825 472 l 811 533 q 790 619 799 596 l 790 619 q 757 682 782 642 l 757 682 q 710 743 732 721 l 710 743 q 650 786 686 765 q 576 817 614 807 l 576 817 q 489 824 538 826 l 489 824 q 419 814 438 819 l 419 814 q 361 790 401 808 l 361 790 q 283 735 324 771 l 283 735 q 226 681 240 697 l 226 681 q 188 618 214 665 l 188 618 q 154 532 163 572 l 154 532 q 149 469 147 489 q 169 393 150 450 l 169 393 q 221 285 190 336 q 291 195 251 235 q 388 121 331 156 l 388 121 q 485 79 443 88 l 485 79 q 542 74 511 74 l 542 74 q 601 81 571 74 l 601 81 q 650 93 635 86 l 650 93 q 686 114 660 96 l 686 114 q 663 131 674 122 l 663 131 q 633 149 640 146 l 633 149 l 621 154 q 601 174 607 160 z m 672 21 l 672 21 q 644 6 663 7 l 644 6 l 588 0 q 542 -1 564 -1 l 542 -1 q 494 -1 506 -1 l 494 -1 q 469 1 486 0 l 469 1 l 454 3 q 428 18 438 4 l 428 18 q 349 57 390 32 l 349 57 q 239 142 285 96 q 157 247 193 189 l 157 247 q 99 369 122 304 l 99 369 q 74 463 76 435 l 74 463 q 81 544 72 492 l 81 544 q 122 654 90 597 l 122 654 q 169 729 151 707 l 169 729 q 233 792 188 751 l 233 792 q 328 857 282 833 l 328 857 q 399 886 374 879 l 399 886 q 483 899 424 894 l 483 899 q 594 890 544 903 l 594 890 q 688 851 643 878 l 688 851 q 762 797 733 825 q 821 722 790 769 l 821 722 q 860 646 849 675 l 860 646 q 885 549 871 615 l 885 549 q 899 421 900 479 l 899 421 q 896 333 899 364 l 896 333 q 871 239 892 301 l 871 239 q 821 136 849 176 l 821 136 q 806 117 814 126 l 806 117 q 828 99 817 108 l 828 99 q 878 58 865 69 q 911 32 892 47 l 911 32 l 929 15 q 942 -10 942 6 q 933 -38 943 -26 q 908 -51 924 -50 q 881 -42 893 -51 l 881 -42 l 863 -26 q 831 1 843 -10 q 781 40 818 11 l 781 40 q 749 65 764 54 l 749 65 q 744 63 747 64 l 744 63 q 672 21 700 31 z "},"R":{"ha":807,"x_min":74,"x_max":735,"o":"m 74 833 l 74 833 q 81 860 72 847 q 106 876 90 874 l 106 876 l 128 879 q 158 886 149 883 l 158 886 q 225 901 174 892 l 225 901 q 304 911 276 911 l 304 911 q 403 899 333 913 q 503 872 472 885 l 503 872 q 581 826 532 860 l 581 826 q 651 771 631 793 q 701 700 672 749 l 701 700 q 735 607 735 644 l 735 607 q 719 547 733 568 l 719 547 q 658 497 707 529 l 658 497 q 561 451 613 468 l 561 451 q 496 432 532 442 l 496 432 q 518 383 501 419 l 518 383 q 549 318 538 340 l 549 318 q 583 250 561 294 q 624 158 604 206 q 650 97 644 111 q 661 63 656 83 l 661 63 l 668 43 q 667 15 674 29 q 645 -3 660 1 q 616 -1 631 -8 q 597 19 601 6 l 597 19 l 590 39 q 580 71 585 58 q 556 128 575 83 q 515 217 536 174 q 482 283 493 261 l 482 283 q 449 352 469 307 q 425 408 429 397 l 425 408 q 422 415 424 411 l 422 415 q 354 401 376 406 l 354 401 q 285 390 329 397 l 285 390 q 219 379 239 382 l 219 379 q 197 376 210 378 l 197 376 q 200 333 200 350 l 200 333 q 207 201 203 290 l 207 201 q 210 88 211 111 l 210 88 q 201 33 210 60 l 201 33 l 196 11 q 178 -12 192 -4 q 149 -15 164 -19 q 127 3 135 -11 q 124 32 119 17 l 124 32 l 129 54 q 135 89 135 71 l 135 89 q 132 199 136 111 l 132 199 q 125 329 128 288 l 125 329 q 122 379 125 347 l 122 379 q 106 407 107 389 q 118 438 104 425 l 118 438 q 115 483 117 458 l 115 483 q 100 668 107 594 l 100 668 q 92 776 93 742 l 92 776 l 92 807 q 74 833 76 817 z m 192 451 l 192 451 q 210 453 201 451 l 210 453 q 268 463 226 456 l 268 463 q 342 476 317 472 l 342 476 q 431 494 367 479 l 431 494 q 538 522 493 508 l 538 522 q 618 561 581 536 l 618 561 q 657 589 649 581 l 657 589 q 660 608 660 596 l 660 608 q 638 661 660 625 l 638 661 q 597 719 613 703 q 539 764 582 735 l 539 764 q 472 803 496 793 l 472 803 q 388 824 450 813 q 307 836 326 836 l 307 836 q 239 826 285 836 l 239 826 q 181 815 192 818 l 181 815 q 167 811 175 813 l 167 811 l 167 779 q 175 675 168 746 l 175 675 q 190 489 182 601 l 190 489 q 192 451 192 468 z "},"S":{"ha":778,"x_min":74,"x_max":706,"o":"m 665 741 q 652 715 664 725 q 625 706 640 704 q 600 718 610 707 l 600 718 l 581 739 q 549 764 567 754 l 549 764 q 518 782 526 776 l 518 782 q 479 803 508 788 l 479 803 q 438 824 451 818 l 438 824 q 386 835 426 828 l 386 835 q 331 840 347 840 l 331 840 q 278 831 314 839 q 228 817 242 824 l 228 817 q 186 783 215 811 l 186 783 q 154 746 158 756 l 154 746 q 149 696 150 735 l 149 696 q 157 632 147 660 l 157 632 q 189 576 165 606 l 189 576 q 228 537 214 547 q 296 507 243 526 l 296 507 q 372 483 350 488 l 372 483 q 446 469 397 479 l 446 469 q 551 440 497 460 l 551 440 q 629 407 608 421 l 629 407 q 678 347 653 390 l 678 347 q 704 279 703 306 l 704 279 q 690 217 706 254 l 690 217 q 632 140 675 179 l 632 140 q 571 90 593 104 q 500 58 549 76 l 500 58 q 394 32 450 39 l 394 32 q 293 31 338 24 l 293 31 q 228 44 250 36 q 168 81 207 53 l 168 81 q 113 125 132 107 l 113 125 q 85 165 92 147 l 85 165 l 81 176 q 81 205 75 190 q 101 225 86 219 q 130 224 115 231 q 150 204 144 218 l 150 204 l 154 193 q 167 178 157 188 l 167 178 q 211 142 181 164 l 211 142 q 256 115 243 119 q 304 104 268 110 l 304 104 q 385 106 338 100 q 474 128 432 113 l 474 128 q 532 154 515 144 l 532 154 q 582 196 547 164 l 582 196 q 621 244 613 222 l 621 244 q 629 275 629 265 l 629 275 q 613 310 628 285 l 613 310 q 586 344 596 338 l 586 344 q 526 369 574 353 l 526 369 q 432 396 478 388 l 432 396 q 358 410 383 406 l 358 410 q 269 436 331 414 l 269 436 q 185 475 208 458 q 131 529 163 492 l 131 529 q 85 608 99 569 q 74 699 72 647 q 85 774 75 750 l 85 774 q 135 838 96 799 l 135 838 q 196 885 172 874 l 196 885 q 261 904 218 894 l 261 904 q 326 915 303 914 l 326 915 q 399 908 351 915 l 399 908 q 465 893 447 901 l 465 893 q 515 869 483 886 l 515 869 q 555 847 546 853 q 586 829 564 842 l 586 829 q 638 789 615 813 l 638 789 l 656 768 q 665 741 665 757 z "},"T":{"ha":854,"x_min":74,"x_max":782,"o":"m 85 806 q 74 833 74 817 q 85 860 74 849 q 111 871 96 871 l 111 871 l 126 871 q 169 872 142 871 l 169 872 q 210 875 199 875 l 210 875 q 249 876 221 876 l 249 876 q 321 876 278 878 l 321 876 q 383 875 364 876 l 383 875 q 390 875 386 875 l 390 875 q 422 899 399 897 l 422 899 q 460 874 450 900 l 460 874 q 529 875 492 874 l 529 875 q 597 880 578 878 q 631 884 615 882 q 676 890 647 886 l 676 890 q 722 899 707 896 l 722 899 l 739 901 q 766 894 753 903 q 781 869 779 885 q 774 842 783 854 q 750 826 765 829 l 750 826 l 735 825 q 689 817 719 822 l 689 817 q 641 809 658 811 q 603 805 624 807 q 532 800 583 803 l 532 800 q 465 799 496 799 l 465 799 q 468 754 468 774 l 468 754 q 475 663 469 729 l 475 663 q 486 504 479 596 l 486 504 q 494 380 492 413 q 502 289 497 347 q 513 175 507 231 l 513 175 q 521 104 519 119 l 521 104 q 521 65 522 86 l 521 65 l 519 47 q 508 22 519 32 q 481 12 496 11 q 455 24 465 13 q 444 51 444 36 l 444 51 l 446 69 q 446 97 447 85 l 446 97 q 439 168 444 113 q 428 282 433 224 q 419 374 422 340 q 411 500 417 407 l 411 500 q 400 654 404 590 l 400 654 q 393 750 396 724 l 393 750 q 390 800 393 771 l 390 800 q 381 800 385 800 l 381 800 q 319 801 363 801 l 319 801 q 251 801 278 803 l 251 801 q 214 800 225 801 l 214 800 q 174 797 203 800 l 174 797 q 128 796 144 796 l 128 796 l 111 796 q 85 806 96 796 z "},"U":{"ha":803,"x_min":74,"x_max":731,"o":"m 86 876 q 106 898 92 892 q 134 898 119 904 q 156 878 149 892 l 156 878 l 160 869 q 160 813 168 850 l 160 813 q 151 739 156 790 l 151 739 q 149 629 147 686 l 149 629 q 164 492 151 574 l 164 492 q 185 378 178 408 q 214 288 193 347 l 214 288 q 250 197 233 229 l 250 197 q 293 125 267 164 l 293 125 q 344 71 318 90 l 344 71 q 390 44 371 51 l 390 44 q 422 39 411 39 l 422 39 q 464 49 435 39 l 464 49 q 514 74 493 60 l 514 74 q 563 119 536 90 l 563 119 q 599 167 589 150 q 618 204 610 183 l 618 204 q 640 293 628 226 l 640 293 q 654 393 653 363 l 654 393 q 651 493 656 425 l 651 493 q 642 610 647 561 l 642 610 q 628 718 636 660 l 628 718 q 615 797 619 775 l 615 797 q 604 839 611 818 l 604 839 q 594 868 599 858 l 594 868 l 589 879 q 587 908 582 893 q 606 930 592 924 q 634 931 619 936 q 656 913 649 926 l 656 913 l 663 900 q 676 860 669 885 l 676 860 q 689 813 683 836 l 689 813 q 701 729 693 789 l 701 729 q 717 619 710 669 l 717 619 q 726 497 722 568 l 726 497 q 729 390 731 426 l 729 390 q 714 279 728 354 l 714 279 q 688 176 699 203 l 688 176 q 663 128 676 150 l 663 128 q 618 69 649 104 l 618 69 q 558 14 586 35 l 558 14 q 488 -22 528 -8 q 424 -36 447 -36 l 424 -36 q 369 -26 400 -36 l 369 -26 q 300 11 336 -18 l 300 11 q 232 83 263 38 l 232 83 q 183 163 203 125 l 183 163 q 143 264 164 200 l 143 264 q 113 360 121 326 q 90 479 104 393 l 90 479 q 74 628 76 567 l 74 628 q 76 744 72 688 l 76 744 q 86 829 81 801 l 86 829 q 89 843 89 838 l 89 843 l 86 847 q 86 876 81 861 z "},"V":{"ha":836,"x_min":74,"x_max":761,"o":"m 74 882 q 87 907 75 897 q 114 916 99 917 q 140 903 129 915 l 140 903 l 153 886 q 179 851 169 868 l 179 851 q 211 797 188 838 l 211 797 q 254 711 233 756 l 254 711 q 301 613 274 668 l 301 613 q 360 479 332 554 l 360 479 q 406 358 388 406 q 446 253 424 311 q 476 175 468 196 l 476 175 q 478 174 478 174 l 478 174 q 486 201 482 190 l 486 201 q 510 274 492 219 q 551 382 529 328 l 551 382 q 594 490 574 435 l 594 490 q 635 611 615 546 l 635 611 q 661 700 654 678 l 661 700 q 679 757 668 721 l 679 757 l 689 792 q 707 813 693 806 q 736 816 721 821 q 758 797 751 811 q 761 769 765 783 l 761 769 l 750 735 q 733 678 740 700 q 707 590 726 656 l 707 590 q 665 465 686 522 l 665 465 q 621 353 643 407 l 621 353 q 581 248 600 300 q 558 179 563 196 q 546 135 553 163 l 546 135 q 521 79 536 100 l 521 79 q 490 62 510 65 q 453 69 469 58 l 453 69 q 432 96 442 79 l 432 96 q 407 147 417 124 l 407 147 q 376 226 399 168 l 376 226 q 336 331 354 283 l 336 331 q 289 453 317 378 l 289 453 q 235 579 263 524 l 235 579 q 185 682 207 635 l 185 682 q 146 760 167 722 l 146 760 q 115 813 124 800 l 115 813 q 96 839 108 824 l 96 839 l 82 854 q 74 882 72 867 z "},"W":{"ha":1253,"x_min":74,"x_max":1179,"o":"m 942 356 l 942 356 q 969 451 961 421 l 969 451 q 1003 560 979 483 l 1003 560 q 1044 689 1026 636 q 1071 763 1063 742 l 1071 763 q 1090 817 1078 782 l 1090 817 q 1103 857 1101 850 l 1103 857 l 1106 867 q 1122 890 1108 882 q 1150 895 1135 899 q 1174 878 1165 892 q 1179 850 1182 865 l 1179 850 l 1176 840 q 1161 793 1174 829 l 1161 793 q 1142 736 1149 757 l 1142 736 q 1115 664 1133 715 q 1075 538 1097 613 l 1075 538 q 1042 431 1051 461 l 1042 431 q 1014 335 1032 400 l 1014 335 q 979 214 997 275 l 979 214 q 957 135 961 153 l 957 135 q 943 78 953 115 l 943 78 q 928 18 935 38 l 928 18 q 905 -15 922 0 q 863 -21 888 -29 l 863 -21 q 815 28 836 -12 l 815 28 q 782 107 801 57 l 782 107 q 732 232 763 154 l 732 232 q 679 383 701 310 l 679 383 q 635 532 656 457 l 635 532 q 607 631 613 607 l 607 631 q 601 657 604 642 l 601 657 q 590 611 594 628 l 590 611 q 567 525 583 585 l 567 525 q 533 394 551 468 q 510 296 515 319 l 510 296 q 497 229 504 272 l 497 229 q 488 160 490 186 l 488 160 q 476 99 483 132 l 476 99 q 472 88 475 94 q 461 69 469 82 q 444 49 453 56 q 422 44 435 42 q 394 64 408 46 l 394 64 q 376 96 383 79 l 376 96 q 356 151 371 110 l 356 151 q 313 266 340 193 q 260 401 285 339 l 260 401 q 222 500 235 464 l 222 500 q 183 606 210 535 l 183 606 q 140 721 157 678 l 140 721 q 103 794 125 763 l 103 794 l 79 829 q 74 858 71 843 q 90 882 78 874 q 118 887 103 890 q 142 871 133 883 l 142 871 l 165 836 q 210 749 192 796 l 210 749 q 254 633 228 704 q 293 525 281 561 l 293 525 q 329 429 304 490 l 329 429 q 382 293 354 365 l 382 293 q 417 200 403 239 l 417 200 q 424 242 419 219 l 424 242 q 438 313 431 286 l 438 313 q 461 411 443 336 q 494 544 479 486 l 494 544 q 517 629 511 604 l 517 629 q 536 708 524 656 l 536 708 q 556 776 550 760 l 556 776 q 568 810 560 793 l 568 810 q 590 835 578 831 q 614 831 603 839 q 634 813 625 824 q 649 792 643 801 l 649 792 l 654 781 q 669 706 663 744 l 669 706 q 681 647 675 669 q 707 553 686 625 l 707 553 q 750 406 728 478 l 750 406 q 803 258 772 335 l 803 258 q 851 133 832 182 l 851 133 q 869 89 861 108 l 869 89 q 871 94 869 93 l 871 94 q 885 151 879 133 l 885 151 q 907 235 889 172 l 907 235 q 942 356 925 296 z "},"X":{"ha":750,"x_min":74,"x_max":676,"o":"m 83 778 q 81 806 76 792 q 100 828 86 821 q 128 829 114 835 l 128 829 l 138 826 q 151 820 144 824 q 162 810 157 817 q 169 801 167 804 q 176 788 171 797 q 182 778 182 779 l 182 778 q 222 708 199 749 l 222 708 q 268 635 244 669 l 268 635 q 331 543 292 600 l 331 543 q 343 526 336 535 l 343 526 q 386 601 371 576 l 386 601 q 443 688 404 631 l 443 688 q 506 779 482 746 l 506 779 q 547 838 529 813 l 547 838 q 565 867 563 860 l 565 867 l 571 878 q 592 897 578 892 q 621 895 607 901 q 640 874 635 889 q 639 844 646 858 l 639 844 l 633 835 q 608 794 628 821 l 608 794 q 568 736 590 769 l 568 736 q 506 646 544 703 l 506 646 q 450 562 467 589 q 400 474 433 535 l 400 474 q 392 457 396 467 l 392 457 q 424 414 407 436 l 424 414 q 521 281 478 340 l 521 281 q 582 191 564 219 q 629 111 600 163 l 629 111 q 667 43 657 61 l 667 43 l 674 26 q 675 -3 681 13 q 656 -24 669 -18 q 627 -25 642 -31 q 606 -6 613 -19 l 606 -6 l 599 11 q 564 75 592 26 l 564 75 q 518 151 535 124 l 518 151 q 460 236 501 178 l 460 236 q 363 369 418 296 l 363 369 q 354 382 358 376 l 354 382 q 331 332 343 358 l 331 332 q 282 218 294 249 l 282 218 q 236 122 268 188 l 236 122 q 185 22 206 56 l 185 22 q 151 -29 165 -14 l 151 -29 l 139 -43 q 114 -56 129 -54 q 87 -47 99 -57 q 74 -22 75 -37 q 82 6 72 -6 l 82 6 l 94 19 q 121 60 103 31 l 121 60 q 169 154 139 92 l 169 154 q 213 249 200 218 l 213 249 q 263 363 226 279 l 263 363 q 304 451 283 410 l 304 451 q 268 501 285 478 l 268 501 q 206 592 231 557 l 206 592 q 157 671 181 629 l 157 671 q 117 740 133 711 l 117 740 q 107 757 111 751 l 107 757 l 104 758 q 83 778 89 764 z "},"Y":{"ha":788,"x_min":74,"x_max":714,"o":"m 390 -10 q 362 -14 376 -18 q 339 3 347 -10 q 335 32 331 17 l 335 32 l 342 57 q 358 118 347 85 l 358 118 q 375 174 368 153 q 403 256 382 194 l 403 256 q 443 361 422 313 l 443 361 l 436 375 q 424 399 432 388 l 424 399 q 401 428 415 411 l 401 428 q 381 457 389 446 l 381 457 q 344 505 372 468 q 288 580 315 542 q 226 667 260 618 q 181 736 193 717 l 181 736 q 148 786 169 754 q 108 846 126 818 l 108 846 q 85 885 90 874 l 85 885 l 79 894 q 75 922 71 907 q 92 945 79 938 q 121 949 106 953 q 143 932 136 944 l 143 932 l 149 922 q 172 886 154 913 l 172 886 q 211 828 190 858 l 211 828 q 243 776 232 796 l 243 776 q 288 710 256 758 q 348 624 321 661 q 403 551 375 588 l 403 551 q 440 503 432 514 l 440 503 q 463 474 449 490 l 463 474 q 481 447 472 458 l 481 447 q 518 536 493 474 l 518 536 q 556 632 546 606 l 556 632 q 585 717 567 660 l 585 717 q 615 804 604 772 q 631 849 626 836 l 631 849 q 638 872 633 860 l 638 872 l 640 885 q 658 908 644 900 q 687 911 672 915 q 709 894 701 907 q 713 865 717 881 l 713 865 l 710 853 q 701 825 706 838 l 701 825 q 687 781 697 813 q 657 692 676 749 q 626 607 638 635 l 626 607 q 588 508 617 578 q 549 413 560 439 l 549 413 q 515 338 536 388 l 515 338 q 474 231 493 289 l 474 231 q 446 151 453 171 l 446 151 q 431 97 440 131 l 431 97 q 414 39 419 64 l 414 39 l 407 14 q 390 -10 404 -1 z "},"Z":{"ha":875,"x_min":75,"x_max":803,"o":"m 181 401 q 167 426 168 411 q 176 454 165 442 q 201 468 186 467 l 201 468 l 210 468 q 249 471 219 469 l 249 471 q 294 475 278 474 l 294 475 q 333 478 306 475 l 333 478 q 334 481 333 479 q 336 482 335 482 l 336 482 q 404 586 368 536 l 404 586 q 470 666 440 635 q 539 731 500 697 l 539 731 q 606 785 572 758 l 606 785 q 532 790 582 786 l 532 790 q 419 793 469 794 l 419 793 q 343 792 368 793 l 343 792 q 270 790 319 792 q 206 789 221 789 l 206 789 q 167 790 190 789 l 167 790 l 143 790 q 117 802 128 790 q 106 829 106 814 q 118 855 107 844 q 144 865 129 865 l 144 865 l 168 865 q 206 864 193 864 q 268 865 219 864 q 342 867 317 867 l 342 867 q 418 868 365 868 l 418 868 q 536 865 471 869 l 536 865 q 624 858 601 860 l 624 858 q 672 851 644 856 l 672 851 q 711 835 699 847 l 711 835 q 723 800 725 817 q 711 774 721 783 l 711 774 q 660 731 699 760 l 660 731 q 588 673 624 704 q 525 614 551 642 l 525 614 q 465 542 499 586 l 465 542 q 429 490 447 517 l 429 490 q 442 493 438 492 l 442 493 q 463 496 451 493 l 463 496 l 475 499 q 503 492 490 501 q 519 469 517 483 q 513 441 522 454 q 489 425 504 428 l 489 425 l 476 422 q 451 418 463 419 l 451 418 q 418 414 443 417 l 418 414 q 378 408 400 411 l 378 408 q 343 350 358 376 l 343 350 q 289 262 319 311 q 245 190 258 213 q 204 118 232 167 l 204 118 q 165 49 179 74 l 165 49 q 179 51 172 50 l 179 51 q 244 63 219 58 l 244 63 q 321 74 268 67 l 321 74 q 446 92 374 81 l 446 92 q 547 107 519 103 l 547 107 q 626 115 578 111 l 626 115 q 707 119 678 121 l 707 119 q 764 117 738 119 l 764 117 q 774 115 768 115 l 774 115 q 785 114 779 115 l 785 114 l 799 111 q 802 91 801 108 q 799 55 803 74 q 788 38 794 36 l 788 38 q 754 42 778 39 l 754 42 q 706 44 732 44 q 633 42 681 44 l 633 42 q 560 33 586 38 l 560 33 q 458 18 531 29 l 458 18 q 331 -1 383 6 l 331 -1 q 257 -11 279 -7 l 257 -11 q 192 -22 235 -15 l 192 -22 q 121 -28 144 -31 l 121 -28 q 85 -8 101 -26 q 75 35 68 11 l 75 35 q 97 81 81 53 l 97 81 q 139 156 111 107 q 181 228 167 204 l 181 228 q 225 300 194 250 l 225 300 q 279 390 254 350 l 279 390 q 285 399 282 394 l 285 399 q 254 397 275 399 l 254 397 q 217 393 225 394 l 217 393 l 208 393 q 181 401 193 392 z "},"[":{"ha":360,"x_min":74,"x_max":288,"o":"m 273 901 q 282 874 283 889 q 269 848 281 858 q 242 839 257 838 l 242 839 l 229 840 q 208 842 218 840 l 208 842 q 183 840 200 842 l 183 840 q 149 839 164 839 l 149 839 q 149 835 149 838 l 149 835 q 149 801 149 810 q 149 782 149 792 l 149 782 q 150 756 149 774 l 150 756 q 150 714 150 739 l 150 714 q 151 678 151 689 l 151 678 q 151 651 151 664 q 153 603 151 639 l 153 603 q 154 557 153 569 l 154 557 q 156 513 154 542 q 158 464 157 485 l 158 464 q 160 412 160 442 q 161 367 161 382 l 161 367 q 160 338 160 353 l 160 338 q 158 289 158 324 l 158 289 q 157 240 157 254 l 157 240 q 155 213 156 226 q 153 165 154 199 q 153 119 153 132 q 153 93 153 106 l 153 93 q 154 51 153 81 q 156 8 156 21 l 156 8 q 156 -15 156 -4 l 156 -15 q 157 -53 157 -28 l 157 -53 q 158 -89 158 -79 l 158 -89 q 157 -122 158 -99 l 157 -122 q 157 -142 157 -137 l 157 -142 q 186 -137 168 -139 l 186 -137 q 229 -136 208 -136 l 229 -136 l 250 -136 q 276 -147 265 -136 q 288 -174 288 -158 q 276 -200 288 -189 q 250 -211 265 -211 l 250 -211 l 229 -211 q 190 -212 210 -211 l 190 -212 q 168 -215 174 -214 l 168 -215 q 140 -219 157 -218 q 106 -211 124 -221 q 83 -181 88 -201 l 83 -181 q 82 -154 82 -167 l 82 -154 q 82 -119 82 -144 l 82 -119 q 83 -89 83 -97 l 83 -89 q 82 -56 83 -81 l 82 -56 q 81 -18 82 -29 l 81 -18 q 81 6 81 -6 l 81 6 q 79 47 81 17 l 79 47 q 78 92 78 79 q 78 119 78 106 q 78 167 78 133 q 80 215 79 201 q 82 243 81 229 l 82 243 q 83 292 82 257 l 83 292 q 84 341 83 326 q 86 369 85 356 l 86 369 q 85 410 86 383 q 83 458 85 438 l 83 458 q 81 510 82 481 q 78 553 79 539 q 78 601 78 568 l 78 601 q 76 650 76 638 q 76 675 76 663 q 76 712 76 688 q 75 754 75 736 l 75 754 q 74 781 74 772 l 74 781 q 74 801 74 792 l 74 801 q 74 835 74 810 l 74 835 q 78 878 75 864 l 78 878 q 97 906 82 893 q 131 915 111 918 l 131 915 q 149 915 138 915 q 178 915 161 914 l 178 915 q 211 917 199 917 l 211 917 q 235 915 222 915 l 235 915 l 247 914 q 273 901 263 913 z "},"\\":{"ha":571,"x_min":74,"x_max":497,"o":"m 79 925 q 102 942 88 939 q 130 938 117 946 q 147 915 143 931 l 147 915 l 151 899 q 161 872 156 886 l 161 872 q 174 844 168 856 l 174 844 q 194 797 178 833 l 194 797 q 218 744 211 761 l 218 744 q 239 688 226 726 l 239 688 q 261 621 251 650 l 261 621 q 282 557 269 593 l 282 557 q 310 475 293 521 l 310 475 q 342 397 328 431 l 342 397 q 363 350 356 364 l 363 350 q 376 321 369 335 l 376 321 q 399 267 383 306 l 399 267 q 418 217 414 231 l 418 217 q 428 189 424 201 l 428 189 q 442 147 432 176 q 457 106 453 117 l 457 106 q 468 72 461 93 l 468 72 q 482 26 475 51 l 482 26 q 492 -10 488 3 l 492 -10 l 496 -24 q 492 -53 500 -39 q 470 -71 485 -67 q 442 -67 456 -75 q 424 -44 428 -60 l 424 -44 l 419 -31 q 410 7 415 -17 l 410 7 q 397 49 403 31 l 397 49 q 386 79 390 68 l 386 79 q 372 122 382 92 q 357 165 361 153 l 357 165 q 349 190 353 178 l 349 190 q 329 239 343 203 l 329 239 q 308 289 315 275 l 308 289 q 294 317 301 303 l 294 317 q 272 368 288 333 l 272 368 q 240 449 258 403 l 240 449 q 210 533 222 494 l 210 533 q 189 600 197 571 l 189 600 q 168 664 181 628 q 149 715 156 700 l 149 715 q 126 767 143 732 l 126 767 q 106 813 110 803 l 106 813 q 93 842 100 825 l 93 842 q 79 881 83 861 l 79 881 l 75 897 q 79 925 71 911 z "},"]":{"ha":361,"x_min":74,"x_max":289,"o":"m 90 843 q 74 867 78 851 q 80 895 71 882 q 104 911 89 908 l 104 911 l 117 914 q 146 918 132 917 l 146 918 q 169 919 158 918 q 203 918 181 919 l 203 918 q 242 914 228 917 l 242 914 q 268 894 260 908 q 275 867 276 879 q 272 847 274 854 l 272 847 q 269 826 269 833 l 269 826 q 272 799 271 815 l 272 799 q 274 769 274 781 l 274 769 q 276 731 275 757 l 276 731 q 279 692 278 703 l 279 692 q 281 667 279 679 l 281 667 q 281 622 281 654 q 279 576 281 590 l 279 576 q 278 550 279 564 l 278 550 q 276 511 278 538 q 275 465 275 485 l 275 465 q 275 431 275 444 l 275 431 q 274 390 275 417 l 274 390 q 272 347 274 365 l 272 347 q 272 315 272 329 l 272 315 q 272 283 272 304 l 272 283 q 274 244 272 261 l 274 244 q 276 203 275 226 l 276 203 q 278 168 278 179 l 278 168 q 278 136 278 157 l 278 136 q 278 101 278 115 q 279 67 279 86 l 279 67 q 280 39 279 47 q 281 17 281 31 q 282 -14 281 4 l 282 -14 q 285 -56 282 -31 l 285 -56 q 288 -99 288 -82 l 288 -99 q 289 -126 289 -114 l 289 -126 q 288 -154 289 -140 l 288 -154 q 285 -183 288 -169 l 285 -183 q 253 -228 281 -214 l 253 -228 q 207 -235 231 -239 l 207 -235 q 179 -231 196 -233 l 179 -231 q 147 -228 163 -228 l 147 -228 l 131 -226 q 105 -214 115 -225 q 95 -187 94 -203 q 108 -161 96 -172 q 135 -151 119 -150 l 135 -151 l 151 -153 q 190 -156 171 -153 l 190 -156 q 213 -160 201 -158 l 213 -160 q 213 -151 213 -156 l 213 -151 q 214 -126 214 -139 q 213 -101 214 -114 l 213 -101 q 210 -62 213 -89 l 210 -62 q 207 -17 207 -35 l 207 -17 q 206 14 206 1 l 206 14 q 206 36 206 28 l 206 36 q 204 65 204 40 l 204 65 q 203 100 204 85 q 203 136 203 115 l 203 136 q 203 167 203 157 l 203 167 q 201 199 203 176 l 201 199 q 199 239 200 222 l 199 239 q 197 282 197 257 l 197 282 q 197 318 197 306 l 197 318 q 197 349 197 329 l 197 349 q 200 394 199 368 l 200 394 q 200 432 200 419 l 200 432 q 200 465 200 444 l 200 465 q 201 513 200 485 q 203 554 203 542 l 203 554 q 204 581 204 567 l 204 581 q 206 622 206 592 l 206 622 q 206 665 206 654 l 206 665 q 204 686 204 675 l 204 686 q 201 726 203 697 l 201 726 q 199 765 200 753 l 199 765 q 197 793 199 775 l 197 793 q 194 822 196 811 l 194 822 q 196 843 194 832 l 196 843 q 171 843 179 844 l 171 843 q 150 843 161 843 l 150 843 q 132 840 142 842 l 132 840 l 118 838 q 90 843 103 835 z "},"^":{"ha":743,"x_min":74,"x_max":669,"o":"m 109 305 q 83 317 93 306 q 74 344 72 329 q 86 371 75 360 l 86 371 l 101 385 q 121 411 111 393 l 121 411 q 140 454 133 436 l 140 454 q 177 528 149 471 q 218 607 206 585 l 218 607 q 250 669 229 629 l 250 669 q 281 736 269 710 l 281 736 q 300 790 292 763 l 300 790 q 310 825 308 814 l 310 825 q 325 855 313 849 q 353 855 338 861 q 380 842 368 849 q 392 832 392 835 l 392 832 q 407 801 401 811 q 428 766 413 792 q 457 719 443 740 l 457 719 q 496 657 474 696 l 496 657 q 532 597 521 619 l 532 597 q 556 553 544 575 l 556 553 q 593 479 565 532 l 593 479 q 629 410 619 426 l 629 410 q 651 368 638 393 l 651 368 l 665 343 q 669 315 674 331 q 652 292 665 300 q 624 289 639 285 q 601 306 608 293 l 601 306 l 586 331 q 563 375 572 357 l 563 375 q 526 444 553 392 q 489 519 500 497 l 489 519 q 467 561 478 540 l 467 561 q 433 618 456 582 l 433 618 q 394 678 410 654 l 394 678 q 363 728 379 701 l 363 728 q 360 733 363 731 l 360 733 q 350 707 356 719 l 350 707 q 317 636 338 678 l 317 636 q 283 572 296 594 l 283 572 q 244 494 272 550 q 208 422 217 439 q 188 379 200 404 l 188 379 q 151 328 172 347 l 151 328 l 136 314 q 109 305 125 304 z "},"_":{"ha":815,"x_min":74,"x_max":743,"o":"m 82 -150 q 74 -122 72 -137 q 88 -97 75 -107 q 115 -89 100 -87 l 115 -89 l 126 -90 q 150 -94 139 -92 l 150 -94 q 178 -96 158 -96 l 178 -96 q 214 -97 200 -97 l 214 -97 q 256 -98 229 -99 q 301 -97 282 -97 l 301 -97 q 342 -97 317 -97 l 342 -97 q 403 -93 361 -96 l 403 -93 q 467 -89 446 -90 q 520 -87 489 -87 q 570 -86 551 -86 q 622 -87 589 -86 l 622 -87 q 669 -87 654 -87 l 669 -87 q 696 -87 686 -87 l 696 -87 l 706 -87 q 732 -100 721 -89 q 743 -126 743 -111 q 732 -153 743 -142 q 706 -162 721 -164 l 706 -162 l 696 -162 q 669 -162 686 -162 l 669 -162 q 621 -162 646 -162 l 621 -162 q 570 -161 589 -161 q 522 -162 551 -161 q 471 -164 492 -162 q 408 -168 450 -165 l 408 -168 q 343 -172 365 -171 l 343 -172 q 303 -172 321 -172 l 303 -172 q 256 -173 283 -172 q 214 -172 229 -174 l 214 -172 q 174 -171 197 -172 l 174 -171 q 136 -168 149 -169 l 136 -168 q 118 -165 128 -165 l 118 -165 l 107 -164 q 82 -150 92 -162 z "},"`":{"ha":358,"x_min":74,"x_max":286,"o":"m 74 920 q 84 947 74 936 q 110 958 94 958 q 138 949 126 958 l 138 949 l 147 939 q 175 907 158 928 l 175 907 q 197 879 186 892 l 197 879 q 222 847 208 864 l 222 847 q 243 821 235 831 l 243 821 q 267 788 253 808 l 267 788 l 281 768 q 285 740 289 756 q 269 717 282 725 q 242 711 257 708 q 218 726 226 714 l 218 726 l 204 746 q 186 772 193 764 l 186 772 q 163 801 176 783 q 140 831 149 818 l 140 831 q 117 860 131 842 l 117 860 q 94 885 103 876 l 94 885 l 85 894 q 74 920 74 904 z "},"a":{"ha":708,"x_min":74,"x_max":633,"o":"m 547 203 l 547 203 q 533 226 540 215 l 533 226 q 511 258 524 242 l 511 258 q 460 308 500 274 l 460 308 q 413 344 424 340 l 413 344 q 376 346 403 349 l 376 346 q 325 333 347 343 l 325 333 q 287 315 300 324 q 263 296 274 306 l 263 296 q 236 264 253 289 l 236 264 q 214 228 218 239 l 214 228 q 206 196 210 215 l 206 196 q 204 165 203 176 l 204 165 q 213 129 204 154 l 213 129 q 229 94 221 106 l 229 94 q 250 75 240 81 l 250 75 q 271 62 260 68 q 307 47 282 56 l 307 47 q 346 40 329 40 l 346 40 q 376 44 364 40 l 376 44 q 405 54 390 47 q 435 71 419 61 l 435 71 q 481 113 447 79 l 481 113 q 519 157 513 147 l 519 157 q 532 178 526 168 l 532 178 q 547 203 539 188 z m 629 181 l 613 165 q 597 140 603 150 l 597 140 q 582 115 592 129 l 582 115 q 535 60 572 100 l 535 60 q 475 7 496 19 l 475 7 q 435 -15 456 -6 q 396 -29 415 -24 l 396 -29 q 347 -35 375 -35 l 347 -35 q 283 -24 318 -36 l 283 -24 q 235 -5 251 -14 q 204 15 219 4 l 204 15 q 172 47 189 26 l 172 47 q 142 106 153 69 l 142 106 q 129 161 131 140 l 129 161 q 132 208 128 181 l 132 208 q 144 254 138 235 l 144 254 q 174 307 151 274 l 174 307 q 214 354 196 339 l 214 354 q 247 378 229 367 q 294 403 265 389 l 294 403 q 369 421 328 417 l 369 421 q 439 415 413 425 l 439 415 q 513 363 463 407 l 513 363 q 500 406 504 389 l 500 406 q 476 465 492 429 l 476 465 q 447 519 460 500 l 447 519 q 419 553 435 539 l 419 553 q 372 583 407 565 q 313 607 338 601 l 313 607 q 268 613 285 611 l 268 613 q 235 611 251 613 l 235 611 q 185 594 221 610 l 185 594 q 150 576 158 583 l 150 576 l 142 565 q 118 550 133 553 q 90 556 103 547 q 74 581 76 565 q 81 608 71 596 l 81 608 l 89 621 q 156 664 104 643 l 156 664 q 228 686 203 683 l 228 686 q 271 688 249 688 l 271 688 q 328 681 293 686 l 328 681 q 408 650 364 674 q 472 606 451 626 l 472 606 q 510 561 492 586 l 510 561 q 544 496 526 536 l 544 496 q 571 428 563 456 l 571 428 q 593 353 579 401 l 593 353 q 613 285 607 304 l 613 285 q 625 243 619 265 q 633 213 631 221 l 633 213 l 633 211 q 629 181 640 200 l 629 181 z "},"b":{"ha":621,"x_min":74,"x_max":549,"o":"m 133 928 q 161 935 146 938 q 185 919 176 932 q 192 890 194 906 l 192 890 l 188 869 q 178 819 183 849 l 178 819 q 172 779 174 794 l 172 779 q 169 736 171 761 q 168 682 168 711 q 168 631 168 653 q 170 577 168 608 q 174 506 172 546 l 174 506 q 175 468 175 486 l 175 468 q 182 469 179 468 l 182 469 q 218 474 196 472 l 218 474 q 267 476 240 476 l 267 476 q 333 468 297 478 l 333 468 q 399 443 371 458 l 399 443 q 443 413 425 428 l 443 413 q 481 375 460 399 l 481 375 q 517 324 501 350 l 517 324 q 540 263 532 294 l 540 263 q 549 214 549 231 l 549 214 q 547 176 549 201 l 547 176 q 540 129 544 149 q 524 85 535 110 l 524 85 q 493 32 513 58 l 493 32 q 458 -7 472 4 l 458 -7 q 422 -26 446 -15 l 422 -26 q 375 -44 397 -39 l 375 -44 q 326 -49 354 -49 l 326 -49 q 271 -43 297 -50 l 271 -43 q 231 -28 244 -36 q 194 1 218 -21 l 194 1 q 156 42 171 22 l 156 42 q 151 49 154 46 l 151 49 q 150 29 150 36 l 150 29 l 149 19 q 134 -6 146 4 q 107 -13 122 -15 q 82 1 92 -11 q 74 29 72 14 l 74 29 l 75 38 q 78 65 76 46 l 78 65 q 80 96 79 86 q 83 128 81 106 l 83 128 q 90 181 86 150 l 90 181 q 97 238 94 210 l 97 238 q 101 281 100 265 l 101 281 q 101 331 101 294 l 101 331 q 101 383 101 368 l 101 383 q 101 431 101 399 l 101 431 q 99 501 101 463 l 99 501 q 95 574 97 540 q 93 629 93 607 l 93 629 q 93 683 93 653 q 94 740 93 714 l 94 740 q 99 785 97 767 l 99 785 q 104 833 100 803 l 104 833 q 114 882 110 861 l 114 882 l 118 904 q 133 928 121 919 z m 167 183 l 167 183 q 176 164 175 175 l 176 164 l 179 153 q 185 138 181 147 l 185 138 q 197 115 190 125 q 217 88 204 104 l 217 88 q 246 56 228 72 l 246 56 q 268 38 263 40 q 290 29 274 35 l 290 29 q 325 26 306 25 l 325 26 q 358 29 344 26 l 358 29 q 389 40 372 32 l 389 40 q 414 54 407 50 l 414 54 q 432 76 419 60 l 432 76 q 456 115 447 96 l 456 115 q 467 148 464 135 q 472 181 471 161 l 472 181 q 474 214 474 203 l 474 214 q 467 244 474 221 l 467 244 q 450 288 461 267 l 450 288 q 424 326 439 307 l 424 326 q 394 356 407 344 l 394 356 q 361 378 382 367 l 361 378 q 315 396 342 388 l 315 396 q 268 401 288 403 l 268 401 q 225 400 244 401 l 225 400 q 197 396 207 397 l 197 396 q 182 390 192 394 l 182 390 l 176 388 q 176 385 176 386 q 176 383 176 383 l 176 383 q 176 331 176 368 l 176 331 q 176 275 176 292 l 176 275 q 172 231 175 260 l 172 231 q 167 183 169 208 z "},"c":{"ha":658,"x_min":74,"x_max":583,"o":"m 572 571 q 569 542 576 556 q 547 525 563 529 q 519 528 532 521 l 519 528 l 508 533 q 485 546 499 539 l 485 546 q 451 561 472 551 l 451 561 q 421 572 431 569 l 421 572 q 397 576 410 575 l 397 576 q 367 578 386 578 l 367 578 q 336 575 349 578 l 336 575 q 311 568 324 572 l 311 568 q 275 547 300 564 l 275 547 q 236 515 250 532 l 236 515 q 210 485 219 497 l 210 485 q 193 456 201 471 l 193 456 q 170 395 186 442 q 151 333 154 349 l 151 333 q 149 297 150 315 q 150 263 149 279 l 150 263 q 157 222 151 246 l 157 222 q 179 168 164 197 l 179 168 q 204 125 194 138 q 225 101 214 113 l 225 101 q 254 82 235 93 l 254 82 q 306 65 274 72 l 306 65 q 354 58 339 60 l 354 58 q 389 58 372 58 l 389 58 q 424 64 403 60 l 424 64 q 460 81 442 68 l 460 81 q 483 100 478 94 l 483 100 q 496 117 490 108 l 496 117 q 507 138 501 125 l 507 138 l 514 151 q 536 169 521 165 q 565 167 551 174 q 583 145 578 160 q 581 117 588 131 l 581 117 l 574 103 q 558 75 565 86 l 558 75 q 542 53 550 64 l 542 53 q 501 19 529 39 l 501 19 q 442 -8 472 -1 l 442 -8 q 392 -17 414 -15 l 392 -17 q 353 -17 372 -17 l 353 -17 q 292 -8 331 -15 l 292 -8 q 219 15 249 0 l 219 15 q 174 47 190 31 l 174 47 q 144 79 157 61 q 111 135 131 97 l 111 135 q 85 203 93 171 l 85 203 q 75 257 76 233 l 75 257 q 74 300 74 278 q 78 344 75 322 l 78 344 q 99 419 81 367 q 126 492 117 472 l 126 492 q 149 526 138 510 l 149 526 q 181 565 161 544 l 181 565 q 235 610 201 589 l 235 610 q 286 638 267 631 l 286 638 q 321 649 303 644 l 321 649 q 365 653 339 651 l 365 653 q 407 651 390 653 l 407 651 q 439 646 422 649 l 439 646 q 481 631 456 640 l 481 631 q 519 613 504 619 l 519 613 q 544 599 533 606 l 544 599 l 554 593 q 572 571 568 586 z "},"d":{"ha":675,"x_min":75,"x_max":600,"o":"m 599 31 q 579 10 593 17 q 551 10 565 4 q 531 31 536 17 l 531 31 l 526 40 q 522 53 524 47 l 522 53 q 503 25 514 40 l 503 25 q 471 -14 486 3 l 471 -14 q 433 -46 453 -35 l 433 -46 q 400 -58 415 -54 l 400 -58 q 363 -64 385 -62 l 363 -64 q 328 -61 342 -64 l 328 -61 q 307 -57 318 -60 l 307 -57 q 269 -44 296 -53 l 269 -44 q 211 -14 240 -33 l 211 -14 q 158 35 179 8 l 158 35 q 133 72 140 58 l 133 72 q 117 111 126 85 l 117 111 q 94 174 107 136 l 94 174 q 76 272 82 214 l 76 272 q 79 378 69 332 l 79 378 q 108 457 89 425 l 108 457 q 153 510 129 489 q 214 546 178 531 l 214 546 q 286 564 251 561 l 286 564 q 331 567 315 567 l 331 567 q 389 556 349 567 l 389 556 q 444 536 428 546 l 444 536 q 490 506 460 529 l 490 506 q 496 501 493 504 l 496 501 q 492 556 494 532 l 492 556 q 489 613 490 581 l 489 613 q 488 661 488 644 l 488 661 q 487 699 488 676 q 486 750 486 721 l 486 750 q 485 792 485 779 l 485 792 q 482 833 483 804 l 482 833 q 481 871 482 863 l 481 871 q 481 892 481 881 l 481 892 l 479 904 q 490 931 479 919 q 515 943 500 942 q 542 934 531 944 q 554 908 554 924 l 554 908 l 556 896 q 556 874 556 883 l 556 874 q 557 836 557 865 l 557 836 q 560 794 558 806 l 560 794 q 561 753 560 782 l 561 753 q 562 701 561 724 q 563 661 563 678 l 563 661 q 564 615 563 646 l 564 615 q 567 561 565 585 l 567 561 q 572 502 569 536 q 574 451 574 468 q 575 417 574 435 l 575 417 q 575 386 575 407 l 575 386 l 578 378 q 575 344 585 360 l 575 344 q 575 297 575 311 l 575 297 q 576 265 576 282 l 576 265 q 578 214 576 249 q 582 167 581 179 l 582 167 q 583 143 582 154 l 583 143 q 589 103 585 132 l 589 103 q 594 69 593 76 l 594 69 l 599 60 q 599 31 606 46 z m 500 371 l 500 371 q 481 407 493 386 l 481 407 q 446 446 469 428 l 446 446 q 410 471 421 464 l 410 471 q 369 483 400 475 l 369 483 q 331 492 339 492 l 331 492 q 292 489 318 492 l 292 489 q 243 476 269 488 l 243 476 q 201 452 217 465 q 172 418 186 439 l 172 418 q 153 363 160 396 l 153 363 q 150 279 146 328 l 150 279 q 165 196 156 229 l 165 196 q 186 138 178 161 l 186 138 q 199 107 194 117 l 199 107 q 218 81 204 99 l 218 81 q 253 49 231 64 l 253 49 q 294 26 275 33 l 294 26 q 326 17 318 18 l 326 17 q 343 13 335 14 l 343 13 q 361 11 349 11 l 361 11 q 381 14 374 11 l 381 14 q 399 21 389 15 l 399 21 q 415 35 406 25 l 415 35 q 443 69 428 50 l 443 69 q 464 103 457 89 q 475 131 471 117 l 475 131 q 482 154 481 146 l 482 154 q 483 165 483 160 l 483 165 l 483 175 q 504 208 483 197 l 504 208 q 504 210 504 208 l 504 210 q 501 263 503 246 l 501 263 q 500 294 501 279 l 500 294 q 500 357 500 313 l 500 357 q 500 371 500 364 z "},"e":{"ha":650,"x_min":74,"x_max":576,"o":"m 167 393 l 167 393 q 186 392 176 393 l 186 392 q 232 390 197 392 q 282 389 267 389 l 282 389 q 312 390 297 389 q 365 397 326 392 l 365 397 q 415 404 404 401 q 447 415 426 407 l 447 415 q 471 425 465 422 l 471 425 q 482 438 475 429 l 482 438 q 492 453 488 443 l 492 453 q 497 471 496 465 l 497 471 q 493 496 497 476 l 493 496 q 486 521 489 515 l 486 521 q 469 539 482 526 l 469 539 q 444 558 457 553 l 444 558 q 417 570 429 567 q 378 576 406 574 l 378 576 q 333 578 351 581 l 333 578 q 294 567 317 576 q 261 553 271 558 l 261 553 q 234 528 251 546 q 200 479 217 510 l 200 479 q 178 433 182 447 l 178 433 q 167 393 174 422 z m 85 376 l 85 376 q 90 400 88 388 l 90 400 q 107 460 100 442 l 107 460 q 135 515 114 478 l 135 515 q 181 579 157 554 l 181 579 q 218 614 203 603 l 218 614 q 267 638 235 626 l 267 638 q 326 653 299 650 l 326 653 q 388 651 353 656 l 388 651 q 440 642 422 647 q 478 626 457 636 l 478 626 q 522 593 501 614 l 522 593 q 551 557 544 571 l 551 557 q 567 511 560 543 l 567 511 q 572 464 574 479 q 563 426 571 449 l 563 426 q 539 386 553 403 l 539 386 q 514 364 525 372 l 514 364 q 474 344 501 356 l 474 344 q 433 332 449 336 q 375 322 418 328 l 375 322 q 317 315 335 317 q 282 314 300 314 l 282 314 q 230 315 267 314 q 182 317 193 317 q 161 318 171 318 l 161 318 q 151 318 157 318 l 151 318 q 149 297 150 307 l 149 297 q 151 245 147 283 q 157 194 154 207 l 157 194 q 165 167 160 181 l 165 167 q 183 128 169 154 l 183 128 q 207 92 196 104 l 207 92 q 231 69 221 76 l 231 69 q 264 51 239 63 l 264 51 q 308 33 289 39 l 308 33 q 354 26 328 28 l 354 26 q 392 25 382 24 l 392 25 q 424 35 400 25 l 424 35 q 451 47 444 43 l 451 47 q 464 60 458 53 q 479 88 469 68 l 479 88 q 493 120 489 108 q 500 142 497 132 l 500 142 l 503 153 q 519 176 506 168 q 547 182 532 185 q 571 166 563 179 q 576 138 579 153 l 576 138 l 574 125 q 564 95 569 111 q 546 54 558 79 l 546 54 q 523 15 533 28 q 500 -10 513 1 l 500 -10 q 451 -36 486 -22 l 451 -36 q 399 -50 417 -49 l 399 -50 q 349 -49 382 -51 l 349 -49 q 288 -39 314 -46 l 288 -39 q 232 -17 261 -31 l 232 -17 q 185 10 200 -1 l 185 10 q 153 40 171 21 l 153 40 q 117 94 133 61 l 117 94 q 94 143 100 125 l 94 143 q 83 176 88 160 l 83 176 q 76 239 79 194 q 74 303 72 283 l 74 303 q 78 339 75 321 l 78 339 q 79 347 78 343 l 79 347 q 79 354 79 351 l 79 354 q 85 376 78 365 z "},"f":{"ha":521,"x_min":74,"x_max":449,"o":"m 87 589 q 74 614 75 599 q 83 641 72 629 q 108 654 93 653 l 108 654 l 131 656 q 183 658 154 658 l 183 658 q 203 658 194 658 l 203 658 q 215 717 207 682 l 215 717 q 240 788 228 763 l 240 788 q 276 836 254 813 l 276 836 q 313 867 299 858 q 354 886 326 876 l 354 886 q 394 896 381 894 l 394 896 l 406 897 q 433 890 421 900 q 448 865 446 881 q 440 838 450 850 q 415 824 431 825 l 415 824 l 404 822 q 378 814 397 821 l 378 814 q 352 804 358 808 q 331 785 346 800 l 331 785 q 307 753 315 768 l 307 753 q 289 699 299 735 l 289 699 q 279 656 282 674 l 279 656 q 300 656 290 656 l 300 656 l 319 656 q 346 644 335 656 q 358 618 357 633 q 347 592 358 603 q 321 581 336 581 l 321 581 l 301 581 q 268 581 286 581 l 268 581 q 263 474 265 551 q 260 367 260 396 q 261 272 260 338 l 261 272 q 261 185 261 207 l 261 185 q 261 129 261 164 l 261 129 q 257 64 261 93 l 257 64 l 254 38 q 239 13 251 22 q 211 5 226 3 q 187 19 196 7 q 179 47 178 32 l 179 47 l 183 74 q 186 131 186 99 l 186 131 q 186 185 186 164 l 186 185 q 186 272 186 207 l 186 272 q 185 367 185 338 l 185 367 q 188 476 185 397 l 188 476 q 193 583 190 551 l 193 583 q 183 583 189 583 l 183 583 q 136 582 158 583 l 136 582 l 114 579 q 87 589 99 579 z "},"g":{"ha":694,"x_min":74,"x_max":622,"o":"m 519 363 l 519 363 q 501 389 504 372 l 501 389 l 497 421 q 482 467 494 446 l 482 467 q 457 502 471 489 q 422 526 443 515 q 393 538 401 536 l 393 538 q 349 543 381 539 l 349 543 q 310 546 318 546 l 310 546 q 288 539 303 546 l 288 539 q 257 525 269 532 l 257 525 q 238 510 244 517 l 238 510 q 218 486 232 506 l 218 486 q 190 435 204 465 l 190 435 q 172 389 176 403 l 172 389 q 160 349 167 376 l 160 349 q 150 292 153 322 l 150 292 q 150 240 147 263 l 150 240 q 174 186 154 221 l 174 186 q 201 146 193 154 l 201 146 q 219 131 211 138 l 219 131 q 256 114 228 125 l 256 114 q 289 100 281 101 l 289 100 q 318 100 297 99 l 318 100 q 349 103 339 101 l 349 103 q 385 115 358 106 l 385 115 q 415 128 408 124 l 415 128 q 443 153 421 132 l 443 153 q 472 185 465 175 l 472 185 q 485 206 479 194 q 503 243 492 217 l 503 243 q 518 288 514 269 l 518 288 q 519 293 518 289 l 519 293 q 519 342 518 321 l 519 342 q 519 363 519 350 z m 558 482 l 558 482 q 587 473 578 481 q 596 458 596 465 l 596 458 l 594 453 q 601 410 599 439 l 601 410 q 603 368 603 382 q 600 324 603 354 l 600 324 q 594 288 597 304 l 594 288 q 596 260 596 269 l 596 260 q 600 215 596 249 l 600 215 q 606 169 604 183 l 606 169 q 613 126 608 156 l 613 126 q 618 74 617 97 q 621 22 619 51 l 621 22 q 621 -24 621 -8 l 621 -24 q 618 -75 621 -40 l 618 -75 q 608 -137 615 -111 l 608 -137 q 600 -174 603 -162 l 600 -174 q 581 -212 594 -187 l 581 -212 q 542 -260 565 -239 l 542 -260 q 488 -293 517 -281 l 488 -293 q 453 -306 464 -301 l 453 -306 q 421 -311 442 -308 l 421 -311 q 368 -315 397 -315 l 368 -315 q 325 -312 339 -314 l 325 -312 q 289 -303 313 -310 l 289 -303 q 247 -287 265 -296 l 247 -287 q 211 -267 231 -279 l 211 -267 q 169 -233 190 -254 l 169 -233 q 135 -185 149 -212 l 135 -185 q 117 -142 121 -158 l 117 -142 q 113 -112 114 -128 l 113 -112 l 113 -101 q 122 -74 111 -86 q 149 -62 133 -62 q 175 -72 164 -61 q 188 -97 186 -82 l 188 -97 l 188 -108 q 190 -126 189 -118 l 190 -126 q 201 -150 192 -132 l 201 -150 q 222 -181 210 -168 l 222 -181 q 251 -204 238 -194 l 251 -204 q 279 -219 267 -214 l 279 -219 q 310 -231 292 -225 l 310 -231 q 338 -237 329 -236 l 338 -237 q 369 -240 346 -239 q 408 -237 392 -240 l 408 -237 q 433 -232 426 -235 l 433 -232 q 461 -222 440 -231 l 461 -222 q 492 -203 476 -217 l 492 -203 q 515 -175 507 -190 l 515 -175 q 528 -151 526 -157 l 528 -151 q 536 -121 531 -142 l 536 -121 q 543 -68 540 -100 l 543 -68 q 546 -24 546 -36 l 546 -24 q 546 19 546 -8 l 546 19 q 543 68 544 47 q 538 117 542 89 l 538 117 q 535 142 536 131 l 535 142 q 533 140 533 140 l 533 140 q 494 100 522 125 l 494 100 q 456 65 468 74 l 456 65 q 410 44 442 57 l 410 44 q 364 31 379 33 l 364 31 q 321 25 349 26 l 321 25 q 276 26 293 24 l 276 26 q 225 44 260 29 l 225 44 q 176 69 192 60 l 176 69 q 151 90 164 79 l 151 90 q 110 149 136 103 l 110 149 q 76 229 82 194 l 76 229 q 75 299 72 260 l 75 299 q 88 368 78 336 l 88 368 q 101 415 96 400 l 101 415 q 122 465 107 431 l 122 465 q 156 528 139 501 l 156 528 q 188 567 175 556 l 188 567 q 217 588 199 576 l 217 588 q 261 610 235 600 l 261 610 q 306 621 288 619 l 306 621 q 357 618 321 622 l 357 618 q 406 611 390 614 l 406 611 q 456 593 425 608 q 508 556 486 578 q 549 503 531 535 l 549 503 q 558 482 554 493 z "},"h":{"ha":628,"x_min":74,"x_max":556,"o":"m 169 460 l 169 460 l 169 453 q 174 364 174 394 l 174 364 q 176 294 175 342 l 176 294 q 200 360 186 326 l 200 360 q 228 429 219 410 l 228 429 q 256 479 236 449 l 256 479 q 292 529 275 513 l 292 529 q 338 560 311 549 l 338 560 q 382 569 364 569 l 382 569 q 421 556 400 568 q 463 514 442 544 l 463 514 q 486 472 479 489 l 486 472 q 510 408 494 456 l 510 408 q 532 317 525 360 l 532 317 q 542 255 539 275 q 549 188 544 235 l 549 188 q 554 119 554 138 l 554 119 q 556 75 554 101 l 556 75 q 554 32 556 47 l 554 32 l 553 19 q 538 -6 550 4 q 511 -13 526 -15 q 486 1 496 -11 q 478 29 476 14 l 478 29 l 479 40 q 481 74 481 50 l 481 74 q 479 118 479 100 l 479 118 q 474 179 479 133 l 474 179 q 467 245 469 226 q 458 304 465 264 l 458 304 q 438 385 451 342 l 438 385 q 418 440 424 428 l 418 440 q 400 472 413 453 l 400 472 q 383 490 390 488 l 383 490 q 378 493 381 493 l 378 493 q 365 490 372 493 l 365 490 q 346 476 354 485 l 346 476 q 319 440 335 465 l 319 440 q 296 397 303 414 l 296 397 q 269 333 288 381 l 269 333 q 240 246 251 286 l 240 246 q 224 186 229 206 l 224 186 q 208 124 218 168 l 208 124 q 198 67 200 81 q 194 32 196 53 l 194 32 q 194 24 194 28 q 193 8 194 19 q 186 -9 192 -4 q 169 -18 181 -14 q 139 -10 158 -22 l 139 -10 q 117 8 122 -1 q 114 21 111 17 l 114 21 l 117 26 q 98 44 104 32 q 94 69 92 57 l 94 69 l 99 82 q 101 117 100 93 l 101 117 q 103 197 103 143 l 103 197 q 101 280 103 253 q 97 369 100 307 l 97 369 q 94 456 96 421 l 94 456 q 88 554 90 507 l 88 554 q 81 656 85 601 l 81 656 q 75 732 76 711 l 75 732 q 74 785 74 756 l 74 785 q 78 791 75 788 q 91 803 82 794 q 108 818 100 813 q 126 827 117 824 q 142 826 135 831 q 150 807 149 821 l 150 807 q 157 746 154 792 l 157 746 q 163 676 161 701 l 163 676 q 164 594 163 664 l 164 594 q 168 486 165 536 l 168 486 q 169 473 168 482 q 169 460 169 464 z "},"i":{"ha":258,"x_min":74,"x_max":186,"o":"m 111 775 l 111 775 q 74 803 76 776 l 74 803 q 78 829 72 819 l 78 829 q 78 840 76 835 l 78 840 q 97 868 81 860 l 97 868 q 107 886 100 879 l 107 886 q 133 897 118 897 q 160 886 149 897 l 160 886 l 164 882 q 172 842 181 865 l 172 842 q 176 826 176 835 l 176 826 q 171 794 181 810 q 147 774 161 778 l 147 774 q 111 775 131 767 z m 172 19 q 144 9 160 8 q 119 21 129 10 q 108 47 108 32 l 108 47 l 110 61 q 110 108 110 75 q 110 163 110 142 l 110 163 q 108 217 110 182 l 108 217 q 104 301 107 253 l 104 301 q 99 394 100 351 l 99 394 q 94 466 96 439 q 89 521 92 493 l 89 521 q 85 561 86 550 l 85 561 q 82 579 85 569 l 82 579 l 81 592 q 87 619 78 607 q 111 635 96 632 q 140 628 126 638 q 154 604 153 619 l 154 604 l 157 592 q 160 567 158 578 l 160 567 q 164 529 160 557 l 164 529 q 169 472 167 500 q 174 399 171 444 l 174 399 q 178 306 175 356 q 183 220 182 256 q 185 164 185 185 l 185 164 q 185 108 185 143 q 185 58 185 74 l 185 58 l 183 44 q 172 19 183 29 z "},"j":{"ha":417,"x_min":74,"x_max":344,"o":"m 221 825 l 221 825 q 246 853 225 844 l 246 853 q 283 874 258 878 l 283 874 q 308 858 299 871 q 315 832 318 846 l 315 832 l 314 821 q 297 790 313 804 q 260 779 281 776 l 260 779 l 251 781 q 227 797 236 783 q 221 825 218 810 z m 210 591 q 228 613 214 606 q 256 617 242 621 q 279 599 271 613 l 279 599 l 286 588 q 299 546 296 568 l 299 546 q 303 511 300 531 l 303 511 q 308 451 304 492 l 308 451 q 315 385 313 411 l 315 385 l 321 329 q 329 253 324 300 l 329 253 q 339 140 335 206 l 339 140 q 344 42 344 76 l 344 42 q 333 -60 344 6 l 333 -60 q 315 -149 324 -125 l 315 -149 q 296 -189 306 -171 l 296 -189 q 254 -231 283 -210 q 200 -256 225 -251 l 200 -256 q 143 -251 174 -261 l 143 -251 q 94 -217 114 -240 l 94 -217 q 74 -168 74 -190 l 74 -168 l 74 -160 q 85 -133 74 -144 q 111 -121 96 -121 q 138 -132 126 -121 q 149 -158 149 -143 l 149 -158 l 149 -164 q 153 -169 150 -167 l 153 -169 q 168 -181 160 -178 l 168 -181 q 185 -182 178 -183 l 185 -182 q 210 -169 194 -181 q 231 -150 226 -158 l 231 -150 q 244 -122 239 -139 l 244 -122 q 260 -47 251 -106 l 260 -47 q 269 42 269 11 l 269 42 q 264 135 269 74 l 264 135 q 254 244 260 197 l 254 244 q 246 322 249 292 l 246 322 l 240 378 q 233 443 238 404 l 233 443 q 228 504 229 483 l 228 504 q 224 538 226 522 l 224 538 q 221 550 224 544 l 221 550 l 214 563 q 210 591 206 576 z "},"k":{"ha":651,"x_min":74,"x_max":579,"o":"m 147 14 q 122 0 138 1 q 94 8 107 -1 q 81 32 82 17 l 81 32 l 79 43 q 76 83 78 54 l 76 83 q 75 136 75 111 l 75 136 q 74 192 75 160 l 74 192 q 74 253 74 224 l 74 253 q 74 296 74 281 l 74 296 q 74 335 74 310 l 74 335 q 75 390 74 358 l 75 390 q 76 440 75 422 l 76 440 q 76 473 76 456 q 78 533 76 490 l 78 533 q 78 613 78 576 l 78 613 q 78 665 78 647 l 78 665 q 79 707 79 682 l 79 707 q 79 747 79 732 q 79 790 79 763 l 79 790 q 78 836 78 819 l 78 836 q 77 862 78 853 q 76 882 76 871 l 76 882 l 76 893 q 86 920 75 908 q 113 933 97 932 q 139 922 128 933 q 151 896 150 911 l 151 896 l 151 885 q 151 864 151 869 l 151 864 q 153 838 153 856 l 153 838 q 154 792 153 822 l 154 792 q 154 747 154 763 q 154 706 154 731 l 154 706 q 153 664 154 682 l 153 664 q 153 613 153 647 q 152 533 153 578 q 151 472 151 489 q 151 438 151 454 l 151 438 q 150 389 150 421 l 150 389 q 149 356 150 371 l 149 356 q 168 371 158 364 l 168 371 q 204 399 182 382 l 204 399 q 256 442 224 415 l 256 442 q 308 488 288 471 l 308 488 q 340 515 329 506 l 340 515 q 374 540 350 522 l 374 540 q 406 568 397 561 l 406 568 q 428 589 414 575 q 458 621 442 603 l 458 621 q 479 646 474 638 l 479 646 l 486 657 q 510 674 494 671 q 538 669 525 678 q 555 646 551 661 q 550 618 558 631 l 550 618 l 543 607 q 514 571 533 593 l 514 571 q 480 535 496 550 q 454 511 464 519 l 454 511 q 421 483 446 504 l 421 483 q 385 454 396 463 l 385 454 q 357 431 376 447 l 357 431 q 306 386 338 414 l 306 386 q 300 381 301 383 l 300 381 q 331 353 315 368 q 360 324 347 338 q 396 281 372 311 l 396 281 q 439 224 419 251 q 472 175 458 197 l 472 175 q 497 138 486 154 l 497 138 q 521 104 508 121 l 521 104 q 544 69 533 86 l 544 69 q 563 43 556 53 l 563 43 l 571 33 q 578 6 581 21 q 565 -19 576 -10 q 537 -27 553 -29 q 513 -14 521 -25 l 513 -14 l 503 -3 q 482 26 494 10 l 482 26 q 459 62 471 44 q 436 96 447 79 l 436 96 q 410 135 424 113 l 410 135 q 378 181 397 154 l 378 181 q 338 233 360 206 l 338 233 q 304 274 314 263 l 304 274 q 278 299 293 285 q 251 324 264 313 l 251 324 q 242 333 246 328 l 242 333 q 214 311 225 321 l 214 311 q 182 286 200 300 l 182 286 q 167 272 171 276 l 167 272 l 161 263 q 149 249 157 253 l 149 249 q 149 192 149 222 l 149 192 q 150 138 150 161 l 150 138 q 151 88 150 115 l 151 88 q 154 53 153 61 l 154 53 l 156 42 q 147 14 157 26 z "},"l":{"ha":238,"x_min":74,"x_max":165,"o":"m 130 13 q 101 8 117 4 q 78 26 86 13 q 75 54 71 39 l 75 54 l 78 65 q 81 81 81 74 l 81 81 q 82 101 82 89 l 82 101 q 82 156 83 114 l 82 156 q 82 220 82 199 q 83 294 82 242 l 83 294 q 85 394 85 347 q 85 475 85 442 l 85 475 q 86 568 85 508 l 86 568 q 89 654 88 628 l 89 654 q 89 714 89 681 q 89 779 89 747 l 89 779 q 88 819 88 810 l 88 819 q 85 843 86 828 l 85 843 l 82 861 q 88 888 79 875 q 113 903 97 901 q 140 897 128 906 q 156 872 153 888 l 156 872 l 158 854 q 163 824 161 835 l 163 824 q 164 781 163 813 l 164 781 q 164 714 164 747 l 164 714 q 163 653 164 681 q 161 567 163 626 q 160 474 160 507 q 160 394 160 442 q 158 293 160 346 l 158 293 q 157 221 157 242 l 157 221 q 157 156 157 200 l 157 156 q 157 97 158 111 l 157 97 q 156 72 157 83 l 156 72 q 150 46 154 61 l 150 46 l 147 35 q 130 13 143 21 z "},"m":{"ha":1038,"x_min":74,"x_max":965,"o":"m 78 647 q 101 664 86 660 q 129 660 115 668 q 147 639 143 653 l 147 639 l 153 619 q 157 561 160 594 l 157 561 q 156 475 156 533 l 156 475 q 154 397 154 418 l 154 397 q 157 353 156 376 l 157 353 q 158 332 157 344 l 158 332 q 171 368 164 347 l 171 368 q 211 462 189 422 q 247 518 233 501 l 247 518 q 289 564 260 535 l 289 564 q 349 613 321 596 l 349 613 q 403 638 376 631 l 403 638 q 451 644 431 646 l 451 644 q 499 631 474 643 l 499 631 q 533 603 522 618 l 533 603 q 560 547 543 589 l 560 547 q 578 486 574 508 l 578 486 q 589 422 582 464 l 589 422 q 594 393 592 407 l 594 393 q 624 457 603 417 l 624 457 q 660 522 647 504 q 693 563 672 539 l 693 563 q 735 599 717 588 l 735 599 q 778 619 753 613 l 778 619 q 846 610 811 628 l 846 610 q 897 561 879 593 l 897 561 q 915 515 910 535 l 915 515 q 928 444 919 497 l 928 444 q 940 365 938 390 q 947 292 942 340 l 947 292 q 954 210 951 243 l 954 210 q 957 143 957 176 l 957 143 q 960 88 958 111 l 960 88 q 963 53 961 64 l 963 53 l 964 42 q 956 15 965 26 q 931 1 946 3 q 903 10 915 0 q 889 35 892 19 l 889 35 l 889 44 q 885 82 888 57 l 885 82 q 882 142 883 107 l 882 142 q 879 206 882 174 l 879 206 q 872 285 876 238 q 865 357 868 332 l 865 357 q 854 432 863 381 q 842 497 846 483 l 842 497 q 831 526 839 508 l 831 526 q 813 543 825 538 l 813 543 q 799 547 803 549 l 799 547 q 778 538 786 544 l 778 538 q 749 511 765 529 l 749 511 q 720 478 729 492 q 690 423 711 465 q 663 363 668 381 l 663 363 q 648 304 657 343 q 633 224 639 265 l 633 224 q 625 167 626 176 l 625 167 q 617 128 622 151 l 617 128 q 608 93 611 104 l 608 93 q 606 92 607 93 q 599 88 604 90 q 590 84 594 86 q 578 80 585 82 q 565 77 571 78 q 554 76 560 76 q 544 78 549 76 q 536 85 539 81 q 533 96 533 89 l 533 96 q 533 108 533 107 q 533 111 532 108 q 536 119 535 114 l 536 119 q 540 149 539 132 l 540 149 q 542 197 542 167 l 542 197 q 536 265 540 228 l 536 265 q 526 338 531 304 l 526 338 q 515 410 522 369 q 504 469 508 451 l 504 469 q 489 521 501 486 l 489 521 q 474 557 479 549 l 474 557 q 463 565 471 560 l 463 565 q 447 569 454 569 l 447 569 q 425 565 440 571 l 425 565 q 388 549 407 561 l 388 549 q 343 511 368 536 l 343 511 q 306 471 315 485 l 306 471 q 277 426 296 460 q 242 343 258 392 l 242 343 q 218 272 224 293 l 218 272 q 206 204 214 254 l 206 204 q 197 135 199 154 q 193 85 194 115 l 193 85 q 192 42 192 54 l 192 42 q 192 35 192 39 q 194 22 193 32 q 191 8 196 13 q 176 -2 186 3 q 146 -1 167 -7 l 146 -1 q 110 15 118 4 q 110 35 103 26 l 110 35 l 115 43 q 113 72 114 60 l 113 72 q 107 125 111 86 q 100 185 103 164 q 90 265 97 207 l 90 265 q 82 349 83 324 l 82 349 q 79 394 81 372 l 79 394 q 81 476 79 417 l 81 476 q 82 565 81 536 l 82 565 q 81 600 83 586 l 81 600 l 75 618 q 78 647 71 633 z "},"n":{"ha":681,"x_min":74,"x_max":608,"o":"m 80 647 q 103 663 89 660 q 131 658 118 667 q 147 635 144 649 l 147 635 l 151 617 q 157 579 156 596 l 157 579 q 160 511 158 564 l 160 511 q 160 431 160 460 l 160 431 q 160 397 160 415 l 160 397 q 165 410 163 404 l 165 410 q 214 506 189 471 l 214 506 q 254 554 240 540 l 254 554 q 308 585 272 569 l 308 585 q 361 600 343 599 l 361 600 q 389 600 375 600 l 389 600 q 438 582 407 599 l 438 582 q 490 529 469 564 l 490 529 q 526 436 508 500 l 526 436 q 551 346 544 376 l 551 346 q 571 253 557 315 l 571 253 q 590 147 583 189 l 590 147 q 600 67 596 107 q 606 14 604 26 l 606 14 q 607 -11 606 3 l 607 -11 l 607 -25 q 598 -51 608 -40 q 572 -63 588 -62 q 545 -53 557 -64 q 532 -28 533 -43 l 532 -28 l 532 -15 q 531 10 531 -1 l 531 10 q 526 60 529 21 l 526 60 q 517 136 522 97 l 517 136 q 497 238 510 176 l 497 238 q 478 329 483 300 l 478 329 q 454 415 471 358 l 454 415 q 426 492 439 469 l 426 492 q 401 515 415 508 l 401 515 q 382 525 389 524 l 382 525 q 367 525 375 525 l 367 525 q 336 514 360 524 l 336 514 q 306 499 313 506 l 306 499 q 275 461 296 490 l 275 461 q 235 383 254 435 l 235 383 q 210 306 214 329 l 210 306 q 200 228 204 282 l 200 228 q 194 135 194 172 l 194 135 q 193 76 194 97 l 193 76 q 190 35 193 53 l 190 35 q 190 28 190 32 q 188 14 190 24 q 179 -1 185 4 q 163 -9 174 -6 q 135 -3 151 -12 l 135 -3 q 121 6 126 1 q 113 15 115 11 q 110 24 111 19 q 110 31 110 28 q 110 33 110 33 l 110 33 q 101 76 104 56 l 101 76 q 94 149 99 97 l 94 149 q 87 246 89 201 q 85 347 85 290 l 85 347 q 85 431 85 401 q 85 511 85 460 l 85 511 q 82 574 83 561 l 82 574 q 78 601 82 585 l 78 601 l 75 619 q 80 647 71 633 z "},"o":{"ha":744,"x_min":75,"x_max":672,"o":"m 444 8 l 444 8 q 418 -7 435 -6 l 418 -7 l 396 -10 q 326 -6 368 -14 l 326 -6 q 250 19 285 1 l 250 19 q 197 53 218 36 l 197 53 q 143 115 175 71 l 143 115 q 99 185 111 158 l 99 185 q 79 282 86 213 l 79 282 q 75 381 71 350 l 75 381 q 98 456 81 408 q 135 536 115 503 q 174 589 156 569 l 174 589 q 232 635 193 608 l 232 635 q 332 671 274 661 l 332 671 q 415 678 389 681 l 415 678 q 488 654 440 674 l 488 654 q 556 619 533 635 q 602 576 578 604 q 638 524 626 547 l 638 524 q 661 446 650 499 l 661 446 q 671 351 672 394 l 671 351 q 667 283 671 311 l 667 283 q 649 207 664 256 l 649 207 q 614 125 633 157 l 614 125 q 558 63 593 92 l 558 63 q 503 24 524 33 l 503 24 q 444 8 483 15 z m 278 89 l 278 89 q 314 94 294 101 l 314 94 l 335 86 q 372 78 351 81 l 372 78 q 426 81 392 76 q 471 92 460 86 l 471 92 q 510 119 483 97 l 510 119 q 550 164 536 140 l 550 164 q 576 229 564 188 l 576 229 q 593 293 590 272 l 593 293 q 596 353 596 315 l 596 353 q 588 431 596 388 l 588 431 q 571 489 579 474 l 571 489 q 544 527 563 506 q 512 559 526 549 q 458 585 497 569 l 458 585 q 404 603 421 600 l 404 603 q 344 597 389 604 l 344 597 q 274 571 303 590 l 274 571 q 229 538 242 550 l 229 538 q 200 497 217 524 q 168 429 183 469 q 150 368 153 389 l 150 368 q 153 290 147 349 l 153 290 q 168 215 160 233 l 168 215 q 203 160 176 196 l 203 160 q 244 111 229 124 l 244 111 q 278 89 257 100 z "},"p":{"ha":753,"x_min":74,"x_max":681,"o":"m 150 215 l 150 215 l 158 203 q 186 183 164 194 l 186 183 q 260 153 211 168 l 260 153 q 327 133 307 136 q 390 128 347 129 l 390 128 q 472 138 429 126 l 472 138 q 528 157 517 150 l 528 157 q 564 193 539 164 l 564 193 q 596 250 588 222 l 596 250 q 604 297 604 281 l 604 297 q 585 374 604 313 l 585 374 q 554 451 564 438 l 554 451 q 515 497 543 468 l 515 497 q 465 539 488 525 l 465 539 q 413 562 444 553 q 369 571 382 571 q 314 557 356 571 l 314 557 q 249 518 275 543 l 249 518 q 210 476 219 493 l 210 476 q 179 400 199 458 l 179 400 q 155 314 158 342 q 150 215 151 286 z m 149 118 l 149 118 q 150 90 149 101 l 150 90 q 157 -1 151 57 l 157 -1 q 168 -118 163 -64 l 168 -118 q 175 -192 174 -172 l 175 -192 q 178 -240 176 -210 l 178 -240 q 179 -279 179 -269 l 179 -279 l 179 -289 q 168 -315 179 -304 q 142 -326 157 -326 q 115 -315 126 -326 q 104 -289 104 -304 l 104 -289 l 104 -279 q 103 -243 104 -271 q 100 -197 101 -215 l 100 -197 q 93 -125 99 -179 l 93 -125 q 82 -10 88 -69 l 82 -10 q 75 88 76 53 l 75 88 q 74 161 74 113 l 74 161 q 74 206 74 181 l 74 206 q 81 324 76 289 l 81 324 q 107 425 85 358 l 107 425 q 146 515 131 492 l 146 515 q 197 574 161 540 l 197 574 q 290 628 235 608 l 290 628 q 367 646 343 646 l 367 646 q 434 635 392 647 q 507 603 476 622 l 507 603 q 568 549 536 583 l 568 549 q 615 494 601 515 l 615 494 q 656 397 632 472 l 656 397 q 679 296 681 322 l 679 296 q 668 231 679 271 l 668 231 q 622 146 656 186 l 622 146 q 567 93 589 107 l 567 93 q 492 65 547 81 l 492 65 q 386 53 438 51 l 386 53 q 314 59 339 54 q 236 82 289 64 l 236 82 q 149 118 182 100 z "},"q":{"ha":858,"x_min":75,"x_max":786,"o":"m 417 -173 q 408 -146 407 -161 q 420 -120 408 -131 q 447 -111 432 -110 l 447 -111 l 476 -112 q 529 -114 504 -114 l 529 -114 q 561 -114 543 -114 l 561 -114 q 558 -82 560 -99 l 558 -82 q 549 18 551 -14 l 549 18 q 547 63 547 35 l 547 63 q 543 58 544 60 l 543 58 q 478 11 522 36 l 478 11 q 401 -18 432 -14 l 401 -18 q 303 -4 369 -22 l 303 -4 q 211 33 238 13 l 211 33 q 150 100 185 51 l 150 100 q 99 186 115 147 l 99 186 q 76 289 81 228 l 76 289 q 76 379 71 349 q 110 472 82 410 l 110 472 q 158 557 138 535 l 158 557 q 242 606 181 581 l 242 606 q 332 632 301 631 l 332 632 q 414 618 361 633 l 414 618 q 514 564 468 603 l 514 564 q 582 490 560 528 q 615 396 604 453 l 615 396 q 624 344 621 367 l 624 344 l 643 333 q 657 310 654 321 q 658 292 660 299 q 651 279 656 286 q 647 271 647 272 l 647 271 q 632 214 639 235 l 632 214 q 626 199 629 207 l 626 199 q 625 196 626 196 l 625 196 q 622 115 624 176 q 624 24 621 53 l 624 24 q 632 -74 625 -7 l 632 -74 q 636 -114 635 -96 l 636 -114 q 674 -114 651 -114 l 674 -114 q 731 -114 714 -114 l 731 -114 l 747 -114 q 774 -125 763 -114 q 785 -151 785 -136 q 774 -178 785 -167 q 747 -189 763 -189 l 747 -189 l 731 -189 q 674 -189 714 -189 l 674 -189 q 643 -189 657 -189 l 643 -189 q 647 -246 646 -219 l 647 -246 q 651 -333 649 -278 l 651 -333 q 654 -400 653 -387 l 654 -400 q 656 -404 654 -403 l 656 -404 l 664 -414 q 672 -441 674 -425 q 658 -467 669 -457 q 631 -474 646 -476 q 606 -461 615 -472 l 606 -461 l 597 -451 q 579 -408 582 -433 l 579 -408 q 576 -336 578 -393 l 576 -336 q 572 -250 574 -281 l 572 -250 q 568 -189 571 -222 l 568 -189 q 528 -189 546 -189 l 528 -189 q 472 -187 501 -189 l 472 -187 l 443 -186 q 417 -173 428 -185 z m 324 68 l 324 68 q 333 69 329 69 l 333 69 l 357 69 q 390 78 372 69 l 390 78 q 447 114 413 88 l 447 114 q 493 154 482 142 q 522 200 504 167 l 522 200 q 546 261 540 232 l 546 261 q 551 311 551 290 l 551 311 q 542 381 551 333 l 542 381 q 517 451 533 425 q 467 507 501 478 l 467 507 q 393 546 432 535 l 393 546 q 335 557 353 557 l 335 557 q 271 536 318 556 l 271 536 q 214 506 224 517 l 214 506 q 178 440 201 493 l 178 440 q 151 366 154 388 q 151 294 147 344 l 151 294 q 168 215 156 246 l 168 215 q 210 144 181 185 l 210 144 q 256 93 239 106 l 256 93 q 324 68 271 82 z "},"r":{"ha":479,"x_min":74,"x_max":404,"o":"m 154 383 l 154 383 q 156 367 154 374 l 156 367 q 179 422 171 403 l 179 422 q 201 469 189 446 l 201 469 q 247 546 214 494 l 247 546 q 296 613 281 597 l 296 613 q 335 639 313 628 l 335 639 l 353 647 q 381 648 367 653 q 402 629 396 643 q 403 601 408 615 q 385 579 399 586 l 385 579 l 367 571 q 349 558 356 565 l 349 558 q 310 504 339 550 l 310 504 q 268 436 279 457 l 268 436 q 247 392 257 414 q 217 319 238 369 l 217 319 q 178 246 194 264 l 178 246 q 160 231 169 236 l 160 231 q 160 215 160 218 l 160 215 q 163 167 161 190 l 163 167 q 164 124 164 143 l 164 124 q 163 79 164 104 l 163 79 l 163 56 q 150 30 161 40 q 124 19 139 19 q 97 31 108 19 q 88 58 86 43 l 88 58 l 88 82 q 89 124 89 106 l 89 124 q 88 163 89 140 l 88 163 q 85 211 86 188 l 85 211 q 82 303 85 238 l 82 303 q 79 381 79 351 l 79 381 q 76 418 78 397 l 76 418 q 74 506 74 476 q 76 564 74 535 l 76 564 q 76 568 76 565 q 78 578 76 571 q 83 593 81 586 q 91 606 86 600 q 102 615 96 613 q 117 616 108 618 q 138 607 126 614 l 138 607 q 158 584 154 594 q 157 569 163 574 l 157 569 l 153 565 q 153 511 153 542 l 153 511 q 153 453 153 479 l 153 453 q 153 400 153 428 l 153 400 q 154 383 154 393 z "},"s":{"ha":671,"x_min":74,"x_max":594,"o":"m 557 558 q 559 530 564 544 q 540 508 554 515 q 511 507 525 501 l 511 507 l 492 514 q 413 535 474 521 l 413 535 q 325 547 351 547 l 325 547 q 272 542 297 547 l 272 542 q 203 511 250 538 l 203 511 q 153 478 163 488 l 153 478 q 149 458 149 472 l 149 458 q 151 436 149 442 l 151 436 q 181 408 158 426 l 181 408 q 246 376 201 390 l 246 376 q 319 358 294 361 l 319 358 q 419 347 351 356 l 419 347 q 518 328 493 338 l 518 328 q 561 303 543 317 l 561 303 q 594 233 585 283 l 594 233 q 590 158 604 186 l 590 158 q 542 97 581 135 q 476 46 504 60 l 476 46 q 378 26 447 33 l 378 26 q 247 44 304 19 l 247 44 q 171 82 194 67 l 171 82 q 128 115 149 97 l 128 115 q 94 161 101 139 l 94 161 l 92 174 q 96 202 88 189 q 119 219 104 215 q 147 215 133 224 q 164 193 161 207 l 164 193 l 167 182 q 178 171 171 178 l 178 171 q 213 144 194 157 l 213 144 q 276 114 231 132 l 276 114 q 371 101 317 96 l 371 101 q 444 114 428 107 l 444 114 q 489 150 461 122 l 489 150 q 522 189 517 178 l 522 189 q 521 219 525 197 l 521 219 q 513 246 517 238 l 513 246 q 489 258 503 253 l 489 258 q 411 274 474 265 l 411 274 q 314 283 343 282 l 314 283 q 224 304 279 286 l 224 304 q 132 350 165 324 l 132 350 q 89 396 103 375 l 89 396 q 74 460 72 422 l 74 460 q 93 524 75 500 l 93 524 q 167 576 108 543 l 167 576 q 258 615 224 608 l 258 615 q 325 622 290 622 l 325 622 q 428 607 360 622 l 428 607 q 517 585 494 593 l 517 585 l 536 578 q 557 558 550 572 z "},"t":{"ha":499,"x_min":74,"x_max":426,"o":"m 86 553 q 74 579 75 564 q 83 606 72 594 q 110 619 94 618 l 110 619 l 126 619 q 147 621 138 621 l 147 621 q 157 683 151 647 l 157 683 q 165 742 165 729 l 165 742 l 167 757 q 179 783 168 772 q 206 792 190 793 q 232 780 221 792 q 242 753 243 768 l 242 753 l 240 738 q 232 671 240 719 l 232 671 q 222 621 226 643 l 222 621 q 254 615 233 619 l 254 615 l 301 606 q 325 590 317 603 q 331 563 333 578 q 315 538 328 547 q 288 532 303 529 l 288 532 l 242 542 q 213 546 226 544 l 213 546 q 210 519 211 533 l 210 519 q 210 407 207 475 l 210 407 q 218 303 213 338 l 218 303 q 228 238 222 268 l 228 238 q 257 158 235 211 l 257 158 q 287 98 278 108 q 317 74 296 88 l 317 74 q 347 57 335 63 l 347 57 l 363 71 q 390 80 375 81 q 416 67 406 79 q 426 40 426 56 q 413 15 425 25 l 413 15 l 397 1 q 329 -15 365 -28 l 329 -15 q 276 11 307 -8 q 230 49 246 31 q 188 129 214 68 l 188 129 q 156 222 163 188 l 156 222 q 143 293 149 256 l 143 293 q 135 403 138 331 l 135 403 q 136 526 132 476 l 136 526 q 138 546 136 536 l 138 546 q 131 544 133 546 l 131 544 l 113 544 q 86 553 97 543 z "},"u":{"ha":650,"x_min":75,"x_max":578,"o":"m 114 639 q 142 646 126 649 q 166 631 157 643 q 172 603 175 618 l 172 603 l 171 593 q 163 546 169 582 l 163 546 q 150 457 156 513 l 150 457 q 156 344 144 404 l 156 344 q 176 263 167 285 l 176 263 q 199 218 186 240 l 199 218 q 253 156 211 199 q 310 103 294 114 l 310 103 q 342 86 326 93 l 342 86 q 383 89 351 83 l 383 89 q 426 101 418 96 l 426 101 q 456 135 436 108 l 456 135 q 485 192 475 163 l 485 192 q 499 275 493 224 l 499 275 q 501 351 503 326 l 501 351 q 500 400 501 376 l 500 400 q 490 457 497 422 l 490 457 l 482 494 q 488 523 479 510 q 510 540 496 536 q 538 535 525 543 q 556 511 551 526 l 556 511 l 564 474 q 574 406 572 433 l 574 406 q 576 353 576 381 l 576 353 q 572 268 578 325 l 572 268 q 556 171 568 210 l 556 171 q 517 92 543 129 q 471 40 490 54 l 471 40 q 397 15 450 25 l 397 15 q 314 17 343 6 l 314 17 q 269 41 292 26 q 199 104 246 56 q 135 179 151 153 l 135 179 q 107 233 119 206 l 107 233 q 82 331 94 263 l 82 331 q 75 464 69 400 l 75 464 q 89 560 82 524 l 89 560 q 97 604 96 594 l 97 604 l 99 615 q 114 639 101 629 z "},"v":{"ha":706,"x_min":75,"x_max":631,"o":"m 76 623 q 96 644 82 638 q 124 644 110 650 q 146 625 139 639 l 146 625 l 160 593 q 192 508 175 558 l 192 508 q 217 438 206 461 l 217 438 q 250 368 229 413 l 250 368 q 300 265 272 325 l 300 265 q 338 189 328 207 l 338 189 q 360 151 349 169 l 360 151 q 386 117 368 138 l 386 117 q 392 111 389 114 l 392 111 q 401 125 397 118 l 401 125 q 431 185 424 165 l 431 185 q 447 235 439 208 l 447 235 q 481 333 457 261 l 481 333 q 513 432 504 406 q 535 494 522 458 l 535 494 q 554 547 549 532 l 554 547 l 560 561 q 580 581 565 575 q 608 582 594 588 q 628 562 622 576 q 629 533 635 547 l 629 533 l 624 519 q 606 469 619 506 q 583 407 593 433 l 583 407 q 551 310 575 382 q 519 212 528 239 q 501 161 510 185 l 501 161 q 465 88 493 133 l 465 88 q 459 75 465 86 q 450 60 453 64 q 440 47 447 56 q 426 35 432 38 q 410 29 419 32 q 389 28 400 26 l 389 28 q 332 65 364 32 l 332 65 q 294 114 307 92 l 294 114 q 272 151 283 132 l 272 151 q 232 233 261 172 l 232 233 q 183 335 204 292 l 183 335 q 149 407 161 381 l 149 407 q 119 485 136 435 l 119 485 q 92 563 106 532 l 92 563 l 76 594 q 76 623 71 608 z "},"w":{"ha":967,"x_min":74,"x_max":892,"o":"m 493 311 l 493 311 q 493 299 493 303 l 493 299 q 501 257 496 283 l 501 257 q 507 232 503 246 l 507 232 q 526 167 515 190 l 526 167 q 557 119 538 143 l 557 119 q 594 93 572 100 l 594 93 q 618 88 610 88 l 618 88 q 647 104 628 90 l 647 104 q 689 158 667 117 l 689 158 q 729 258 714 206 l 729 258 q 750 343 744 314 l 750 343 q 772 442 757 374 l 772 442 q 801 545 789 511 q 818 590 813 579 l 818 590 l 822 599 q 844 618 829 613 q 872 617 858 624 q 891 595 886 610 q 890 567 896 581 l 890 567 l 886 558 q 872 521 882 551 q 846 425 861 490 l 846 425 q 824 328 831 357 l 824 328 q 801 239 817 296 l 801 239 q 756 124 783 178 l 756 124 q 689 42 724 65 l 689 42 q 636 14 656 19 l 636 14 q 569 22 611 8 l 569 22 q 499 72 528 36 l 499 72 q 458 135 474 103 l 458 135 q 451 151 456 142 l 451 151 q 418 85 435 108 l 418 85 q 350 36 396 50 l 350 36 q 342 33 349 36 q 333 31 335 31 q 324 28 331 31 q 315 26 318 26 q 306 26 313 26 q 297 27 300 26 q 288 30 293 28 q 278 35 282 32 l 278 35 q 228 85 260 43 l 228 85 q 175 168 199 122 l 175 168 q 136 254 151 213 l 136 254 q 104 350 121 296 l 104 350 q 82 429 88 404 l 82 429 q 75 508 76 456 l 75 508 q 79 588 72 563 l 79 588 l 85 607 q 101 629 88 621 q 130 633 115 638 q 153 615 144 629 q 157 588 161 601 l 157 588 l 151 568 q 150 511 147 554 l 150 511 q 156 444 151 465 l 156 444 q 175 371 160 422 l 175 371 q 206 281 192 319 l 206 281 q 242 203 219 243 l 242 203 q 288 131 263 163 l 288 131 q 310 103 301 113 l 310 103 q 328 107 317 104 l 328 107 q 357 126 349 114 l 357 126 q 386 188 369 146 l 386 188 q 404 246 396 214 l 404 246 q 411 281 408 263 l 411 281 q 417 315 414 299 l 417 315 q 415 374 415 339 l 415 374 q 417 456 414 433 l 417 456 q 424 511 418 476 l 424 511 q 435 565 429 549 l 435 565 q 435 569 435 567 q 437 581 435 572 q 444 592 439 589 q 460 598 450 596 q 488 592 471 600 l 488 592 q 515 569 510 582 q 515 549 521 556 l 515 549 l 510 540 q 507 503 508 518 q 504 446 506 488 l 504 446 q 499 364 503 404 l 499 364 q 493 311 497 340 z "},"x":{"ha":729,"x_min":76,"x_max":657,"o":"m 565 661 q 589 645 581 658 q 594 617 597 632 q 578 593 590 601 l 578 593 l 561 582 q 532 560 547 572 l 532 560 q 487 514 515 543 q 443 468 458 485 q 413 432 428 451 l 413 432 q 368 375 399 415 l 368 375 q 414 326 393 349 l 414 326 q 476 262 451 288 q 539 196 500 236 l 539 196 q 599 130 578 154 q 635 85 619 106 l 635 85 l 650 65 q 656 38 658 53 q 642 13 654 22 q 614 6 629 4 q 589 21 599 8 l 589 21 l 575 40 q 542 81 561 58 q 485 143 522 104 l 485 143 q 421 210 444 185 q 360 275 397 235 l 360 275 q 324 313 343 292 l 324 313 q 303 283 310 293 l 303 283 q 254 214 288 263 l 254 214 q 211 147 222 164 l 211 147 q 183 104 200 131 l 183 104 q 160 67 165 76 l 160 67 q 151 49 156 58 l 151 49 l 146 35 q 126 15 140 21 q 97 15 111 10 q 76 35 82 21 q 76 64 71 50 l 76 64 l 82 78 q 96 106 89 93 l 96 106 q 119 144 101 115 q 149 189 138 172 l 149 189 q 193 256 160 206 l 193 256 q 242 326 226 306 l 242 326 q 272 369 251 342 l 272 369 q 207 447 225 425 l 207 447 q 156 517 188 471 l 156 517 q 110 575 126 558 l 110 575 l 92 593 q 80 619 81 603 q 90 646 79 635 q 117 657 101 657 q 143 646 132 657 l 143 646 l 163 628 q 217 560 183 608 l 217 560 q 264 496 247 517 l 264 496 q 318 432 281 476 l 318 432 q 354 479 342 464 l 354 479 q 387 518 371 500 q 433 567 403 536 q 481 614 464 597 l 481 614 q 521 644 500 632 l 521 644 l 538 656 q 565 661 550 664 z "},"y":{"ha":642,"x_min":75,"x_max":568,"o":"m 520 580 q 549 578 535 585 q 567 556 563 571 q 565 528 572 542 l 565 528 l 557 513 q 538 475 550 497 q 519 438 526 453 q 490 382 511 424 q 450 301 469 340 l 450 301 q 422 240 432 264 l 422 240 q 386 160 411 218 l 386 160 q 358 94 369 119 l 358 94 q 371 74 365 83 l 371 74 l 378 61 q 380 33 385 49 q 363 11 375 18 l 363 11 q 326 11 344 0 l 326 11 q 322 -1 324 4 l 322 -1 q 281 -107 303 -53 l 281 -107 q 236 -219 260 -158 l 236 -219 q 207 -293 213 -281 l 207 -293 q 197 -321 203 -304 l 197 -321 q 193 -335 194 -329 l 193 -335 l 193 -343 q 182 -369 193 -358 q 156 -379 171 -379 q 129 -368 140 -379 q 118 -342 118 -357 l 118 -342 l 118 -333 q 126 -296 119 -318 l 126 -296 q 138 -265 132 -279 l 138 -265 q 167 -192 143 -253 l 167 -192 q 211 -78 190 -131 l 211 -78 q 251 25 232 -26 l 251 25 q 275 89 265 65 l 275 89 q 249 135 258 117 l 249 135 q 228 172 238 153 l 228 172 q 206 215 217 193 l 206 215 q 171 286 196 236 l 171 286 q 132 365 146 336 l 132 365 q 97 429 117 394 l 97 429 l 78 465 q 75 494 71 479 q 93 516 79 508 q 122 519 107 524 q 144 501 136 515 l 144 501 l 164 465 q 199 400 183 431 l 199 400 q 239 319 214 368 l 239 319 q 274 247 264 269 l 274 247 q 294 207 283 226 l 294 207 q 311 175 303 190 l 311 175 q 317 189 315 183 l 317 189 q 354 272 343 249 l 354 272 q 383 333 364 296 l 383 333 q 423 416 401 374 q 453 474 444 458 q 472 510 461 489 q 490 546 482 531 l 490 546 l 499 561 q 520 580 506 575 z "},"z":{"ha":746,"x_min":74,"x_max":674,"o":"m 217 305 q 202 328 204 314 q 209 356 200 343 q 233 372 218 369 l 233 372 l 243 374 q 272 377 254 375 q 300 381 289 379 l 300 381 q 314 382 306 381 l 314 382 q 368 444 338 411 l 368 444 q 422 506 406 486 l 422 506 q 453 540 439 524 q 494 585 468 556 l 494 585 q 499 592 497 588 l 499 592 q 493 593 496 592 l 493 593 q 439 596 478 594 l 439 596 q 367 597 399 599 l 367 597 q 294 592 335 594 l 294 592 q 238 588 254 589 l 238 588 q 194 582 221 586 l 194 582 q 160 575 167 578 l 160 575 l 150 572 q 121 577 135 569 q 103 599 107 585 q 108 628 100 614 q 131 646 115 642 l 131 646 l 140 647 q 182 656 151 651 l 182 656 q 231 661 213 660 l 231 661 q 289 667 247 664 l 289 667 q 363 672 328 669 q 442 671 399 674 l 442 671 q 506 666 486 669 q 543 657 525 663 l 543 657 q 572 638 560 651 q 585 604 585 624 l 585 604 q 580 576 586 590 q 569 556 574 563 q 550 536 564 550 l 550 536 q 510 490 524 506 l 510 490 q 478 455 494 474 q 425 396 461 436 l 425 396 q 419 389 422 392 l 419 389 q 449 356 446 383 l 449 356 q 439 328 449 340 q 414 315 429 317 l 414 315 l 399 314 q 376 313 385 314 l 376 313 q 353 310 369 311 l 353 310 q 303 246 331 281 l 303 246 q 254 183 269 203 l 254 183 q 225 146 239 165 l 225 146 q 186 99 211 129 l 186 99 q 190 99 189 99 l 190 99 q 239 103 217 101 l 239 103 q 311 107 261 104 l 311 107 q 386 110 361 108 q 471 115 411 111 l 471 115 q 551 121 532 119 l 551 121 q 603 125 571 124 l 603 125 l 633 126 q 660 117 649 128 q 673 90 672 106 q 663 64 674 75 q 638 51 653 53 l 638 51 l 607 50 q 557 47 576 49 l 557 47 q 476 40 538 44 l 476 40 q 389 35 415 36 l 389 35 q 314 32 364 33 l 314 32 q 244 28 265 31 l 244 28 q 197 24 224 26 l 197 24 q 135 21 168 21 l 135 21 q 119 25 132 21 q 92 38 107 29 q 74 62 76 47 q 88 96 71 76 l 88 96 q 124 140 97 107 l 124 140 q 165 193 151 175 l 165 193 q 194 231 179 210 l 194 231 q 243 292 210 249 l 243 292 q 249 299 246 296 l 249 299 l 246 299 q 217 305 231 296 z "},"{":{"ha":521,"x_min":74,"x_max":446,"o":"m 379 928 q 394 903 392 918 q 387 875 396 888 q 363 861 378 863 l 363 861 l 336 857 q 299 847 315 854 l 299 847 q 265 822 283 840 l 265 822 q 241 798 246 804 q 228 771 236 792 l 228 771 q 218 739 219 753 l 218 739 q 217 705 215 724 q 219 679 218 686 l 219 679 q 224 665 222 672 l 224 665 q 236 632 228 656 l 236 632 q 249 590 246 606 l 249 590 q 253 561 251 576 q 254 511 256 546 l 254 511 q 253 462 254 476 q 246 421 251 447 l 246 421 q 235 372 242 392 q 218 333 229 353 l 218 333 q 207 315 213 324 l 207 315 q 238 257 231 294 l 238 257 q 242 204 243 228 l 242 204 q 240 172 242 185 l 240 172 q 239 144 240 161 l 239 144 q 236 106 238 129 l 236 106 q 236 58 235 85 l 236 58 q 239 22 238 32 q 244 -11 240 11 q 251 -43 249 -33 l 251 -43 q 264 -78 254 -53 l 264 -78 q 276 -110 272 -103 l 276 -110 q 286 -128 281 -119 l 286 -128 q 304 -153 290 -135 l 304 -153 q 333 -176 317 -168 l 333 -176 q 360 -190 353 -187 q 375 -192 367 -192 l 375 -192 q 388 -190 383 -192 l 388 -190 l 399 -186 q 426 -189 413 -182 q 445 -210 440 -196 q 443 -239 450 -225 q 421 -258 436 -253 l 421 -258 l 411 -261 q 375 -267 394 -267 l 375 -267 q 340 -262 356 -267 q 297 -243 325 -257 l 297 -243 q 246 -200 267 -226 l 246 -200 q 221 -167 228 -178 l 221 -167 q 210 -144 215 -156 l 210 -144 q 193 -104 203 -133 l 193 -104 q 179 -62 182 -75 l 179 -62 q 172 -25 176 -50 q 165 13 167 0 q 161 54 164 25 l 161 54 q 161 110 160 85 l 161 110 q 164 151 163 135 l 164 151 q 165 178 165 168 l 165 178 q 167 207 167 188 l 167 207 q 164 243 167 222 l 164 243 q 160 257 161 253 l 160 257 q 146 264 153 261 l 146 264 q 133 261 139 261 l 133 261 q 129 253 132 257 q 115 252 126 250 q 88 272 103 254 l 88 272 q 74 299 76 288 q 78 317 72 311 q 90 328 83 324 q 104 333 97 332 l 104 333 l 111 335 q 126 339 118 336 l 126 339 q 133 344 129 340 l 133 344 q 151 368 146 356 l 151 368 q 164 397 160 383 q 172 433 168 410 l 172 433 q 178 469 176 458 l 178 469 q 179 513 179 481 l 179 513 q 179 553 181 543 l 179 553 q 175 575 178 565 l 175 575 q 165 607 174 585 l 165 607 q 154 639 157 631 l 154 639 q 147 661 150 649 l 147 661 q 142 700 143 674 q 144 749 140 726 q 158 801 147 772 l 158 801 q 179 840 171 828 l 179 840 q 214 878 189 854 l 214 878 q 268 915 242 903 l 268 915 q 326 932 294 926 l 326 932 l 351 935 q 379 928 367 938 z "},"|":{"ha":271,"x_min":74,"x_max":199,"o":"m 117 1001 q 145 1003 131 1008 q 167 985 160 999 q 168 956 174 971 l 168 956 l 165 946 q 164 933 164 942 l 164 933 q 163 901 164 918 l 163 901 q 160 876 161 886 l 160 876 q 156 840 158 867 l 156 840 l 151 801 q 149 781 150 792 q 149 739 149 771 l 149 739 q 150 696 149 708 l 150 696 q 151 669 151 683 l 151 669 q 155 627 153 656 q 158 575 157 599 l 158 575 q 161 538 160 556 l 161 538 q 164 507 163 519 l 164 507 q 167 453 165 490 q 169 403 169 417 l 169 403 q 171 374 171 389 l 171 374 q 174 331 171 358 l 174 331 q 178 269 175 303 l 178 269 q 182 224 181 236 q 185 200 183 213 l 185 200 q 186 158 185 188 l 186 158 q 188 115 188 128 l 188 115 q 188 83 188 104 l 188 83 q 188 48 188 63 q 189 24 189 33 l 189 24 q 190 3 190 14 l 190 3 q 192 -28 190 -7 q 196 -65 194 -49 l 196 -65 q 197 -101 196 -83 l 197 -101 q 199 -140 199 -121 l 199 -140 q 197 -179 199 -160 l 197 -179 q 196 -207 196 -197 l 196 -207 q 194 -222 194 -215 l 194 -222 l 194 -232 q 185 -258 196 -247 q 158 -270 174 -269 q 132 -260 143 -271 q 119 -233 121 -249 l 119 -233 l 119 -224 q 121 -201 119 -212 l 121 -201 q 122 -174 122 -190 l 122 -174 q 124 -142 124 -158 l 124 -142 q 122 -104 124 -124 l 122 -104 q 121 -71 121 -85 l 121 -71 q 118 -35 119 -54 l 118 -35 q 115 -1 115 -12 q 114 19 115 10 l 114 19 q 113 47 114 31 q 113 83 113 63 l 113 83 q 113 115 113 104 l 113 115 q 111 155 113 126 q 110 194 110 183 l 110 194 q 107 217 108 206 l 107 217 q 103 263 106 229 l 103 263 q 99 326 100 296 q 96 371 97 356 l 96 371 q 95 399 96 386 q 92 449 94 413 l 92 449 q 89 501 90 486 l 89 501 q 86 532 88 514 l 86 532 q 83 569 86 547 l 83 569 q 81 621 82 592 l 81 621 q 77 664 78 650 q 75 692 76 678 l 75 692 q 74 739 75 706 l 74 739 q 74 785 74 772 q 76 810 75 797 l 76 810 l 81 849 q 85 884 85 875 q 88 908 86 893 l 88 908 q 89 933 89 922 l 89 933 q 94 969 89 954 l 94 969 l 97 979 q 117 1001 103 994 z "},"}":{"ha":476,"x_min":74,"x_max":404,"o":"m 97 845 q 79 867 83 853 q 83 896 75 882 q 106 914 92 910 l 106 914 l 119 917 q 164 919 140 922 l 164 919 q 215 897 190 915 l 215 897 q 244 869 235 882 l 244 869 q 265 840 254 858 l 265 840 q 283 799 276 822 l 283 799 q 293 765 290 776 l 293 765 q 300 733 294 757 l 300 733 q 307 699 306 708 l 307 699 q 311 675 310 688 q 314 633 313 663 l 314 633 q 313 588 315 603 l 313 588 q 308 554 311 576 l 308 554 q 303 519 306 533 l 303 519 q 301 500 301 508 l 301 500 q 300 475 301 492 l 300 475 q 300 453 300 461 l 300 453 q 304 432 300 447 l 304 432 q 314 410 308 418 l 314 410 q 329 392 319 400 l 329 392 q 350 379 338 385 l 350 379 q 374 371 367 372 l 374 371 q 403 342 403 363 q 390 307 404 322 l 390 307 l 376 290 q 344 274 358 279 l 344 274 q 329 267 336 271 l 329 267 q 317 256 325 264 l 317 256 q 303 238 308 247 l 303 238 q 294 214 297 225 l 294 214 q 290 192 292 203 l 290 192 q 290 160 289 179 l 290 160 q 292 129 292 140 l 292 129 q 294 100 293 117 l 294 100 q 297 68 296 85 l 297 68 q 299 31 299 51 l 299 31 q 297 -10 299 8 l 297 -10 q 293 -44 294 -26 l 293 -44 q 286 -81 290 -65 l 286 -81 q 271 -122 283 -97 l 271 -122 q 253 -157 261 -144 l 253 -157 q 236 -181 246 -168 l 236 -181 q 210 -208 225 -194 l 210 -208 q 172 -231 193 -222 l 172 -231 q 129 -242 151 -239 l 129 -242 l 113 -242 q 86 -232 97 -243 q 74 -206 75 -221 q 83 -179 72 -190 q 110 -167 94 -168 l 110 -167 l 125 -167 q 143 -161 133 -165 l 143 -161 q 161 -151 153 -158 l 161 -151 q 176 -135 171 -143 l 176 -135 q 190 -117 185 -125 l 190 -117 q 203 -90 194 -108 l 203 -90 q 214 -64 211 -74 l 214 -64 q 218 -36 215 -53 l 218 -36 q 222 -3 221 -18 l 222 -3 q 224 29 224 11 l 224 29 q 222 64 224 49 l 222 64 q 219 94 221 79 l 219 94 q 218 122 218 111 l 218 122 q 215 157 217 135 l 215 157 q 215 197 214 181 l 215 197 q 221 232 217 214 l 221 232 q 236 271 225 250 l 236 271 q 263 308 246 292 l 263 308 q 288 329 276 322 l 288 329 q 279 336 283 333 l 279 336 q 251 368 263 351 l 251 368 q 232 413 239 386 l 232 413 q 225 451 225 438 l 225 451 q 225 478 225 461 l 225 478 q 226 504 226 494 l 226 504 q 229 531 228 515 l 229 531 q 234 565 231 544 q 239 597 238 586 l 239 597 q 239 631 239 606 l 239 631 q 237 666 238 657 q 233 683 236 675 l 233 683 q 226 717 232 693 q 219 750 221 740 l 219 750 q 213 776 218 757 l 213 776 q 200 803 207 792 l 200 803 q 188 821 193 814 l 188 821 q 169 838 182 828 l 169 838 q 154 844 161 844 l 154 844 q 139 844 144 846 l 139 844 l 125 840 q 97 845 111 838 z "},"~":{"ha":751,"x_min":75,"x_max":678,"o":"m 124 347 q 94 348 108 342 q 76 369 81 354 q 78 399 71 385 l 78 399 l 85 413 q 104 446 93 432 l 104 446 q 133 476 114 458 l 133 476 q 164 503 151 494 l 164 503 q 192 517 178 511 l 192 517 q 238 526 206 522 l 238 526 q 283 529 268 531 l 283 529 q 309 526 296 528 q 335 521 322 524 l 335 521 q 382 499 350 517 l 382 499 q 422 476 410 483 q 447 460 435 468 l 447 460 q 486 436 457 451 l 486 436 q 515 419 508 422 l 515 419 q 529 418 522 418 l 529 418 q 542 422 533 418 q 564 438 550 425 l 564 438 q 583 456 579 450 l 583 456 q 593 469 589 463 l 593 469 q 604 489 599 479 l 604 489 l 610 499 q 632 516 617 513 q 660 512 647 519 q 678 489 674 504 q 674 461 682 474 l 674 461 l 668 451 q 658 433 664 443 l 658 433 q 643 411 653 422 l 643 411 q 613 379 635 399 l 613 379 q 568 352 589 360 q 529 343 547 344 l 529 343 q 499 347 514 343 l 499 347 q 447 371 482 351 l 447 371 q 404 397 417 389 l 404 397 q 383 413 393 406 q 346 433 372 419 l 346 433 q 315 449 322 446 l 315 449 q 297 452 306 450 q 278 454 288 454 l 278 454 q 247 451 271 454 l 247 451 q 218 447 225 449 l 218 447 q 206 440 213 444 l 206 440 q 185 422 199 436 l 185 422 q 163 399 169 407 l 163 399 q 151 381 157 392 l 151 381 l 144 365 q 124 347 139 351 z "},"¡":{"ha":251,"x_min":74,"x_max":181,"o":"m 103 464 q 129 476 114 475 q 156 465 144 476 q 168 439 167 454 l 168 439 l 168 429 q 168 393 168 418 l 168 393 q 167 358 167 368 q 168 335 167 347 l 168 335 q 169 293 168 322 l 169 293 q 172 233 171 263 q 172 184 172 204 q 170 142 171 164 q 165 78 169 121 l 165 78 q 160 4 161 35 l 160 4 q 156 -43 157 -25 q 156 -76 156 -61 l 156 -76 q 157 -115 156 -90 q 160 -149 158 -139 l 160 -149 l 160 -158 q 153 -186 163 -174 q 128 -200 143 -199 q 100 -192 113 -201 q 86 -167 88 -182 l 86 -167 l 85 -157 q 82 -119 83 -146 q 81 -75 81 -92 l 81 -75 q 82 -40 81 -60 l 82 -40 q 85 10 82 -19 l 85 10 q 90 85 86 36 l 90 85 q 96 147 94 126 q 97 186 97 167 q 97 233 97 206 q 94 289 96 260 l 94 289 q 93 332 93 319 l 93 332 q 92 357 92 346 l 92 357 q 93 394 92 371 l 93 394 q 93 426 93 418 l 93 426 l 93 438 q 103 464 92 453 z m 124 536 l 92 556 q 74 588 74 567 l 74 588 q 85 614 74 603 q 113 625 97 625 l 113 625 l 121 625 q 108 628 108 628 l 108 628 q 165 611 147 624 q 179 589 182 599 l 179 589 l 178 579 q 160 544 181 563 l 160 544 q 124 536 142 531 l 124 536 z "},"¢":{"ha":667,"x_min":74,"x_max":593,"o":"m 332 774 q 360 781 344 783 q 384 765 375 778 q 390 738 393 753 l 390 738 l 388 719 q 382 685 383 701 l 382 685 q 381 663 381 674 l 381 663 q 410 653 394 660 l 410 653 q 458 631 438 642 l 458 631 q 513 592 483 618 l 513 592 q 556 549 542 565 l 556 549 q 578 515 568 532 l 578 515 l 588 501 q 592 472 596 488 q 576 449 589 457 q 547 445 563 442 q 524 461 532 449 l 524 461 l 515 476 q 496 503 507 489 l 496 503 q 464 535 488 514 l 464 535 q 424 564 440 556 l 424 564 q 381 583 406 574 l 381 583 q 379 585 379 583 l 379 585 q 378 554 379 568 l 378 554 q 376 492 378 528 l 376 492 q 374 415 375 456 q 374 356 374 375 l 374 356 q 376 288 374 336 l 376 288 q 382 204 379 239 l 382 204 q 386 143 385 168 l 386 143 q 389 89 388 118 l 389 89 q 389 79 389 82 l 389 79 q 404 82 400 81 l 404 82 q 428 100 411 86 l 428 100 q 461 135 447 117 l 461 135 q 481 163 476 156 q 494 186 486 171 q 504 210 501 201 l 504 210 l 508 218 q 528 238 514 232 q 557 239 543 244 q 577 219 571 233 q 578 190 583 204 l 578 190 l 574 181 q 561 153 569 169 l 561 153 q 546 124 553 135 q 521 90 539 113 l 521 90 q 476 43 503 65 l 476 43 q 435 13 449 19 l 435 13 q 394 4 419 7 l 394 4 q 397 -32 396 -22 q 400 -60 399 -42 l 400 -60 q 403 -97 401 -78 l 403 -97 q 404 -115 403 -111 l 404 -115 l 406 -124 q 402 -152 410 -139 q 379 -169 394 -165 q 351 -165 364 -174 q 333 -143 338 -157 l 333 -143 l 332 -133 q 328 -99 328 -121 l 328 -99 q 325 -67 326 -82 l 325 -67 q 322 -40 324 -50 l 322 -40 q 319 0 322 -29 l 319 0 q 318 17 318 8 l 318 17 q 300 24 310 19 l 300 24 q 261 43 275 35 l 261 43 q 215 76 247 51 l 215 76 q 161 124 183 100 l 161 124 q 128 161 138 149 l 128 161 q 103 211 118 176 l 103 211 q 83 263 86 247 q 76 317 79 279 l 76 317 q 74 371 74 354 l 74 371 q 76 401 75 386 q 83 442 78 415 l 83 442 q 97 488 90 468 q 115 532 103 508 q 134 566 126 556 q 154 590 142 576 q 183 619 167 604 l 183 619 q 213 640 201 635 l 213 640 q 233 651 222 647 l 233 651 q 274 664 246 657 l 274 664 q 306 671 294 669 l 306 671 q 307 694 306 682 l 307 694 q 313 732 310 713 l 313 732 l 317 750 q 332 774 319 765 z m 314 100 l 314 100 q 311 139 313 122 l 311 139 q 308 199 310 164 l 308 199 q 303 283 306 235 l 303 283 q 299 356 299 333 l 299 356 q 299 417 299 376 q 301 494 300 457 l 301 494 q 303 556 303 531 l 303 556 q 304 594 304 574 l 304 594 q 292 592 297 593 l 292 592 q 265 583 271 586 l 265 583 q 251 576 258 581 l 251 576 q 232 563 244 572 l 232 563 q 210 541 219 551 q 197 524 201 531 q 182 498 192 517 q 167 463 172 479 q 157 425 163 447 l 157 425 q 151 391 153 403 q 149 368 149 379 l 149 368 q 150 322 149 356 l 150 322 q 156 281 153 290 q 171 242 158 271 l 171 242 q 190 204 183 214 l 190 204 q 215 176 196 196 l 215 176 q 261 135 233 157 l 261 135 q 299 108 289 114 l 299 108 q 314 100 304 104 z "},"£":{"ha":764,"x_min":74,"x_max":690,"o":"m 85 424 q 74 450 74 435 q 85 476 74 465 q 111 488 96 488 l 111 488 l 124 488 q 169 486 136 488 l 169 486 q 171 486 171 486 l 171 486 q 161 514 165 501 l 161 514 q 150 563 154 536 l 150 563 q 146 616 146 590 q 148 660 146 642 q 158 701 150 678 l 158 701 q 171 735 165 724 l 171 735 q 192 772 176 746 q 215 810 207 799 l 215 810 q 239 838 224 819 l 239 838 q 271 872 256 858 l 271 872 q 316 903 289 889 q 360 921 343 917 l 360 921 q 418 922 378 925 l 418 922 q 476 911 457 918 l 476 911 q 526 886 494 904 l 526 886 q 578 847 557 867 l 578 847 q 615 800 599 828 l 615 800 q 638 757 632 774 q 653 707 644 740 l 653 707 q 661 658 660 674 l 661 658 q 657 626 660 644 l 657 626 l 653 611 q 637 588 650 596 q 609 582 624 579 q 585 598 594 585 q 581 626 576 611 l 581 626 l 583 642 q 586 658 585 653 l 586 658 q 579 690 585 667 l 579 690 q 569 728 574 718 q 551 761 564 739 l 551 761 q 526 793 540 781 l 526 793 q 488 821 511 807 l 488 821 q 450 842 461 836 l 450 842 q 413 847 440 844 l 413 847 q 376 847 385 849 l 376 847 q 350 836 368 846 l 350 836 q 321 817 332 826 l 321 817 q 296 790 310 807 l 296 790 q 275 764 282 774 l 275 764 q 256 734 269 757 q 240 703 243 711 q 229 678 236 696 l 229 678 q 222 650 224 661 l 222 650 q 221 617 221 638 q 224 575 221 597 l 224 575 q 233 536 228 553 l 233 536 q 249 492 239 517 l 249 492 q 251 483 250 486 l 251 483 q 272 482 264 482 l 272 482 q 319 479 285 482 l 319 479 q 367 479 350 478 l 367 479 q 394 481 383 479 l 394 481 l 407 482 q 435 474 422 483 q 449 449 447 464 q 440 422 450 433 q 415 407 431 410 l 415 407 l 403 406 q 369 404 390 404 l 369 404 q 315 406 350 403 l 315 406 q 281 407 294 406 l 281 407 q 285 397 282 403 l 285 397 q 307 328 299 358 l 307 328 q 318 282 315 296 l 318 282 q 316 231 319 264 q 307 186 313 199 l 307 186 q 300 169 304 179 l 300 169 q 324 169 313 171 l 324 169 q 364 156 344 167 l 364 156 q 394 138 381 147 l 394 138 q 421 117 406 129 l 421 117 q 461 90 435 107 l 461 90 q 496 75 483 78 l 496 75 q 515 71 510 72 l 515 71 q 544 74 522 71 l 544 74 q 571 78 565 75 l 571 78 q 592 88 576 79 l 592 88 q 619 103 607 94 l 619 103 l 632 113 q 660 118 644 121 q 685 102 676 115 q 690 74 693 89 q 675 50 688 58 l 675 50 l 661 40 q 626 21 646 31 l 626 21 q 593 6 606 10 l 593 6 q 551 -1 581 1 l 551 -1 q 514 -3 525 -4 l 514 -3 q 481 1 501 -3 l 481 1 q 422 26 456 7 l 422 26 q 376 57 393 44 l 376 57 q 350 78 358 71 l 350 78 q 329 90 340 83 l 329 90 q 315 94 322 94 l 315 94 q 296 93 308 96 l 296 93 q 268 85 281 89 l 268 85 q 228 67 253 79 l 228 67 q 185 44 203 54 l 185 44 q 178 47 182 44 q 165 53 175 49 q 149 62 156 57 q 133 73 142 67 q 125 85 125 79 q 128 97 125 90 l 128 97 q 138 106 136 106 l 138 106 q 142 107 139 106 l 142 107 q 169 128 151 113 l 169 128 q 204 161 188 143 l 204 161 q 226 190 218 176 q 236 211 233 204 l 236 211 q 242 240 239 218 l 242 240 q 243 272 244 264 l 243 272 q 235 308 242 282 l 235 308 q 214 371 228 335 l 214 371 q 200 410 206 396 l 200 410 q 167 411 183 411 l 167 411 q 122 413 135 413 l 122 413 l 111 413 q 85 424 96 413 z "},"¥":{"ha":661,"x_min":74,"x_max":589,"o":"m 166 205 q 146 226 151 211 q 147 255 140 240 q 168 274 154 269 l 168 274 l 182 279 q 215 288 200 286 q 254 290 231 290 l 254 290 q 289 288 276 290 l 289 288 q 321 285 299 288 l 321 285 q 329 314 325 301 l 329 314 q 292 315 315 314 l 292 315 q 251 315 264 315 q 214 315 239 315 l 214 315 q 172 315 188 314 l 172 315 l 158 315 q 132 326 143 315 q 122 353 121 338 q 133 379 122 368 q 160 390 144 390 l 160 390 l 174 390 q 211 390 188 389 l 211 390 q 251 390 238 390 q 294 390 265 390 l 294 390 q 339 389 324 389 l 339 389 q 346 389 342 389 l 346 389 q 343 396 344 392 l 343 396 l 339 406 q 333 419 338 411 l 333 419 q 322 439 326 431 l 322 439 q 297 480 317 449 q 266 527 276 511 q 232 578 256 543 l 232 578 q 181 651 210 611 l 181 651 q 140 707 151 693 l 140 707 q 115 742 131 721 l 115 742 q 90 778 100 764 l 90 778 l 81 792 q 74 819 71 804 q 90 843 76 835 q 118 849 103 851 q 142 833 133 846 l 142 833 l 151 821 q 176 786 161 807 l 176 786 q 201 751 192 765 q 242 696 211 738 l 242 696 q 294 619 271 654 l 294 619 q 329 568 318 585 q 360 519 340 551 q 386 478 381 488 l 386 478 q 386 476 386 478 l 386 476 q 400 508 394 496 l 400 508 q 421 558 410 532 l 421 558 q 451 647 431 582 l 451 647 q 478 735 472 711 q 494 799 485 758 l 494 799 q 507 858 504 836 l 507 858 q 513 901 510 881 l 513 901 l 514 924 q 527 949 515 939 q 554 958 539 960 q 580 944 569 957 q 589 917 590 932 l 589 917 l 586 894 q 582 849 585 872 l 582 849 q 568 781 578 822 l 568 781 q 551 715 558 740 q 522 624 544 690 l 522 624 q 490 529 500 557 l 490 529 q 468 479 479 504 l 468 479 q 435 392 458 454 l 435 392 q 433 389 435 390 l 433 389 q 446 390 440 389 l 446 390 q 483 392 469 392 l 483 392 q 504 393 496 393 l 504 393 l 514 393 q 541 384 529 394 q 553 358 553 374 q 544 331 554 343 q 518 318 533 319 l 518 318 l 508 318 q 486 317 499 318 l 486 317 q 450 315 474 317 l 450 315 q 407 314 432 314 l 407 314 q 406 308 406 311 l 406 308 q 397 276 401 296 l 397 276 q 401 276 400 276 l 401 276 q 435 275 415 275 l 435 275 q 468 274 456 274 l 468 274 q 488 274 479 274 l 488 274 l 497 274 q 524 263 513 274 q 535 238 535 253 q 525 210 536 222 q 499 199 514 199 l 499 199 l 490 199 q 467 199 481 199 l 467 199 q 432 200 454 199 l 432 200 q 399 201 411 200 l 399 201 q 378 203 388 201 l 378 203 q 371 179 375 193 l 371 179 q 357 124 364 153 l 357 124 q 346 74 350 96 l 346 74 q 342 43 343 51 l 342 43 q 335 15 340 29 l 335 15 l 332 4 q 313 -18 326 -11 q 284 -20 299 -25 q 263 -1 269 -15 q 260 28 256 14 l 260 28 l 264 39 q 268 51 267 46 l 268 51 q 272 86 268 61 l 272 86 q 285 142 276 111 l 285 142 q 299 199 292 172 l 299 199 q 301 211 301 207 l 301 211 q 281 214 288 213 l 281 214 q 253 215 271 215 l 253 215 q 228 214 236 215 q 208 210 219 213 l 208 210 l 194 204 q 166 205 181 199 z "},"§":{"ha":689,"x_min":74,"x_max":614,"o":"m 538 678 q 511 666 526 667 q 485 676 496 665 q 472 703 474 688 l 472 703 l 472 717 q 469 743 472 729 l 469 743 q 465 761 468 754 l 465 761 q 453 783 461 771 l 453 783 q 433 804 446 794 l 433 804 q 410 818 421 814 l 410 818 q 376 828 396 824 l 376 828 q 346 832 354 832 l 346 832 q 315 828 338 832 l 315 828 q 286 819 296 825 l 286 819 q 253 790 272 811 l 253 790 q 224 756 232 768 l 224 756 q 215 725 218 747 l 215 725 q 211 699 211 707 l 211 699 q 218 679 213 693 l 218 679 q 236 646 224 665 l 236 646 q 263 608 247 626 l 263 608 q 289 579 276 592 l 289 579 q 319 550 301 567 l 319 550 q 356 523 338 535 q 397 497 374 511 l 397 497 q 433 479 424 485 l 433 479 q 467 463 443 475 l 467 463 q 497 446 489 451 l 497 446 q 524 432 508 442 l 524 432 q 550 413 539 421 l 550 413 q 574 390 561 403 l 574 390 q 599 357 589 375 l 599 357 q 614 303 608 338 l 614 303 q 610 236 619 268 l 610 236 q 586 186 601 208 l 586 186 q 558 150 574 168 l 558 150 q 532 125 543 135 l 532 125 q 549 101 540 114 l 549 101 q 572 60 563 81 l 572 60 q 583 26 581 39 l 583 26 q 589 -3 588 14 l 589 -3 q 590 -39 592 -21 l 590 -39 q 581 -78 589 -57 l 581 -78 q 558 -115 572 -99 l 558 -115 q 525 -144 546 -129 l 525 -144 q 478 -175 506 -160 q 424 -200 451 -190 l 424 -200 q 385 -212 397 -210 l 385 -212 q 350 -215 372 -215 l 350 -215 q 301 -214 328 -217 l 301 -214 q 260 -206 278 -210 l 260 -206 q 219 -193 242 -201 l 219 -193 q 176 -169 199 -183 l 176 -169 q 133 -134 153 -156 q 101 -93 113 -112 l 101 -93 q 85 -60 90 -75 q 78 -33 81 -46 l 78 -33 l 75 -22 q 81 5 72 -8 q 104 22 89 18 q 133 17 119 25 q 149 -7 146 8 l 149 -7 l 150 -18 q 156 -34 153 -25 q 167 -56 160 -43 l 167 -56 q 186 -83 172 -68 q 215 -107 200 -97 l 215 -107 q 247 -122 232 -117 l 247 -122 q 278 -133 264 -129 l 278 -133 q 311 -139 292 -136 l 311 -139 q 347 -140 331 -142 l 347 -140 q 371 -139 364 -140 q 399 -129 378 -137 l 399 -129 q 442 -110 419 -122 l 442 -110 q 479 -85 464 -97 l 479 -85 q 501 -65 494 -74 l 501 -65 q 511 -50 507 -58 l 511 -50 q 515 -33 514 -40 l 515 -33 q 514 -12 515 -24 l 514 -12 q 511 8 513 0 l 511 8 q 503 31 508 15 l 503 31 q 486 60 497 44 l 486 60 q 468 83 478 74 l 468 83 q 442 96 453 83 l 442 96 q 435 110 436 101 l 435 110 q 413 121 424 117 l 413 121 q 372 138 397 129 q 326 153 347 147 l 326 153 q 276 171 301 161 l 276 171 q 232 190 251 181 l 232 190 q 186 219 211 200 l 186 219 q 135 268 160 239 l 135 268 q 103 311 111 297 l 103 311 q 82 360 93 326 l 82 360 q 75 438 71 399 l 75 438 q 93 503 79 475 l 93 503 q 119 546 106 531 l 119 546 q 151 572 132 558 q 182 590 169 585 l 182 590 q 172 606 176 599 l 172 606 q 147 654 156 632 l 147 654 q 138 686 140 675 l 138 686 q 140 738 135 701 l 140 738 q 160 796 147 774 l 160 796 q 199 842 172 814 l 199 842 q 246 883 225 869 l 246 883 q 303 903 269 897 l 303 903 q 349 907 333 907 l 349 907 q 389 901 363 906 l 389 901 q 438 889 417 896 l 438 889 q 479 863 458 879 l 479 863 q 515 825 501 846 l 515 825 q 535 790 528 806 l 535 790 q 544 753 542 774 l 544 753 q 547 718 547 735 l 547 718 l 547 704 q 538 678 549 689 z m 231 532 l 231 532 q 213 522 222 526 l 213 522 q 194 510 207 519 q 174 494 181 501 l 174 494 q 160 471 168 488 l 160 471 q 149 429 151 454 l 149 429 q 154 383 147 406 l 154 383 q 167 350 163 357 l 167 350 q 193 317 172 340 l 193 317 q 231 279 213 293 l 231 279 q 265 258 250 265 l 265 258 q 304 240 282 250 l 304 240 q 347 225 326 232 l 347 225 q 398 208 371 218 q 444 190 425 199 l 444 190 q 474 174 458 183 l 474 174 q 481 179 476 176 l 481 179 q 503 201 490 188 l 503 201 q 525 229 514 214 l 525 229 q 538 258 532 240 l 538 258 q 540 292 543 274 l 540 292 q 532 321 536 313 l 532 321 q 519 339 528 331 l 519 339 q 503 354 510 349 l 503 354 q 483 368 494 360 l 483 368 q 463 379 471 376 l 463 379 q 432 396 454 385 l 432 396 q 400 413 410 407 l 400 413 q 363 432 389 417 l 363 432 q 313 461 335 446 q 269 494 292 476 l 269 494 q 236 526 250 513 l 236 526 q 231 532 233 529 z "},"©":{"ha":989,"x_min":74,"x_max":917,"o":"m 588 10 l 588 10 q 581 8 585 8 l 581 8 q 579 8 581 8 l 579 8 q 544 6 557 6 l 544 6 q 525 8 536 6 l 525 8 q 488 10 504 8 l 488 10 q 435 18 464 11 l 435 18 q 392 31 406 25 l 392 31 q 353 49 379 36 l 353 49 q 294 86 326 63 l 294 86 q 240 128 264 107 l 240 128 q 189 175 215 147 l 189 175 q 142 231 160 203 l 142 231 q 115 271 124 256 l 115 271 q 94 322 106 288 l 94 322 q 78 388 83 358 l 78 388 q 74 432 74 417 l 74 432 q 77 485 74 449 q 83 536 81 522 l 83 536 q 100 588 88 553 l 100 588 q 121 639 113 624 l 121 639 q 146 681 128 654 l 146 681 q 193 736 165 707 l 193 736 q 246 785 219 765 l 246 785 q 287 815 272 806 q 338 838 301 824 q 406 860 375 851 l 406 860 q 474 871 436 868 q 544 871 513 874 l 544 871 q 592 864 575 868 l 592 864 q 646 847 608 860 l 646 847 q 714 817 685 833 l 714 817 q 754 792 742 801 l 754 792 q 797 753 769 781 l 797 753 q 844 696 825 724 l 844 696 q 876 639 863 668 l 876 639 q 899 583 892 608 l 899 583 q 911 526 906 560 l 911 526 q 915 449 917 492 l 915 449 q 912 391 914 408 q 903 340 910 374 l 903 340 q 882 269 896 308 l 882 269 q 856 204 869 232 l 856 204 q 832 164 842 178 q 799 125 822 150 l 799 125 q 753 85 774 100 l 753 85 q 721 63 732 69 l 721 63 q 682 42 708 56 l 682 42 q 642 22 654 26 l 642 22 q 597 11 629 17 l 597 11 q 588 10 593 11 z m 535 82 l 535 82 q 565 82 558 82 l 565 82 l 571 83 q 583 85 576 83 l 583 85 q 617 93 610 90 l 617 93 q 647 107 624 94 l 647 107 q 681 126 671 121 l 681 126 q 708 144 690 132 l 708 144 q 744 178 724 157 l 744 178 q 770 208 764 199 q 789 239 776 217 l 789 239 q 811 294 800 261 l 811 294 q 829 357 824 328 l 829 357 q 838 400 836 386 q 840 451 839 414 l 840 451 q 838 514 842 486 l 838 514 q 826 564 832 543 l 826 564 q 810 606 821 582 l 810 606 q 782 654 797 631 l 782 654 q 744 700 767 676 l 744 700 q 711 731 721 724 l 711 731 q 676 753 700 739 l 676 753 q 621 776 654 765 l 621 776 q 575 790 588 788 l 575 790 q 538 796 564 793 l 538 796 q 481 795 513 797 q 424 788 449 793 l 424 788 q 367 768 399 781 q 324 749 335 756 q 292 726 314 743 l 292 726 q 247 685 271 710 l 247 685 q 208 638 224 660 l 208 638 q 186 604 193 615 l 186 604 q 171 563 181 593 l 171 563 q 157 521 160 532 l 157 521 q 152 477 156 510 q 149 433 149 444 l 149 433 q 153 399 149 422 l 153 399 q 165 346 156 375 q 181 307 175 317 l 181 307 q 203 274 188 296 l 203 274 q 242 228 218 251 l 242 228 q 288 185 267 203 l 288 185 q 339 146 311 167 l 339 146 q 388 115 365 126 l 388 115 q 419 100 410 104 l 419 100 q 451 92 428 97 l 451 92 q 482 86 468 88 l 482 86 q 515 90 499 96 l 515 90 l 531 85 q 535 82 533 83 z m 721 538 q 719 509 726 522 q 697 490 713 496 q 668 492 682 485 l 668 492 l 656 499 q 629 510 644 504 l 629 510 q 617 514 621 514 l 617 514 q 599 511 610 514 l 599 511 q 583 506 589 510 l 583 506 q 565 489 578 503 l 565 489 q 549 467 553 475 l 549 467 q 543 447 546 460 l 543 447 q 544 419 542 436 q 553 385 546 401 q 569 357 561 368 l 569 357 q 599 340 576 350 l 599 340 q 626 331 619 331 l 626 331 q 647 339 633 331 l 647 339 q 668 351 664 347 l 668 351 l 676 360 q 702 372 686 371 q 729 361 718 372 q 740 335 740 350 q 731 308 740 319 l 731 308 l 722 300 q 682 272 710 286 l 682 272 q 630 256 653 257 q 568 271 607 254 l 568 271 q 513 308 531 288 l 513 308 q 485 354 497 328 q 469 409 474 381 q 469 461 465 438 l 469 461 q 481 499 474 482 l 481 499 q 508 539 489 515 l 508 539 q 547 572 529 563 l 547 572 q 582 585 563 581 l 582 585 q 617 589 601 589 l 617 589 q 658 579 636 589 l 658 579 q 689 565 675 572 l 689 565 l 701 560 q 721 538 715 553 z m 483 540 q 478 513 486 525 q 454 497 469 500 q 425 501 439 493 l 425 501 l 407 514 q 386 525 392 524 l 386 525 q 360 532 381 528 l 360 532 q 335 532 344 535 l 335 532 q 308 515 325 531 l 308 515 q 288 492 290 501 l 288 492 q 281 471 282 476 q 282 444 281 465 l 282 444 q 285 408 282 424 q 292 382 289 392 l 292 382 q 303 364 294 375 l 303 364 q 318 349 308 356 l 318 349 q 339 338 329 342 l 339 338 q 364 332 349 333 q 394 332 379 331 l 394 332 q 417 336 408 333 l 417 336 l 429 342 q 458 342 443 347 q 478 322 472 336 q 478 292 485 307 q 458 272 472 278 l 458 272 l 444 267 q 401 257 426 260 l 401 257 q 354 258 378 254 q 313 267 331 261 l 313 267 q 275 288 294 274 l 275 288 q 242 321 256 301 l 242 321 q 222 356 228 339 l 222 356 q 212 392 217 371 q 207 442 207 414 l 207 442 q 208 482 206 469 q 217 517 210 494 l 217 517 q 260 572 226 546 l 260 572 q 318 606 292 600 l 318 606 q 374 606 343 611 l 374 606 q 411 596 400 600 l 411 596 q 447 576 424 592 l 447 576 l 467 564 q 483 540 479 556 z "},"«":{"ha":610,"x_min":74,"x_max":536,"o":"m 505 501 q 530 486 521 499 q 536 458 539 474 q 521 435 533 443 l 521 435 l 508 425 q 485 406 499 418 l 485 406 q 456 378 469 392 l 456 378 q 429 353 440 364 l 429 353 q 406 329 418 342 l 406 329 l 401 324 q 418 314 410 319 l 418 314 q 453 294 439 303 l 453 294 q 488 274 469 285 l 488 274 q 521 240 510 257 l 521 240 l 528 229 q 533 201 536 217 q 517 177 531 186 q 489 172 504 168 q 465 188 474 175 l 465 188 l 458 199 q 444 211 456 204 l 444 211 q 415 229 429 221 l 415 229 q 382 249 400 238 l 382 249 q 353 264 365 258 l 353 264 q 317 301 325 276 l 317 301 q 329 356 307 331 l 329 356 q 351 380 338 365 q 376 407 364 394 l 376 407 q 403 432 388 417 l 403 432 q 435 461 418 447 l 435 461 q 465 486 451 476 l 465 486 l 476 494 q 505 501 489 504 z m 288 536 q 313 521 304 533 q 319 493 321 508 q 304 468 317 478 l 304 468 l 290 458 q 260 435 278 450 q 225 403 242 419 l 225 403 q 201 378 208 386 q 177 351 193 369 q 153 322 161 332 l 153 322 q 151 319 151 321 l 151 319 q 169 308 160 314 l 169 308 q 213 282 188 297 l 213 282 q 247 257 238 265 l 247 257 l 257 250 q 270 225 268 240 q 263 198 272 210 q 237 184 253 186 q 210 192 221 182 l 210 192 l 200 199 q 171 219 193 206 l 171 219 q 132 244 149 233 l 132 244 q 99 265 111 256 l 99 265 q 75 326 67 288 l 75 326 q 93 368 79 350 l 93 368 q 120 399 103 379 q 146 428 138 419 q 172 456 154 438 l 172 456 q 211 492 190 474 q 246 519 232 510 l 246 519 l 260 529 q 288 536 272 539 z "},"®":{"ha":1060,"x_min":74,"x_max":986,"o":"m 407 678 q 384 695 392 682 q 380 724 376 708 q 396 747 383 739 l 396 747 l 408 754 q 464 765 431 768 l 464 765 q 514 751 489 763 l 514 751 q 560 725 538 742 l 560 725 q 606 682 582 708 l 606 682 q 636 646 629 657 l 636 646 q 656 606 646 632 q 665 563 665 579 l 665 563 q 660 525 665 547 l 660 525 q 633 476 651 501 l 633 476 q 594 433 618 454 l 594 433 q 606 414 599 425 l 606 414 q 622 383 614 399 l 622 383 q 643 347 632 367 l 643 347 q 661 313 656 325 l 661 313 q 669 294 664 306 l 669 294 l 676 282 q 678 253 683 268 q 660 232 674 239 q 631 230 646 225 q 610 247 617 235 l 610 247 l 603 260 q 592 285 596 275 l 592 285 q 578 310 589 292 l 578 310 q 557 346 567 331 l 557 346 q 540 378 549 361 l 540 378 q 533 389 536 383 l 533 389 q 504 376 518 381 l 504 376 q 504 339 504 356 l 504 339 q 501 268 504 303 l 501 268 q 497 215 499 233 l 497 215 l 497 196 q 484 170 496 181 q 457 160 472 160 q 431 173 442 161 q 422 200 421 185 l 422 200 l 422 219 q 426 274 424 239 l 426 274 q 429 339 429 307 l 429 339 q 429 419 431 374 l 429 419 q 426 501 428 467 l 426 501 q 426 550 426 535 l 426 550 q 424 586 425 563 l 424 586 q 419 626 421 613 l 419 626 l 419 638 q 429 665 418 653 q 456 677 440 676 q 482 667 471 678 q 494 642 493 657 l 494 642 l 494 629 q 497 594 496 618 l 497 594 q 501 551 500 568 l 501 551 q 501 503 501 538 l 501 503 q 503 458 503 482 l 503 458 l 504 458 q 542 488 519 469 l 542 488 q 574 521 561 504 l 574 521 q 588 546 585 536 l 588 546 q 590 561 590 556 l 590 561 q 585 581 589 567 l 585 581 q 574 604 578 597 l 574 604 q 550 632 569 611 l 550 632 q 515 665 531 653 l 515 665 q 485 682 500 676 l 485 682 q 456 690 469 689 l 456 690 q 447 690 450 690 l 447 690 l 435 683 q 407 678 422 675 z m 601 76 l 601 76 q 613 79 607 78 l 613 79 q 650 92 635 86 q 688 110 665 99 l 688 110 q 725 133 708 122 l 725 133 q 767 164 740 144 l 767 164 q 804 197 792 185 l 804 197 q 838 238 817 210 q 864 272 860 265 l 864 272 q 879 300 869 281 l 879 300 q 896 335 889 319 l 896 335 q 906 367 901 349 l 906 367 q 910 395 910 386 q 910 435 911 404 q 906 490 910 465 q 899 526 901 515 l 899 526 q 883 568 894 538 l 883 568 q 868 611 874 599 l 868 611 q 850 645 863 622 q 818 693 838 668 l 818 693 q 792 728 800 719 l 792 728 q 757 758 783 736 l 757 758 q 714 792 733 779 l 714 792 q 688 807 696 804 l 688 807 q 649 821 678 811 l 649 821 q 607 832 618 829 l 607 832 q 575 838 597 835 l 575 838 q 525 838 554 840 l 525 838 q 485 835 496 836 l 485 835 q 447 826 472 832 l 447 826 q 407 815 424 821 l 407 815 q 379 803 390 808 q 346 786 368 799 l 346 786 q 301 758 325 775 q 258 724 276 740 l 258 724 q 232 697 240 706 l 232 697 q 204 663 224 688 l 204 663 q 182 629 186 638 l 182 629 q 168 597 176 619 l 168 597 q 154 546 160 576 l 154 546 q 149 504 149 517 l 149 504 q 151 463 149 492 q 156 413 153 433 l 156 413 q 167 365 158 392 l 167 365 q 186 307 174 339 l 186 307 q 204 269 200 278 l 204 269 q 230 239 211 260 q 276 190 249 218 l 276 190 q 314 154 303 164 l 314 154 q 347 131 325 146 l 347 131 q 381 109 371 114 q 421 94 392 104 l 421 94 q 461 83 451 86 l 461 83 q 494 78 472 81 l 494 78 q 536 74 514 74 l 536 74 q 568 75 558 74 l 568 75 l 582 78 q 601 76 592 79 z m 539 -1 l 539 -1 l 535 -1 q 482 3 508 -1 l 482 3 q 444 10 457 7 l 444 10 q 399 24 432 14 l 399 24 q 349 42 364 35 q 306 68 333 49 l 306 68 q 265 97 278 86 q 224 138 253 108 l 224 138 q 174 190 194 165 q 144 226 153 214 l 144 226 q 118 278 133 240 l 118 278 q 93 346 101 314 l 93 346 q 82 401 85 376 l 82 401 q 76 458 78 425 q 74 506 74 490 l 74 506 q 81 560 74 524 l 81 560 q 99 624 88 596 l 99 624 q 115 664 108 651 l 115 664 q 144 707 124 678 l 144 707 q 176 747 165 735 q 207 778 186 758 l 207 778 q 257 819 229 799 l 257 819 q 310 853 285 839 l 310 853 q 348 872 335 865 q 382 885 361 878 l 382 885 q 431 900 403 893 l 431 900 q 472 908 458 906 l 472 908 q 521 913 486 911 l 521 913 q 583 913 556 915 l 583 913 q 625 906 610 908 l 625 906 q 671 892 639 901 l 671 892 q 715 876 703 882 l 715 876 q 756 854 731 871 l 756 854 q 807 815 778 839 l 807 815 q 844 779 835 790 l 844 779 q 879 738 857 768 l 879 738 q 915 681 900 708 q 938 640 931 654 l 938 640 q 954 594 943 626 l 954 594 q 971 549 965 563 l 971 549 q 980 503 975 533 q 985 437 985 472 q 985 388 986 401 q 979 350 983 374 l 979 350 q 965 306 974 325 l 965 306 q 946 265 957 289 l 946 265 q 928 233 935 243 l 928 233 q 897 191 922 222 q 857 143 872 160 l 857 143 q 813 106 840 128 l 813 106 q 767 72 786 85 q 724 44 747 58 l 724 44 q 679 22 699 31 q 632 7 660 14 l 632 7 q 593 -1 606 0 l 593 -1 q 572 -6 582 -4 l 572 -6 l 563 -6 q 539 -1 550 -8 z "},"°":{"ha":536,"x_min":74,"x_max":464,"o":"m 218 554 l 218 554 q 217 556 217 556 l 217 556 q 179 569 206 558 l 179 569 q 131 599 150 582 l 131 599 q 96 642 108 617 l 96 642 q 78 685 83 664 l 78 685 q 74 718 74 704 l 74 718 q 75 742 74 729 l 75 742 q 83 781 75 757 l 83 781 q 110 829 93 806 l 110 829 q 151 868 129 854 l 151 868 q 190 886 172 881 l 190 886 q 217 892 206 890 q 251 894 229 894 l 251 894 q 287 892 275 894 q 315 885 299 890 q 343 876 332 881 l 343 876 q 375 858 354 871 l 375 858 q 418 822 397 844 l 418 822 q 444 785 438 799 l 444 785 q 457 747 450 772 l 457 747 q 464 699 464 721 l 464 699 q 460 665 463 679 l 460 665 q 451 640 456 653 l 451 640 q 433 608 446 628 l 433 608 q 401 574 419 588 l 401 574 q 372 556 385 561 l 372 556 q 333 542 361 550 l 333 542 q 264 538 297 531 l 264 538 l 239 543 q 218 554 226 546 z m 299 610 l 299 610 q 310 613 304 611 l 310 613 q 342 624 335 621 l 342 624 q 356 633 346 626 l 356 633 q 369 650 363 639 l 369 650 q 382 671 379 664 l 382 671 q 386 683 385 676 l 386 683 q 389 701 388 689 l 389 701 q 385 728 389 713 l 385 728 q 376 753 381 746 l 376 753 q 361 772 374 758 l 361 772 q 336 794 349 786 l 336 794 q 313 807 319 804 l 313 807 q 294 814 306 810 l 294 814 q 275 818 282 817 l 275 818 q 251 819 268 819 l 251 819 q 229 818 235 819 l 229 818 q 211 814 222 817 l 211 814 q 190 804 203 811 l 190 804 q 171 785 181 799 l 171 785 q 154 756 160 769 l 154 756 q 149 736 150 742 l 149 736 q 149 719 149 728 l 149 719 q 151 701 149 713 l 151 701 q 161 678 154 692 l 161 678 q 178 657 168 665 l 178 657 q 210 639 190 647 l 210 639 q 239 626 232 629 l 239 626 q 263 621 246 625 l 263 621 l 282 618 q 299 610 290 617 z "},"±":{"ha":718,"x_min":74,"x_max":646,"o":"m 91 126 q 74 150 78 135 q 80 178 71 165 q 103 194 89 192 l 103 194 l 113 196 q 153 199 124 199 l 153 199 q 189 200 178 200 l 189 200 q 222 200 199 200 l 222 200 q 261 201 247 201 l 261 201 q 315 201 276 203 q 369 197 353 199 l 369 197 q 424 190 386 194 l 424 190 q 474 183 461 185 q 509 181 488 182 q 543 179 531 179 l 543 179 q 568 179 556 179 l 568 179 q 589 181 579 179 l 589 181 l 603 183 q 631 176 618 185 q 645 151 643 167 q 638 124 647 136 q 613 108 628 111 l 613 108 l 600 107 q 569 104 585 104 l 569 104 q 542 104 556 104 q 504 106 528 104 q 467 108 481 107 q 414 115 453 110 l 414 115 q 361 122 376 121 l 361 122 q 311 126 347 124 q 263 126 275 128 l 263 126 q 225 125 250 126 l 225 125 q 189 125 200 125 l 189 125 q 154 124 179 125 l 154 124 q 128 122 133 124 l 128 122 l 119 121 q 91 126 104 118 z m 110 501 q 103 529 101 514 q 119 553 106 544 q 147 560 132 563 l 147 560 l 161 558 q 199 557 171 556 l 199 557 q 243 557 229 557 q 294 557 257 557 l 294 557 q 317 556 311 557 l 317 556 q 321 604 319 585 l 321 604 q 325 642 324 628 q 329 675 326 656 l 329 675 q 338 714 332 700 l 338 714 l 340 724 q 360 745 346 739 q 390 746 375 751 q 410 726 404 740 q 411 697 417 711 l 411 697 l 407 688 q 403 667 406 682 l 403 667 q 399 633 400 646 q 396 597 397 621 l 396 597 q 392 554 394 579 l 392 554 q 444 553 410 554 l 444 553 q 499 550 485 550 l 499 550 q 536 549 514 550 l 536 549 q 568 547 557 549 l 568 547 l 578 547 q 605 536 594 547 q 615 510 615 525 q 604 483 615 494 q 578 472 593 472 l 578 472 l 567 472 q 533 474 556 474 l 533 474 q 497 475 511 475 l 497 475 q 440 478 483 475 l 440 478 q 389 479 407 479 l 389 479 q 389 458 389 471 l 389 458 q 392 410 389 444 l 392 410 q 393 368 393 378 l 393 368 q 396 340 394 360 l 396 340 l 399 322 q 390 295 400 307 q 365 281 381 283 q 338 289 350 279 q 324 314 325 299 l 324 314 l 322 333 q 319 361 319 351 l 319 361 q 316 406 318 372 q 314 458 314 440 l 314 458 q 314 481 314 469 l 314 481 q 293 482 307 482 l 293 482 q 242 482 256 482 q 200 482 229 482 l 200 482 q 149 483 165 481 l 149 483 l 135 486 q 110 501 119 489 z "},"²":{"ha":501,"x_min":74,"x_max":428,"o":"m 135 844 q 106 840 121 836 q 84 858 92 844 q 81 886 76 872 l 81 886 l 85 900 q 101 947 89 917 l 101 947 q 131 996 117 982 l 131 996 q 156 1018 143 1010 l 156 1018 q 196 1038 171 1029 l 196 1038 q 246 1047 224 1047 l 246 1047 q 279 1043 265 1047 l 279 1043 q 321 1021 296 1038 l 321 1021 q 358 988 346 1004 l 358 988 q 382 949 369 974 q 399 904 394 924 l 399 904 q 401 849 403 885 l 401 849 q 389 782 400 811 l 389 782 q 353 721 378 754 l 353 721 q 314 672 329 688 l 314 672 q 282 644 297 657 l 282 644 q 240 614 265 631 l 240 614 q 219 600 229 607 l 219 600 q 240 582 231 590 l 240 582 q 267 564 251 571 l 267 564 q 283 560 276 560 l 283 560 q 310 567 293 560 l 310 567 q 333 579 328 575 q 349 596 339 583 l 349 596 l 361 611 q 387 625 371 624 q 415 617 403 626 q 428 592 426 607 q 419 564 429 576 l 419 564 l 407 549 q 378 519 392 529 q 339 497 365 510 l 339 497 q 286 485 310 485 l 286 485 q 233 497 261 483 l 233 497 q 190 525 210 508 l 190 525 q 154 558 175 539 l 154 558 q 149 563 151 560 l 149 563 q 142 558 144 560 l 142 558 q 115 550 128 554 l 115 550 q 85 561 97 546 q 74 594 74 576 q 81 621 74 613 l 81 621 q 110 639 96 633 l 110 639 q 144 644 124 644 l 144 644 q 149 647 144 644 l 149 647 q 199 677 176 663 q 235 703 221 692 q 261 726 249 714 l 261 726 q 293 764 272 738 l 293 764 q 318 810 311 790 l 318 810 q 326 851 325 826 l 326 851 q 325 889 328 878 l 325 889 q 314 916 322 899 q 300 942 306 933 l 300 942 q 278 960 293 949 l 278 960 q 260 971 265 968 l 260 971 q 243 972 253 972 l 243 972 q 222 968 236 972 l 222 968 q 199 957 206 961 l 199 957 q 185 944 192 953 l 185 944 q 171 918 181 939 l 171 918 q 157 881 160 892 l 157 881 l 153 867 q 135 844 149 851 z "},"³":{"ha":567,"x_min":74,"x_max":493,"o":"m 244 943 q 217 954 228 943 q 206 981 207 965 q 217 1007 206 996 l 217 1007 l 226 1017 q 272 1043 242 1032 l 272 1043 q 317 1054 300 1054 l 317 1054 q 347 1050 332 1054 l 347 1050 q 397 1025 365 1046 l 397 1025 q 440 989 429 1004 l 440 989 q 456 958 451 975 l 456 958 q 457 899 463 940 l 457 899 q 443 842 451 860 l 443 842 q 425 810 436 825 l 425 810 q 424 808 425 810 l 424 808 q 447 794 439 801 l 447 794 q 481 735 464 781 l 481 735 q 493 664 497 688 l 493 664 q 482 633 489 649 l 482 633 q 451 585 475 617 l 451 585 q 411 543 426 554 l 411 543 q 382 526 397 533 l 382 526 q 333 513 365 518 l 333 513 q 279 508 303 507 l 279 508 q 226 515 257 508 l 226 515 q 181 531 196 522 l 181 531 q 150 547 167 536 l 150 547 q 115 575 132 558 l 115 575 q 86 613 97 593 l 86 613 q 74 654 74 636 l 74 654 l 74 664 q 85 690 74 679 q 111 701 96 701 q 138 690 126 701 q 149 664 149 679 l 149 664 l 149 656 q 151 649 150 653 l 151 649 q 167 629 157 639 l 167 629 q 190 611 178 618 l 190 611 q 213 597 203 603 l 213 597 q 243 589 221 594 l 243 589 q 282 583 267 583 l 282 583 q 321 586 299 582 l 321 586 q 350 593 342 590 l 350 593 q 368 604 360 599 l 368 604 q 393 632 375 610 l 393 632 q 414 663 410 654 l 414 663 q 419 678 417 669 l 419 678 q 410 708 418 688 l 410 708 q 397 738 403 728 l 397 738 q 374 749 390 742 l 374 749 q 360 754 365 753 l 360 754 q 340 746 349 749 l 340 746 q 310 743 326 742 l 310 743 q 282 760 289 743 q 279 797 275 778 q 292 819 283 815 l 292 819 q 328 833 310 831 l 328 833 q 342 833 333 833 l 342 833 q 365 854 360 847 l 365 854 q 375 872 371 863 l 375 872 q 382 908 379 881 l 382 908 q 385 936 385 928 l 385 936 q 379 944 383 940 l 379 944 q 356 963 375 950 l 356 963 q 329 978 338 975 l 329 978 q 318 979 322 979 l 318 979 q 297 974 311 978 l 297 974 q 281 964 283 968 l 281 964 l 271 954 q 244 943 260 943 z "},"µ":{"ha":592,"x_min":74,"x_max":518,"o":"m 472 364 l 472 364 q 474 314 471 333 l 474 314 q 483 246 475 293 l 483 246 q 497 169 492 197 l 497 169 q 510 114 503 142 l 510 114 l 515 86 q 510 58 518 71 q 487 41 501 44 q 459 46 472 38 q 442 69 446 54 l 442 69 l 436 97 q 424 154 429 126 l 424 154 q 411 219 419 179 l 411 219 q 403 201 406 207 l 403 201 q 367 151 392 181 l 367 151 q 319 108 340 121 l 319 108 q 268 90 297 94 l 268 90 q 219 94 239 88 l 219 94 q 188 114 204 101 l 188 114 q 167 135 178 122 l 167 135 q 164 63 165 83 l 164 63 q 158 -15 163 33 q 153 -92 154 -64 l 153 -92 q 150 -143 150 -118 l 150 -143 l 149 -169 q 137 -196 149 -185 q 110 -206 125 -207 q 84 -194 94 -206 q 74 -168 74 -183 l 74 -168 l 75 -140 q 78 -85 75 -114 l 78 -85 q 83 -10 79 -58 q 89 68 88 38 l 89 68 q 93 178 90 96 l 93 178 q 93 250 93 219 l 93 250 q 93 290 94 276 l 93 290 q 93 314 93 300 l 93 314 q 86 350 88 338 l 86 350 q 83 415 85 374 l 83 415 q 85 488 82 457 l 85 488 q 88 535 86 517 l 88 535 q 93 579 90 551 l 93 579 q 93 588 93 583 q 95 603 93 592 q 103 621 97 615 q 119 631 108 626 q 149 624 131 635 l 149 624 q 178 601 172 613 q 176 582 183 589 l 176 582 l 169 576 q 167 525 168 554 l 167 525 q 165 470 165 496 q 165 386 164 444 l 165 386 q 168 322 167 349 l 168 322 q 175 292 171 308 l 175 292 q 190 233 185 246 l 190 233 q 211 200 196 221 l 211 200 q 233 174 224 181 l 233 174 q 247 165 242 168 l 247 165 q 260 165 251 164 l 260 165 q 281 172 271 167 l 281 172 q 310 200 292 179 l 310 200 q 338 238 329 224 l 338 238 q 368 303 346 253 l 368 303 q 379 328 374 317 l 379 328 q 396 372 392 358 l 396 372 q 397 376 396 375 l 397 376 q 407 460 399 414 l 407 460 q 424 528 417 508 l 424 528 q 442 567 431 549 l 442 567 q 446 568 443 567 q 458 572 449 569 q 474 577 467 575 q 492 579 482 579 q 507 576 501 579 q 516 565 513 574 q 518 546 519 557 l 518 546 q 511 511 517 532 l 511 511 q 497 453 507 492 q 481 394 488 415 l 481 394 q 472 364 476 381 z "},"·":{"ha":253,"x_min":75,"x_max":179,"o":"m 160 496 l 160 496 q 165 492 163 494 l 165 492 l 149 517 q 160 496 154 507 z m 160 496 l 160 496 q 178 429 185 447 l 178 429 q 149 403 171 411 q 110 404 128 394 l 110 404 q 99 413 106 407 l 99 413 q 75 444 81 421 q 81 483 69 467 l 81 483 q 128 506 99 508 l 128 506 q 150 503 142 506 l 150 503 q 160 496 156 500 z "},"»":{"ha":633,"x_min":74,"x_max":560,"o":"m 334 490 q 344 517 333 506 q 370 528 354 528 q 397 519 386 529 l 397 519 l 411 506 q 438 481 425 493 l 438 481 q 471 450 450 469 l 471 450 q 503 422 493 431 q 522 403 513 413 l 522 403 q 543 379 529 394 l 543 379 q 557 359 551 372 q 560 329 563 346 q 542 301 557 313 l 542 301 q 506 279 529 293 l 506 279 q 475 260 485 268 l 475 260 q 443 232 465 253 l 443 232 q 408 199 419 210 l 408 199 q 379 175 397 188 l 379 175 l 364 163 q 335 156 351 153 q 310 170 319 158 q 303 198 301 182 q 318 222 306 214 l 318 222 l 333 235 q 358 254 349 246 l 358 254 q 392 286 368 264 l 392 286 q 429 319 417 310 l 429 319 q 468 344 444 331 l 468 344 q 472 346 469 346 l 472 346 q 470 348 472 346 q 467 351 468 350 l 467 351 q 451 367 460 360 q 421 394 443 375 l 421 394 q 386 426 399 414 l 386 426 q 360 451 375 436 l 360 451 l 346 464 q 334 490 335 475 z m 92 463 q 89 491 85 476 q 107 513 93 506 q 136 515 121 521 l 136 515 l 146 513 q 186 485 164 507 l 186 485 q 215 457 200 469 l 215 457 q 249 429 229 444 l 249 429 q 283 404 271 414 l 283 404 q 311 369 304 388 l 311 369 q 285 303 325 333 l 285 303 q 256 279 269 292 l 256 279 q 214 242 240 265 l 214 242 q 174 204 188 217 l 174 204 q 150 181 161 192 l 150 181 l 138 168 q 112 157 128 157 q 85 167 96 157 q 74 193 74 178 q 83 219 74 208 l 83 219 l 96 232 q 122 258 108 244 l 122 258 q 163 297 135 271 l 163 297 q 206 335 189 321 l 206 335 q 226 353 215 344 l 226 353 q 206 369 217 361 l 206 369 q 165 400 182 385 l 165 400 q 132 432 149 415 l 132 432 q 122 442 126 439 l 122 442 l 114 444 q 92 463 99 449 z "},"¼":{"ha":944,"x_min":74,"x_max":872,"o":"m 871 265 l 871 265 q 864 238 874 250 q 839 224 854 225 l 839 224 l 821 221 q 814 189 817 206 l 814 189 q 800 128 803 143 l 800 128 q 796 89 797 115 l 796 89 q 790 39 793 63 l 790 39 l 789 15 q 775 -10 788 0 q 747 -18 763 -19 q 722 -5 732 -17 q 714 22 713 7 l 714 22 l 715 46 q 721 96 718 69 l 721 96 q 726 142 724 125 l 726 142 q 740 206 729 158 l 740 206 q 742 213 740 208 l 742 213 q 725 208 733 211 l 725 208 q 678 200 701 203 l 678 200 q 629 206 649 197 l 629 206 q 606 228 614 213 q 599 258 599 243 l 599 258 q 610 315 600 274 l 610 315 q 622 374 618 351 l 622 374 q 629 415 626 394 l 629 415 q 633 454 632 440 l 633 454 l 635 469 q 648 494 636 485 q 675 503 660 504 q 701 490 690 501 q 710 463 711 478 l 710 463 l 707 447 q 704 408 706 432 l 704 408 q 696 358 701 383 l 696 358 q 682 297 692 336 l 682 297 q 678 276 679 286 l 678 276 q 708 282 693 278 l 708 282 q 756 290 731 288 l 756 290 q 757 299 756 294 l 757 299 q 764 385 763 347 l 764 385 q 764 461 765 424 l 764 461 q 761 508 763 499 l 761 508 l 761 519 q 768 547 758 535 q 793 561 778 560 q 821 553 808 563 q 835 528 833 543 l 835 528 l 836 517 q 839 463 838 504 l 839 463 q 839 382 840 422 l 839 382 q 832 299 838 344 l 832 299 q 858 289 846 299 q 871 265 869 279 z m 792 981 l 804 979 q 835 900 856 968 l 835 900 q 815 847 824 868 l 815 847 q 782 776 807 826 l 782 776 q 710 651 756 726 l 710 651 q 643 544 664 578 l 643 544 q 585 443 624 513 l 585 443 q 501 296 544 375 l 501 296 q 440 189 457 215 l 440 189 q 396 121 424 163 l 396 121 q 350 47 369 82 l 350 47 q 328 1 332 13 l 328 1 l 322 -15 q 304 -37 318 -29 q 276 -40 290 -44 q 254 -22 261 -36 q 251 7 247 -8 l 251 7 l 256 22 q 285 83 263 42 l 285 83 q 333 164 306 121 l 333 164 q 376 229 361 204 l 376 229 q 436 332 393 254 l 436 332 q 519 481 479 411 l 519 481 q 579 585 558 551 l 579 585 q 646 692 600 617 l 646 692 q 715 811 690 764 q 746 876 739 858 l 746 876 q 761 917 753 892 l 761 917 q 750 947 749 929 l 750 947 q 764 972 751 963 q 792 981 776 982 l 792 981 z m 314 892 l 314 892 q 342 849 339 872 l 342 849 q 342 793 343 836 l 342 793 q 339 729 340 751 l 339 729 q 335 664 338 707 l 335 664 q 329 576 332 621 l 329 576 q 325 515 325 531 l 325 515 q 324 492 324 506 l 324 492 l 325 475 q 315 449 326 460 q 289 436 304 438 q 263 446 274 435 q 250 472 251 457 l 250 472 l 249 488 q 250 524 249 507 l 250 524 q 254 581 251 536 l 254 581 q 260 669 257 628 l 260 669 q 264 733 263 713 l 264 733 q 267 796 265 756 l 267 796 q 267 800 267 799 l 267 800 q 231 760 244 776 l 231 760 q 189 713 213 738 l 189 713 q 147 675 165 688 l 147 675 l 132 664 q 104 658 119 656 q 80 674 89 661 q 74 701 71 686 q 90 726 76 717 l 90 726 l 104 736 q 135 764 117 744 l 135 764 q 172 807 156 786 l 172 807 q 224 863 192 831 l 224 863 q 226 867 225 864 l 226 867 q 314 892 274 915 z "}}}
